<svg width="440.5625px" height="122px" xmlns="http://www.w3.org/2000/svg" viewBox="29.71875 14 440.5625 122" style="background: rgba(0, 0, 0, 0);" preserveAspectRatio="xMidYMid"><defs><filter id="editing-extrude-glow"><feFlood flood-color="#333333" result="flood-1"></feFlood><feMorphology operator="erode" radius="1" in="SourceAlpha" result="erode"></feMorphology><feComposite operator="in" in="flood-1" in2="erode" result="comp1"></feComposite><feConvolveMatrix order="3,3" divisor="1" in="comp1" result="convolve" kernelMatrix="0 0 0 1 1 1 0 0 0"></feConvolveMatrix><feOffset dx="-3" dy="0" in="convolve" result="extrude"></feOffset><feComposite operator="in" in="flood-1" in2="extrude" result="comp-extrude"></feComposite><feFlood flood-color="#000000" result="flood-2"></feFlood><feComposite operator="in" in="flood-2" in2="SourceAlpha" result="comp2"></feComposite><feMorphology operator="dilate" radius="1" in="comp2" result="dilate"></feMorphology><feOffset dx="-4.5" dy="0" in="dilate" result="offset"></feOffset><feGaussianBlur in="offset" stdDeviation="5.8" result="blur"></feGaussianBlur><feComponentTransfer in="blur" result="shadow"><feFuncA type="linear" slope="0.8" intercept="-0.2"></feFuncA></feComponentTransfer><feMerge><feMergeNode in="shadow"></feMergeNode><feMergeNode in="comp-extrude"></feMergeNode><feMergeNode in="SourceGraphic"></feMergeNode></feMerge></filter></defs><g filter="url(#editing-extrude-glow)"><g transform="translate(95.72997769713402, 99)"><path d="M30.21-33.92L30.21-33.92L30.21-33.92Q25.02-33.92 21.25-35.65L21.25-35.65L19.20-25.28L31.55-25.28L31.55-25.28Q31.55-21.89 29.86-19.74L29.86-19.74L29.86-19.74Q28.16-17.60 25.09-17.60L25.09-17.60L25.09-17.60Q21.76-17.60 18.69-18.82L18.69-18.82L18.69-18.82Q18.05-19.07 17.98-19.14L17.98-19.14L14.34 0L0.38 0L8.51-42.24L37.06-42.24L37.06-42.24Q37.06-38.34 35.23-36.13L35.23-36.13L35.23-36.13Q33.41-33.92 30.21-33.92ZM50.82-3.52L50.82-3.52L50.82-3.52Q48.83 1.28 42.50 1.28L42.50 1.28L42.50 1.28Q39.23 1.28 37.18-0.96L37.18-0.96L37.18-0.96Q35.46-2.94 35.46-4.93L35.46-4.93L35.46-4.93Q35.46-10.11 37.82-20.22L37.82-20.22L40.19-32.64L53.18-33.92L49.28-13.70L49.28-13.70Q48.19-8.96 48.19-7.30L48.19-7.30L48.19-7.30Q48.19-3.65 50.82-3.52ZM41.34-41.54L41.34-41.54L41.34-41.54Q41.34-44.03 43.42-45.38L43.42-45.38L43.42-45.38Q45.50-46.72 48.51-46.72L48.51-46.72L48.51-46.72Q51.52-46.72 53.34-45.38L53.34-45.38L53.34-45.38Q55.17-44.03 55.17-41.54L55.17-41.54L55.17-41.54Q55.17-39.04 53.15-37.76L53.15-37.76L53.15-37.76Q51.14-36.48 48.13-36.48L48.13-36.48L48.13-36.48Q45.12-36.48 43.23-37.76L43.23-37.76L43.23-37.76Q41.34-39.04 41.34-41.54ZM76.29-17.98L76.29-17.98L76.29-17.98Q78.59-22.08 78.59-26.24L78.59-26.24L78.59-26.24Q78.59-28.99 76.61-28.99L76.61-28.99L76.61-28.99Q75.07-28.99 73.47-26.37L73.47-26.37L73.47-26.37Q71.81-23.74 71.30-20.35L71.30-20.35L67.97 0L54.72 1.28L61.25-32.64L71.81-33.92L70.66-27.46L70.66-27.46Q73.79-33.92 80.83-33.92L80.83-33.92L80.83-33.92Q84.54-33.92 86.56-32L86.56-32L86.56-32Q88.58-30.08 88.58-26.14L88.58-26.14L88.58-26.14Q88.58-22.21 85.98-19.71L85.98-19.71L85.98-19.71Q83.39-17.22 78.98-17.22L78.98-17.22L78.98-17.22Q77.06-17.22 76.29-17.98ZM108.74-22.46L108.74-22.46L108.74-22.46Q109.63-24.83 109.63-26.88L109.63-26.88L109.63-26.88Q109.63-30.66 106.56-30.66L106.56-30.66L106.56-30.66Q104.96-30.66 103.65-29.22L103.65-29.22L103.65-29.22Q102.34-27.78 102.34-25.98L102.34-25.98L102.34-25.98Q102.34-24.70 103.36-23.68L103.36-23.68L103.36-23.68Q104.83-22.27 108.61-19.97L108.61-19.97L108.61-19.97Q112.38-17.66 113.82-15.78L113.82-15.78L113.82-15.78Q115.26-13.89 115.26-11.30L115.26-11.30L115.26-11.30Q115.26-8.70 114.02-6.34L114.02-6.34L114.02-6.34Q112.77-3.97 110.53-2.30L110.53-2.30L110.53-2.30Q105.73 1.28 98.05 1.28L98.05 1.28L98.05 1.28Q93.89 1.28 90.69-0.90L90.69-0.90L90.69-0.90Q87.49-3.01 87.49-5.50L87.49-5.50L87.49-5.50Q87.49-8 89.31-9.47L89.31-9.47L89.31-9.47Q91.14-10.94 93.82-10.94L93.82-10.94L93.82-10.94Q96.51-10.94 98.18-9.92L98.18-9.92L98.18-9.92Q97.34-7.81 97.34-6.40L97.34-6.40L97.34-6.40Q97.34-2.18 100.93-2.18L100.93-2.18L100.93-2.18Q102.46-2.18 103.49-3.14L103.49-3.14L103.49-3.14Q104.51-4.10 104.51-5.76L104.51-5.76L104.51-5.76Q104.51-9.02 99.01-12.48L99.01-12.48L99.01-12.48Q94.53-15.42 93.50-16.58L93.50-16.58L93.50-16.58Q91.78-18.62 91.78-21.18L91.78-21.18L91.78-21.18Q91.78-23.74 92.99-26.18L92.99-26.18L92.99-26.18Q94.21-28.61 96.45-30.34L96.45-30.34L96.45-30.34Q101.12-33.92 109.25-33.92L109.25-33.92L109.25-33.92Q113.41-33.92 115.87-32.26L115.87-32.26L115.87-32.26Q118.34-30.59 118.34-27.78L118.34-27.78L118.34-27.78Q118.34-24.96 116.64-23.36L116.64-23.36L116.64-23.36Q114.94-21.76 111.87-21.76L111.87-21.76L111.87-21.76Q109.76-21.76 108.74-22.46ZM121.73-6.40L121.73-6.40L121.73-6.40Q121.73-8.13 122.62-12.48L122.62-12.48L126.02-29.76L122.24-29.76L122.50-31.68L122.50-31.68Q130.18-33.98 137.60-39.62L137.60-39.62L140.67-39.62L139.14-32.64L144.13-32.64L143.55-29.76L138.62-29.76L135.36-12.48L135.36-12.48Q134.53-8.51 134.53-7.17L134.53-7.17L134.53-7.17Q134.53-4.10 137.22-3.46L137.22-3.46L137.22-3.46Q136.58-1.28 134.27 0L134.27 0L134.27 0Q131.97 1.28 128.70 1.28L128.70 1.28L128.70 1.28Q125.44 1.28 123.58-0.77L123.58-0.77L123.58-0.77Q121.73-2.82 121.73-6.40ZM181.95-29.57L181.95-29.57L181.95-29.57Q182.91-31.49 182.91-33.28L182.91-33.28L182.91-33.28Q182.91-35.07 182.72-36.06L182.72-36.06L182.72-36.06Q182.53-37.06 182.08-37.82L182.08-37.82L182.08-37.82Q181.12-39.49 179.20-39.49L179.20-39.49L179.20-39.49Q176.83-39.49 174.91-37.76L174.91-37.76L174.91-37.76Q172.86-35.97 172.86-33.15L172.86-33.15L172.86-33.15Q172.86-31.36 174.11-29.98L174.11-29.98L174.11-29.98Q175.36-28.61 177.28-27.33L177.28-27.33L177.28-27.33Q179.20-26.05 181.38-24.77L181.38-24.77L181.38-24.77Q183.55-23.49 185.47-21.95L185.47-21.95L185.47-21.95Q189.89-18.43 189.89-13.70L189.89-13.70L189.89-13.70Q189.89-10.50 188.19-7.78L188.19-7.78L188.19-7.78Q186.50-5.06 183.68-3.07L183.68-3.07L183.68-3.07Q177.54 1.28 169.41 1.28L169.41 1.28L169.41 1.28Q162.82 1.28 159.42-0.86L159.42-0.86L159.42-0.86Q156.03-3.01 156.03-6.27L156.03-6.27L156.03-6.27Q156.03-12.10 160.58-13.57L160.58-13.57L160.58-13.57Q161.86-14.02 163.81-14.02L163.81-14.02L163.81-14.02Q165.76-14.02 168-13.18L168-13.18L168-13.18Q166.98-10.56 166.98-8.19L166.98-8.19L166.98-8.19Q166.98-3.07 170.62-3.07L170.62-3.07L170.62-3.07Q172.99-3.07 174.94-4.80L174.94-4.80L174.94-4.80Q176.90-6.53 176.90-8.48L176.90-8.48L176.90-8.48Q176.90-10.43 175.65-11.84L175.65-11.84L175.65-11.84Q174.40-13.25 172.54-14.37L172.54-14.37L172.54-14.37Q170.69-15.49 168.54-16.58L168.54-16.58L168.54-16.58Q166.40-17.66 164.54-19.20L164.54-19.20L164.54-19.20Q160.19-22.72 160.19-28.35L160.19-28.35L160.19-28.35Q160.19-32 161.98-34.85L161.98-34.85L161.98-34.85Q163.78-37.70 166.66-39.62L166.66-39.62L166.66-39.62Q172.42-43.52 179.49-43.52L179.49-43.52L179.49-43.52Q186.56-43.52 189.98-41.41L189.98-41.41L189.98-41.41Q193.41-39.30 193.41-35.71L193.41-35.71L193.41-35.71Q193.41-32.58 190.98-30.59L190.98-30.59L190.98-30.59Q188.86-28.93 186.30-28.93L186.30-28.93L186.30-28.93Q183.74-28.93 181.95-29.57ZM210.05-3.52L210.05-3.52L210.05-3.52Q208.06 1.28 201.73 1.28L201.73 1.28L201.73 1.28Q198.53 1.28 196.48-0.96L196.48-0.96L196.48-0.96Q194.82-2.82 194.82-4.93L194.82-4.93L194.82-4.93Q194.82-9.73 197.06-20.22L197.06-20.22L201.73-44.80L214.72-46.08L208.51-13.70L208.51-13.70Q207.42-8.96 207.42-7.30L207.42-7.30L207.42-7.30Q207.42-3.65 210.05-3.52ZM230.85-3.52L230.85-3.52L230.85-3.52Q228.86 1.28 222.53 1.28L222.53 1.28L222.53 1.28Q219.26 1.28 217.22-0.96L217.22-0.96L217.22-0.96Q215.49-2.94 215.49-4.93L215.49-4.93L215.49-4.93Q215.49-10.11 217.86-20.22L217.86-20.22L220.22-32.64L233.22-33.92L229.31-13.70L229.31-13.70Q228.22-8.96 228.22-7.30L228.22-7.30L228.22-7.30Q228.22-3.65 230.85-3.52ZM221.38-41.54L221.38-41.54L221.38-41.54Q221.38-44.03 223.46-45.38L223.46-45.38L223.46-45.38Q225.54-46.72 228.54-46.72L228.54-46.72L228.54-46.72Q231.55-46.72 233.38-45.38L233.38-45.38L233.38-45.38Q235.20-44.03 235.20-41.54L235.20-41.54L235.20-41.54Q235.20-39.04 233.18-37.76L233.18-37.76L233.18-37.76Q231.17-36.48 228.16-36.48L228.16-36.48L228.16-36.48Q225.15-36.48 223.26-37.76L223.26-37.76L223.26-37.76Q221.38-39.04 221.38-41.54ZM256.45-33.92L256.45-33.92L256.45-33.92Q258.75-33.92 260.54-33.41L260.54-33.41L260.54-33.41Q260.61-33.66 260.74-34.37L260.74-34.37L261.06-36.35L261.06-36.35Q261.31-37.63 261.70-39.74L261.70-39.74L262.72-44.80L275.46-46.08L268.35-8.96L268.35-8.96Q268.29-8.58 268.29-7.94L268.29-7.94L268.29-6.91L268.29-6.91Q268.29-5.50 268.99-4.45L268.99-4.45L268.99-4.45Q269.70-3.39 270.85-3.39L270.85-3.39L270.85-3.39Q269.57-0.38 265.66 0.90L265.66 0.90L265.66 0.90Q264.32 1.28 262.43 1.28L262.43 1.28L262.43 1.28Q260.54 1.28 258.82 0.29L258.82 0.29L258.82 0.29Q257.09-0.70 256.58-2.37L256.58-2.37L256.58-2.37Q255.55-0.70 253.50 0.29L253.50 0.29L253.50 0.29Q251.46 1.28 248.48 1.28L248.48 1.28L248.48 1.28Q245.50 1.28 243.04 0.51L243.04 0.51L243.04 0.51Q240.58-0.26 239.04-1.92L239.04-1.92L239.04-1.92Q236.22-5.18 236.22-12.61L236.22-12.61L236.22-12.61Q236.22-22.21 241.86-28.03L241.86-28.03L241.86-28.03Q247.49-33.92 256.45-33.92ZM256-30.08L256-30.08L256-30.08Q253.63-30.08 252.35-27.52L252.35-27.52L252.35-27.52Q251.07-24.96 249.76-18.62L249.76-18.62L249.76-18.62Q248.45-12.29 248.45-6.59L248.45-6.59L248.45-6.59Q248.45-2.69 250.75-2.69L250.75-2.69L250.75-2.69Q252.80-2.69 254.24-4.74L254.24-4.74L254.24-4.74Q255.68-6.78 256.26-10.18L256.26-10.18L259.71-28.93L259.71-28.93Q258.37-30.08 256-30.08ZM302.21-10.82L302.21-10.82L302.21-10.82Q303.81-9.73 303.81-7.33L303.81-7.33L303.81-7.33Q303.81-4.93 302.59-3.39L302.59-3.39L302.59-3.39Q301.38-1.86 299.39-0.83L299.39-0.83L299.39-0.83Q295.30 1.28 290.88 1.28L290.88 1.28L290.88 1.28Q286.46 1.28 283.87 0.32L283.87 0.32L283.87 0.32Q281.28-0.64 279.55-2.43L279.55-2.43L279.55-2.43Q276.16-5.82 276.16-12.03L276.16-12.03L276.16-12.03Q276.16-21.70 281.41-27.58L281.41-27.58L281.41-27.58Q287.04-33.92 296.83-33.92L296.83-33.92L296.83-33.92Q302.91-33.92 305.92-31.36L305.92-31.36L305.92-31.36Q308.16-29.44 308.16-26.30L308.16-26.30L308.16-26.30Q308.16-15.04 288.70-15.04L288.70-15.04L288.70-15.04Q288.45-13.38 288.45-11.97L288.45-11.97L288.45-11.97Q288.45-9.02 289.76-7.90L289.76-7.90L289.76-7.90Q291.07-6.78 293.50-6.78L293.50-6.78L293.50-6.78Q295.94-6.78 298.53-7.90L298.53-7.90L298.53-7.90Q301.12-9.02 302.21-10.82ZM289.15-17.79L289.15-17.79L289.15-17.79Q293.70-17.79 296.32-20.61L296.32-20.61L296.32-20.61Q298.94-23.30 298.94-27.58L298.94-27.58L298.94-27.58Q298.94-29.06 298.40-29.86L298.40-29.86L298.40-29.86Q297.86-30.66 296.77-30.66L296.77-30.66L296.77-30.66Q295.68-30.66 294.75-30.24L294.75-30.24L294.75-30.24Q293.82-29.82 292.86-28.42L292.86-28.42L292.86-28.42Q290.50-25.22 289.15-17.79Z" fill="#eb6c6c"></path></g></g><style>text {
  font-size: 64px;
  font-family: Arial Black;
  dominant-baseline: central;
  text-anchor: middle;
}</style></svg>