<svg width="550.83125px" height="122px" xmlns="http://www.w3.org/2000/svg" viewBox="-25.415624999999977 14 550.83125 122" style="background: rgba(0, 0, 0, 0);" preserveAspectRatio="xMidYMid"><defs><filter id="editing-offset"><feFlood flood-color="#f00" flood-opacity="0.5" result="c1"></feFlood><feFlood flood-color="#0f0" flood-opacity="0.5" result="c2"></feFlood><feFlood flood-color="#00f" flood-opacity="0.5" result="c3"></feFlood><feComposite operator="in" in="c1" in2="SourceAlpha" result="text-c1"></feComposite><feComposite operator="in" in="c2" in2="SourceAlpha" result="text-c2"></feComposite><feComposite operator="in" in="c3" in2="SourceAlpha" result="text-c3"></feComposite><feOffset in="text-c1" dx="-10" dy="0" result="text1"></feOffset><feOffset in="text-c2" dx="10" dy="0" result="text2"></feOffset><feOffset in="text-c3" dx="0" dy="0" result="text3"></feOffset><feMerge><feMergeNode in="text1"></feMergeNode><feMergeNode in="text2"></feMergeNode><feMergeNode in="text3"></feMergeNode></feMerge></filter></defs><g filter="url(#editing-offset)"><g transform="translate(55.31881058216095, 99)"><path d="M26.05-29.57L26.05-29.57L26.05-29.57Q27.01-31.49 27.01-33.28L27.01-33.28L27.01-33.28Q27.01-35.07 26.82-36.06L26.82-36.06L26.82-36.06Q26.62-37.06 26.18-37.82L26.18-37.82L26.18-37.82Q25.22-39.49 23.30-39.49L23.30-39.49L23.30-39.49Q20.93-39.49 19.01-37.76L19.01-37.76L19.01-37.76Q16.96-35.97 16.96-33.15L16.96-33.15L16.96-33.15Q16.96-31.36 18.21-29.98L18.21-29.98L18.21-29.98Q19.46-28.61 21.38-27.33L21.38-27.33L21.38-27.33Q23.30-26.05 25.47-24.77L25.47-24.77L25.47-24.77Q27.65-23.49 29.57-21.95L29.57-21.95L29.57-21.95Q33.98-18.43 33.98-13.70L33.98-13.70L33.98-13.70Q33.98-10.50 32.29-7.78L32.29-7.78L32.29-7.78Q30.59-5.06 27.78-3.07L27.78-3.07L27.78-3.07Q21.63 1.28 13.50 1.28L13.50 1.28L13.50 1.28Q6.91 1.28 3.52-0.86L3.52-0.86L3.52-0.86Q0.13-3.01 0.13-6.27L0.13-6.27L0.13-6.27Q0.13-12.10 4.67-13.57L4.67-13.57L4.67-13.57Q5.95-14.02 7.90-14.02L7.90-14.02L7.90-14.02Q9.86-14.02 12.10-13.18L12.10-13.18L12.10-13.18Q11.07-10.56 11.07-8.19L11.07-8.19L11.07-8.19Q11.07-3.07 14.72-3.07L14.72-3.07L14.72-3.07Q17.09-3.07 19.04-4.80L19.04-4.80L19.04-4.80Q20.99-6.53 20.99-8.48L20.99-8.48L20.99-8.48Q20.99-10.43 19.74-11.84L19.74-11.84L19.74-11.84Q18.50-13.25 16.64-14.37L16.64-14.37L16.64-14.37Q14.78-15.49 12.64-16.58L12.64-16.58L12.64-16.58Q10.50-17.66 8.64-19.20L8.64-19.20L8.64-19.20Q4.29-22.72 4.29-28.35L4.29-28.35L4.29-28.35Q4.29-32 6.08-34.85L6.08-34.85L6.08-34.85Q7.87-37.70 10.75-39.62L10.75-39.62L10.75-39.62Q16.51-43.52 23.58-43.52L23.58-43.52L23.58-43.52Q30.66-43.52 34.08-41.41L34.08-41.41L34.08-41.41Q37.50-39.30 37.50-35.71L37.50-35.71L37.50-35.71Q37.50-32.58 35.07-30.59L35.07-30.59L35.07-30.59Q32.96-28.93 30.40-28.93L30.40-28.93L30.40-28.93Q27.84-28.93 26.05-29.57ZM64.77-10.82L64.77-10.82L64.77-10.82Q66.37-9.73 66.37-7.33L66.37-7.33L66.37-7.33Q66.37-4.93 65.15-3.39L65.15-3.39L65.15-3.39Q63.94-1.86 61.95-0.83L61.95-0.83L61.95-0.83Q57.86 1.28 53.44 1.28L53.44 1.28L53.44 1.28Q49.02 1.28 46.43 0.32L46.43 0.32L46.43 0.32Q43.84-0.64 42.11-2.43L42.11-2.43L42.11-2.43Q38.72-5.82 38.72-12.03L38.72-12.03L38.72-12.03Q38.72-21.70 43.97-27.58L43.97-27.58L43.97-27.58Q49.60-33.92 59.39-33.92L59.39-33.92L59.39-33.92Q65.47-33.92 68.48-31.36L68.48-31.36L68.48-31.36Q70.72-29.44 70.72-26.30L70.72-26.30L70.72-26.30Q70.72-15.04 51.26-15.04L51.26-15.04L51.26-15.04Q51.01-13.38 51.01-11.97L51.01-11.97L51.01-11.97Q51.01-9.02 52.32-7.90L52.32-7.90L52.32-7.90Q53.63-6.78 56.06-6.78L56.06-6.78L56.06-6.78Q58.50-6.78 61.09-7.90L61.09-7.90L61.09-7.90Q63.68-9.02 64.77-10.82ZM51.71-17.79L51.71-17.79L51.71-17.79Q56.26-17.79 58.88-20.61L58.88-20.61L58.88-20.61Q61.50-23.30 61.50-27.58L61.50-27.58L61.50-27.58Q61.50-29.06 60.96-29.86L60.96-29.86L60.96-29.86Q60.42-30.66 59.33-30.66L59.33-30.66L59.33-30.66Q58.24-30.66 57.31-30.24L57.31-30.24L57.31-30.24Q56.38-29.82 55.42-28.42L55.42-28.42L55.42-28.42Q53.06-25.22 51.71-17.79ZM104.32-26.62L104.32-26.62L104.32-26.62Q104.32-23.94 102.08-22.27L102.08-22.27L102.08-22.27Q99.84-20.61 96.19-20.61L96.19-20.61L96.19-20.61Q94.66-20.61 93.76-21.06L93.76-21.06L93.76-21.06Q94.46-22.72 94.69-24.80L94.69-24.80L94.69-24.80Q94.91-26.88 94.91-27.46L94.91-27.46L94.91-27.46Q94.91-30.14 93.06-30.14L93.06-30.14L93.06-30.14Q91.78-30.14 90.34-28.54L90.34-28.54L90.34-28.54Q88.90-26.94 87.68-24.45L87.68-24.45L87.68-24.45Q84.99-18.69 84.99-12.86L84.99-12.86L84.99-12.86Q84.99-9.66 86.21-8.22L86.21-8.22L86.21-8.22Q87.42-6.78 90.11-6.78L90.11-6.78L90.11-6.78Q93.82-6.78 96.77-9.86L96.77-9.86L96.77-9.86Q97.60-10.82 98.05-11.90L98.05-11.90L98.05-11.90Q100.48-10.62 100.48-7.10L100.48-7.10L100.48-7.10Q100.48-3.52 96.51-1.15L96.51-1.15L96.51-1.15Q92.42 1.28 85.89 1.28L85.89 1.28L85.89 1.28Q72.90 1.28 72.90-12.48L72.90-12.48L72.90-12.48Q72.90-22.53 78.59-28.29L78.59-28.29L78.59-28.29Q84.10-33.92 94.21-33.92L94.21-33.92L94.21-33.92Q104.32-33.92 104.32-26.62ZM120 1.28L120 1.28L120 1.28Q105.92 1.28 105.92-11.97L105.92-11.97L105.92-11.97Q105.92-21.38 111.10-27.46L111.10-27.46L111.10-27.46Q116.61-33.92 126.14-33.92L126.14-33.92L126.14-33.92Q133.06-33.92 136.58-30.72L136.58-30.72L136.58-30.72Q140.10-27.52 140.10-20.80L140.10-20.80L140.10-20.80Q140.10-10.56 134.59-4.61L134.59-4.61L134.59-4.61Q129.22 1.28 120 1.28ZM121.66-26.56L121.66-26.56L121.66-26.56Q120.90-24.83 120.29-22.24L120.29-22.24L120.29-22.24Q119.68-19.65 118.91-15.55L118.91-15.55L118.91-15.55Q118.14-11.46 118.14-6.40L118.14-6.40L118.14-6.40Q118.14-4.74 118.69-3.65L118.69-3.65L118.69-3.65Q119.23-2.56 120.70-2.56L120.70-2.56L120.70-2.56Q122.18-2.56 123.10-3.26L123.10-3.26L123.10-3.26Q124.03-3.97 124.74-5.63L124.74-5.63L124.74-5.63Q126.02-8.58 127.04-14.05L127.04-14.05L127.04-14.05Q128.06-19.52 128.16-21.89L128.16-21.89L128.16-21.89Q128.26-24.26 128.26-26.02L128.26-26.02L128.26-26.02Q128.26-27.78 127.74-28.93L127.74-28.93L127.74-28.93Q127.23-30.08 125.79-30.08L125.79-30.08L125.79-30.08Q124.35-30.08 123.39-29.18L123.39-29.18L123.39-29.18Q122.43-28.29 121.66-26.56ZM170.94 1.28L170.94 1.28L170.94 1.28Q163.20 1.28 163.20-4.74L163.20-4.74L163.20-4.74Q163.26-6.40 163.78-9.22L163.78-9.22L164.93-15.10L164.93-15.10Q166.66-23.42 166.66-25.28L166.66-25.28L166.66-25.28Q166.66-28.99 164.48-28.99L164.48-28.99L164.48-28.99Q160.83-28.99 158.91-19.46L158.91-19.46L155.14 0L142.27 1.28L148.93-32.70L159.42-33.92L158.40-27.65L158.40-27.65Q161.41-33.92 170.62-33.92L170.62-33.92L170.62-33.92Q175.10-33.92 176.99-32.03L176.99-32.03L176.99-32.03Q178.88-30.14 178.88-25.92L178.88-25.92L178.88-25.92Q178.88-21.95 176.83-12.67L176.83-12.67L176.83-12.67Q175.87-8.51 175.87-6.94L175.87-6.94L175.87-6.94Q175.87-5.38 176.74-4.48L176.74-4.48L176.74-4.48Q177.60-3.58 178.88-3.46L178.88-3.46L178.88-3.46Q178.24-1.28 176.03 0L176.03 0L176.03 0Q173.82 1.28 170.94 1.28ZM204.16-33.92L204.16-33.92L204.16-33.92Q206.46-33.92 208.26-33.41L208.26-33.41L208.26-33.41Q208.32-33.66 208.45-34.37L208.45-34.37L208.77-36.35L208.77-36.35Q209.02-37.63 209.41-39.74L209.41-39.74L210.43-44.80L223.17-46.08L216.06-8.96L216.06-8.96Q216.00-8.58 216.00-7.94L216.00-7.94L216.00-6.91L216.00-6.91Q216.00-5.50 216.70-4.45L216.70-4.45L216.70-4.45Q217.41-3.39 218.56-3.39L218.56-3.39L218.56-3.39Q217.28-0.38 213.38 0.90L213.38 0.90L213.38 0.90Q212.03 1.28 210.14 1.28L210.14 1.28L210.14 1.28Q208.26 1.28 206.53 0.29L206.53 0.29L206.53 0.29Q204.80-0.70 204.29-2.37L204.29-2.37L204.29-2.37Q203.26-0.70 201.22 0.29L201.22 0.29L201.22 0.29Q199.17 1.28 196.19 1.28L196.19 1.28L196.19 1.28Q193.22 1.28 190.75 0.51L190.75 0.51L190.75 0.51Q188.29-0.26 186.75-1.92L186.75-1.92L186.75-1.92Q183.94-5.18 183.94-12.61L183.94-12.61L183.94-12.61Q183.94-22.21 189.57-28.03L189.57-28.03L189.57-28.03Q195.20-33.92 204.16-33.92ZM203.71-30.08L203.71-30.08L203.71-30.08Q201.34-30.08 200.06-27.52L200.06-27.52L200.06-27.52Q198.78-24.96 197.47-18.62L197.47-18.62L197.47-18.62Q196.16-12.29 196.16-6.59L196.16-6.59L196.16-6.59Q196.16-2.69 198.46-2.69L198.46-2.69L198.46-2.69Q200.51-2.69 201.95-4.74L201.95-4.74L201.95-4.74Q203.39-6.78 203.97-10.18L203.97-10.18L207.42-28.93L207.42-28.93Q206.08-30.08 203.71-30.08ZM262.14-29.57L262.14-29.57L262.14-29.57Q263.10-31.49 263.10-33.28L263.10-33.28L263.10-33.28Q263.10-35.07 262.91-36.06L262.91-36.06L262.91-36.06Q262.72-37.06 262.27-37.82L262.27-37.82L262.27-37.82Q261.31-39.49 259.39-39.49L259.39-39.49L259.39-39.49Q257.02-39.49 255.10-37.76L255.10-37.76L255.10-37.76Q253.06-35.97 253.06-33.15L253.06-33.15L253.06-33.15Q253.06-31.36 254.30-29.98L254.30-29.98L254.30-29.98Q255.55-28.61 257.47-27.33L257.47-27.33L257.47-27.33Q259.39-26.05 261.57-24.77L261.57-24.77L261.57-24.77Q263.74-23.49 265.66-21.95L265.66-21.95L265.66-21.95Q270.08-18.43 270.08-13.70L270.08-13.70L270.08-13.70Q270.08-10.50 268.38-7.78L268.38-7.78L268.38-7.78Q266.69-5.06 263.87-3.07L263.87-3.07L263.87-3.07Q257.73 1.28 249.60 1.28L249.60 1.28L249.60 1.28Q243.01 1.28 239.62-0.86L239.62-0.86L239.62-0.86Q236.22-3.01 236.22-6.27L236.22-6.27L236.22-6.27Q236.22-12.10 240.77-13.57L240.77-13.57L240.77-13.57Q242.05-14.02 244.00-14.02L244.00-14.02L244.00-14.02Q245.95-14.02 248.19-13.18L248.19-13.18L248.19-13.18Q247.17-10.56 247.17-8.19L247.17-8.19L247.17-8.19Q247.17-3.07 250.82-3.07L250.82-3.07L250.82-3.07Q253.18-3.07 255.14-4.80L255.14-4.80L255.14-4.80Q257.09-6.53 257.09-8.48L257.09-8.48L257.09-8.48Q257.09-10.43 255.84-11.84L255.84-11.84L255.84-11.84Q254.59-13.25 252.74-14.37L252.74-14.37L252.74-14.37Q250.88-15.49 248.74-16.58L248.74-16.58L248.74-16.58Q246.59-17.66 244.74-19.20L244.74-19.20L244.74-19.20Q240.38-22.72 240.38-28.35L240.38-28.35L240.38-28.35Q240.38-32 242.18-34.85L242.18-34.85L242.18-34.85Q243.97-37.70 246.85-39.62L246.85-39.62L246.85-39.62Q252.61-43.52 259.68-43.52L259.68-43.52L259.68-43.52Q266.75-43.52 270.18-41.41L270.18-41.41L270.18-41.41Q273.60-39.30 273.60-35.71L273.60-35.71L273.60-35.71Q273.60-32.58 271.17-30.59L271.17-30.59L271.17-30.59Q269.06-28.93 266.50-28.93L266.50-28.93L266.50-28.93Q263.94-28.93 262.14-29.57ZM290.24-3.52L290.24-3.52L290.24-3.52Q288.26 1.28 281.92 1.28L281.92 1.28L281.92 1.28Q278.72 1.28 276.67-0.96L276.67-0.96L276.67-0.96Q275.01-2.82 275.01-4.93L275.01-4.93L275.01-4.93Q275.01-9.73 277.25-20.22L277.25-20.22L281.92-44.80L294.91-46.08L288.70-13.70L288.70-13.70Q287.62-8.96 287.62-7.30L287.62-7.30L287.62-7.30Q287.62-3.65 290.24-3.52ZM311.04-3.52L311.04-3.52L311.04-3.52Q309.06 1.28 302.72 1.28L302.72 1.28L302.72 1.28Q299.46 1.28 297.41-0.96L297.41-0.96L297.41-0.96Q295.68-2.94 295.68-4.93L295.68-4.93L295.68-4.93Q295.68-10.11 298.05-20.22L298.05-20.22L300.42-32.64L313.41-33.92L309.50-13.70L309.50-13.70Q308.42-8.96 308.42-7.30L308.42-7.30L308.42-7.30Q308.42-3.65 311.04-3.52ZM301.57-41.54L301.57-41.54L301.57-41.54Q301.57-44.03 303.65-45.38L303.65-45.38L303.65-45.38Q305.73-46.72 308.74-46.72L308.74-46.72L308.74-46.72Q311.74-46.72 313.57-45.38L313.57-45.38L313.57-45.38Q315.39-44.03 315.39-41.54L315.39-41.54L315.39-41.54Q315.39-39.04 313.38-37.76L313.38-37.76L313.38-37.76Q311.36-36.48 308.35-36.48L308.35-36.48L308.35-36.48Q305.34-36.48 303.46-37.76L303.46-37.76L303.46-37.76Q301.57-39.04 301.57-41.54ZM336.64-33.92L336.64-33.92L336.64-33.92Q338.94-33.92 340.74-33.41L340.74-33.41L340.74-33.41Q340.80-33.66 340.93-34.37L340.93-34.37L341.25-36.35L341.25-36.35Q341.50-37.63 341.89-39.74L341.89-39.74L342.91-44.80L355.65-46.08L348.54-8.96L348.54-8.96Q348.48-8.58 348.48-7.94L348.48-7.94L348.48-6.91L348.48-6.91Q348.48-5.50 349.18-4.45L349.18-4.45L349.18-4.45Q349.89-3.39 351.04-3.39L351.04-3.39L351.04-3.39Q349.76-0.38 345.86 0.90L345.86 0.90L345.86 0.90Q344.51 1.28 342.62 1.28L342.62 1.28L342.62 1.28Q340.74 1.28 339.01 0.29L339.01 0.29L339.01 0.29Q337.28-0.70 336.77-2.37L336.77-2.37L336.77-2.37Q335.74-0.70 333.70 0.29L333.70 0.29L333.70 0.29Q331.65 1.28 328.67 1.28L328.67 1.28L328.67 1.28Q325.70 1.28 323.23 0.51L323.23 0.51L323.23 0.51Q320.77-0.26 319.23-1.92L319.23-1.92L319.23-1.92Q316.42-5.18 316.42-12.61L316.42-12.61L316.42-12.61Q316.42-22.21 322.05-28.03L322.05-28.03L322.05-28.03Q327.68-33.92 336.64-33.92ZM336.19-30.08L336.19-30.08L336.19-30.08Q333.82-30.08 332.54-27.52L332.54-27.52L332.54-27.52Q331.26-24.96 329.95-18.62L329.95-18.62L329.95-18.62Q328.64-12.29 328.64-6.59L328.64-6.59L328.64-6.59Q328.64-2.69 330.94-2.69L330.94-2.69L330.94-2.69Q332.99-2.69 334.43-4.74L334.43-4.74L334.43-4.74Q335.87-6.78 336.45-10.18L336.45-10.18L339.90-28.93L339.90-28.93Q338.56-30.08 336.19-30.08ZM382.40-10.82L382.40-10.82L382.40-10.82Q384-9.73 384-7.33L384-7.33L384-7.33Q384-4.93 382.78-3.39L382.78-3.39L382.78-3.39Q381.57-1.86 379.58-0.83L379.58-0.83L379.58-0.83Q375.49 1.28 371.07 1.28L371.07 1.28L371.07 1.28Q366.66 1.28 364.06 0.32L364.06 0.32L364.06 0.32Q361.47-0.64 359.74-2.43L359.74-2.43L359.74-2.43Q356.35-5.82 356.35-12.03L356.35-12.03L356.35-12.03Q356.35-21.70 361.60-27.58L361.60-27.58L361.60-27.58Q367.23-33.92 377.02-33.92L377.02-33.92L377.02-33.92Q383.10-33.92 386.11-31.36L386.11-31.36L386.11-31.36Q388.35-29.44 388.35-26.30L388.35-26.30L388.35-26.30Q388.35-15.04 368.90-15.04L368.90-15.04L368.90-15.04Q368.64-13.38 368.64-11.97L368.64-11.97L368.64-11.97Q368.64-9.02 369.95-7.90L369.95-7.90L369.95-7.90Q371.26-6.78 373.70-6.78L373.70-6.78L373.70-6.78Q376.13-6.78 378.72-7.90L378.72-7.90L378.72-7.90Q381.31-9.02 382.40-10.82ZM369.34-17.79L369.34-17.79L369.34-17.79Q373.89-17.79 376.51-20.61L376.51-20.61L376.51-20.61Q379.14-23.30 379.14-27.58L379.14-27.58L379.14-27.58Q379.14-29.06 378.59-29.86L378.59-29.86L378.59-29.86Q378.05-30.66 376.96-30.66L376.96-30.66L376.96-30.66Q375.87-30.66 374.94-30.24L374.94-30.24L374.94-30.24Q374.02-29.82 373.06-28.42L373.06-28.42L373.06-28.42Q370.69-25.22 369.34-17.79Z"></path></g></g><style>text {
  font-size: 64px;
  font-family: Arial Black;
  dominant-baseline: central;
  text-anchor: middle;
}</style></svg>