<svg width="474.33125px" height="122px" xmlns="http://www.w3.org/2000/svg" viewBox="12.834374999999994 14 474.33125 122" style="background: rgba(0, 0, 0, 0);" preserveAspectRatio="xMidYMid"><defs><linearGradient id="editing-shiny-gradient" x1="0.04322727117869957" x2="0.9567727288213004" y1="0.2966316784620999" y2="0.7033683215379001" gradientUnits="objectBoundingBox"><stop offset="0.0" stop-color="#ffb200"></stop><stop offset="0.5" stop-color="#e10057"></stop><stop offset="1.0" stop-color="#5A1A80"></stop></linearGradient><linearGradient id="editing-shiny-gradient2" x1="0" x2="0" y1="0" y2="1"><stop offset="0.2" stop-color="#fff" stop-opacity="0.8"></stop><stop offset="0.8" stop-color="#fff" stop-opacity="0"></stop></linearGradient><filter id="editing-shiny2" x="-100%" y="-100%" width="300%" height="300%"><feMorphology operator="erode" radius="2"></feMorphology></filter><filter id="editing-shiny" x="-100%" y="-100%" width="300%" height="300%"><feFlood flood-color="#fff" result="flood"></feFlood><feConvolveMatrix in="SourceGraphic" result="conv" order="8,8" divisor="1" kernelMatrix="0 0 0 0 0 0 0 0 0 0 0 1 1 0 0 0 0 0 0 1 1 0 0 0 0 0 1 0 0 1 0 0 0 0 1 0 0 1 0 0 0 1 0 0 0 0 1 0 0 1 1 0 0 1 1 0 0 0 0 1 1 0 0 0 "></feConvolveMatrix><feOffset dx="0" dy="4" in="conv" result="offset"></feOffset><feComposite operator="in" in="flood" in2="offset" result="comp"></feComposite><feGaussianBlur in="offset" stdDeviation="3" result="shadow"></feGaussianBlur><feColorMatrix in="shadow" type="matrix" values="0.7 0 0 0 0  0 0.7 0 0 0  0 0 0.7 0 0  0 0 0 0.3 0" result="dark-shadow"></feColorMatrix><feOffset dx="0" dy="4" in="dark-shadow" result="offset-shadow"></feOffset><feOffset dx="0" dy="2" in="conv" result="offset-2"></feOffset><feComposite operator="out" in="offset" in2="offset-2" result="edge-diff"></feComposite><feGaussianBlur in="edge-diff" stdDeviation="1" result="edge-blur"></feGaussianBlur><feColorMatrix in="edge-blur" result="edge-shadow" type="matrix" values="0 0 0 0 0  0 0 0 0 0  0 0 0 0 0  0 0 0 0.5 0"></feColorMatrix><feComposite operator="in" in="edge-shadow" in2="offset" result="edge-shadow-in"></feComposite><feOffset dx="0" dy="1" in="edge-shadow-in" result="edge-shadow-final"></feOffset><feMerge result="out"><feMergeNode in="offset-shadow"></feMergeNode><feMergeNode in="comp"></feMergeNode><feMergeNode in="edge-shadow-final"></feMergeNode><feMergeNode in="SourceGraphic"></feMergeNode></feMerge></filter></defs><g filter="url(#editing-shiny)"><g transform="translate(81.48999643325806, 99)"><path d="M6.21-31.17L6.21-31.17L6.21-31.17Q4.03-32.83 4.03-36.38L4.03-36.38L4.03-36.38Q4.03-39.94 6.37-41.79L6.37-41.79L6.37-41.79Q8.70-43.65 12.74-43.65L12.74-43.65L12.74-43.65Q15.30-43.65 21.38-42.75L21.38-42.75L25.73-42.11L25.73-42.11Q27.90-41.86 30.18-41.86L30.18-41.86L30.18-41.86Q32.45-41.86 33.98-42.82L33.98-42.82L33.98-42.82Q36.29-40.77 36.29-37.82L36.29-37.82L36.29-37.82Q36.29-34.88 33.66-32.77L33.66-32.77L33.66-32.77Q30.98-30.53 27.52-30.53L27.52-30.53L27.52-30.53Q25.86-30.53 23.17-30.98L23.17-30.98L23.17-30.98Q20.03-21.12 20.03-14.27L20.03-14.27L20.03-14.27Q20.03-7.42 23.49-3.84L23.49-3.84L23.49-3.84Q21.89-0.96 19.52 0.16L19.52 0.16L19.52 0.16Q17.15 1.28 13.60 1.28L13.60 1.28L13.60 1.28Q10.05 1.28 7.84-0.67L7.84-0.67L7.84-0.67Q5.63-2.62 5.63-6.66L5.63-6.66L5.63-6.66Q5.63-11.33 8.19-19.01L8.19-19.01L8.19-19.01Q10.75-26.62 14.59-32.45L14.59-32.45L14.59-32.45Q12.74-32.64 10.82-32.64L10.82-32.64L10.82-32.64Q6.85-32.64 6.21-31.17ZM66.43-7.10L66.43-7.10L66.43-7.10Q66.43-4.29 69.31-3.46L69.31-3.46L69.31-3.46Q68.61-1.09 65.86 0.19L65.86 0.19L65.86 0.19Q63.55 1.28 61.02 1.28L61.02 1.28L61.02 1.28Q58.50 1.28 57.18 0.61L57.18 0.61L57.18 0.61Q55.87-0.06 55.17-1.15L55.17-1.15L55.17-1.15Q54.02-2.82 54.02-5.95L54.02-5.95L54.02-5.95Q54.02-7.81 55.04-12.93L55.04-12.93L55.94-17.79L55.94-17.79Q57.02-23.36 57.02-25.41L57.02-25.41L57.02-25.41Q57.02-28.99 55.04-28.99L55.04-28.99L55.04-28.99Q52.54-28.99 50.94-25.34L50.94-25.34L50.94-25.34Q50.30-23.94 49.86-21.82L49.86-21.82L45.50 0L32.64 1.28L41.66-44.80L54.53-46.08L54.02-43.52L54.02-43.52Q52.22-33.66 50.69-30.34L50.69-30.34L50.69-30.34Q54.27-33.92 60.86-33.92L60.86-33.92L60.86-33.92Q67.84-33.92 69.12-29.31L69.12-29.31L69.12-29.31Q69.57-27.84 69.57-26.56L69.57-26.56L69.57-26.56Q69.57-25.28 69.47-24.29L69.47-24.29L69.47-24.29Q69.38-23.30 69.06-21.50L69.06-21.50L68.22-16.90L66.75-9.66L66.75-9.66Q66.43-8.19 66.43-7.10ZM89.86-3.52L89.86-3.52L89.86-3.52Q87.87 1.28 81.54 1.28L81.54 1.28L81.54 1.28Q78.27 1.28 76.22-0.96L76.22-0.96L76.22-0.96Q74.50-2.94 74.50-4.93L74.50-4.93L74.50-4.93Q74.50-10.11 76.86-20.22L76.86-20.22L79.23-32.64L92.22-33.92L88.32-13.70L88.32-13.70Q87.23-8.96 87.23-7.30L87.23-7.30L87.23-7.30Q87.23-3.65 89.86-3.52ZM80.38-41.54L80.38-41.54L80.38-41.54Q80.38-44.03 82.46-45.38L82.46-45.38L82.46-45.38Q84.54-46.72 87.55-46.72L87.55-46.72L87.55-46.72Q90.56-46.72 92.38-45.38L92.38-45.38L92.38-45.38Q94.21-44.03 94.21-41.54L94.21-41.54L94.21-41.54Q94.21-39.04 92.19-37.76L92.19-37.76L92.19-37.76Q90.18-36.48 87.17-36.48L87.17-36.48L87.17-36.48Q84.16-36.48 82.27-37.76L82.27-37.76L82.27-37.76Q80.38-39.04 80.38-41.54ZM115.33-17.98L115.33-17.98L115.33-17.98Q117.63-22.08 117.63-26.24L117.63-26.24L117.63-26.24Q117.63-28.99 115.65-28.99L115.65-28.99L115.65-28.99Q114.11-28.99 112.51-26.37L112.51-26.37L112.51-26.37Q110.85-23.74 110.34-20.35L110.34-20.35L107.01 0L93.76 1.28L100.29-32.64L110.85-33.92L109.70-27.46L109.70-27.46Q112.83-33.92 119.87-33.92L119.87-33.92L119.87-33.92Q123.58-33.92 125.60-32L125.60-32L125.60-32Q127.62-30.08 127.62-26.14L127.62-26.14L127.62-26.14Q127.62-22.21 125.02-19.71L125.02-19.71L125.02-19.71Q122.43-17.22 118.02-17.22L118.02-17.22L118.02-17.22Q116.10-17.22 115.33-17.98ZM148.80-33.92L148.80-33.92L148.80-33.92Q151.10-33.92 152.90-33.41L152.90-33.41L152.90-33.41Q152.96-33.66 153.09-34.37L153.09-34.37L153.41-36.35L153.41-36.35Q153.66-37.63 154.05-39.74L154.05-39.74L155.07-44.80L167.81-46.08L160.70-8.96L160.70-8.96Q160.64-8.58 160.64-7.94L160.64-7.94L160.64-6.91L160.64-6.91Q160.64-5.50 161.34-4.45L161.34-4.45L161.34-4.45Q162.05-3.39 163.20-3.39L163.20-3.39L163.20-3.39Q161.92-0.38 158.02 0.90L158.02 0.90L158.02 0.90Q156.67 1.28 154.78 1.28L154.78 1.28L154.78 1.28Q152.90 1.28 151.17 0.29L151.17 0.29L151.17 0.29Q149.44-0.70 148.93-2.37L148.93-2.37L148.93-2.37Q147.90-0.70 145.86 0.29L145.86 0.29L145.86 0.29Q143.81 1.28 140.83 1.28L140.83 1.28L140.83 1.28Q137.86 1.28 135.39 0.51L135.39 0.51L135.39 0.51Q132.93-0.26 131.39-1.92L131.39-1.92L131.39-1.92Q128.58-5.18 128.58-12.61L128.58-12.61L128.58-12.61Q128.58-22.21 134.21-28.03L134.21-28.03L134.21-28.03Q139.84-33.92 148.80-33.92ZM148.35-30.08L148.35-30.08L148.35-30.08Q145.98-30.08 144.70-27.52L144.70-27.52L144.70-27.52Q143.42-24.96 142.11-18.62L142.11-18.62L142.11-18.62Q140.80-12.29 140.80-6.59L140.80-6.59L140.80-6.59Q140.80-2.69 143.10-2.69L143.10-2.69L143.10-2.69Q145.15-2.69 146.59-4.74L146.59-4.74L146.59-4.74Q148.03-6.78 148.61-10.18L148.61-10.18L152.06-28.93L152.06-28.93Q150.72-30.08 148.35-30.08ZM206.78-29.57L206.78-29.57L206.78-29.57Q207.74-31.49 207.74-33.28L207.74-33.28L207.74-33.28Q207.74-35.07 207.55-36.06L207.55-36.06L207.55-36.06Q207.36-37.06 206.91-37.82L206.91-37.82L206.91-37.82Q205.95-39.49 204.03-39.49L204.03-39.49L204.03-39.49Q201.66-39.49 199.74-37.76L199.74-37.76L199.74-37.76Q197.70-35.97 197.70-33.15L197.70-33.15L197.70-33.15Q197.70-31.36 198.94-29.98L198.94-29.98L198.94-29.98Q200.19-28.61 202.11-27.33L202.11-27.33L202.11-27.33Q204.03-26.05 206.21-24.77L206.21-24.77L206.21-24.77Q208.38-23.49 210.30-21.95L210.30-21.95L210.30-21.95Q214.72-18.43 214.72-13.70L214.72-13.70L214.72-13.70Q214.72-10.50 213.02-7.78L213.02-7.78L213.02-7.78Q211.33-5.06 208.51-3.07L208.51-3.07L208.51-3.07Q202.37 1.28 194.24 1.28L194.24 1.28L194.24 1.28Q187.65 1.28 184.26-0.86L184.26-0.86L184.26-0.86Q180.86-3.01 180.86-6.27L180.86-6.27L180.86-6.27Q180.86-12.10 185.41-13.57L185.41-13.57L185.41-13.57Q186.69-14.02 188.64-14.02L188.64-14.02L188.64-14.02Q190.59-14.02 192.83-13.18L192.83-13.18L192.83-13.18Q191.81-10.56 191.81-8.19L191.81-8.19L191.81-8.19Q191.81-3.07 195.46-3.07L195.46-3.07L195.46-3.07Q197.82-3.07 199.78-4.80L199.78-4.80L199.78-4.80Q201.73-6.53 201.73-8.48L201.73-8.48L201.73-8.48Q201.73-10.43 200.48-11.84L200.48-11.84L200.48-11.84Q199.23-13.25 197.38-14.37L197.38-14.37L197.38-14.37Q195.52-15.49 193.38-16.58L193.38-16.58L193.38-16.58Q191.23-17.66 189.38-19.20L189.38-19.20L189.38-19.20Q185.02-22.72 185.02-28.35L185.02-28.35L185.02-28.35Q185.02-32 186.82-34.85L186.82-34.85L186.82-34.85Q188.61-37.70 191.49-39.62L191.49-39.62L191.49-39.62Q197.25-43.52 204.32-43.52L204.32-43.52L204.32-43.52Q211.39-43.52 214.82-41.41L214.82-41.41L214.82-41.41Q218.24-39.30 218.24-35.71L218.24-35.71L218.24-35.71Q218.24-32.58 215.81-30.59L215.81-30.59L215.81-30.59Q213.70-28.93 211.14-28.93L211.14-28.93L211.14-28.93Q208.58-28.93 206.78-29.57ZM234.88-3.52L234.88-3.52L234.88-3.52Q232.90 1.28 226.56 1.28L226.56 1.28L226.56 1.28Q223.36 1.28 221.31-0.96L221.31-0.96L221.31-0.96Q219.65-2.82 219.65-4.93L219.65-4.93L219.65-4.93Q219.65-9.73 221.89-20.22L221.89-20.22L226.56-44.80L239.55-46.08L233.34-13.70L233.34-13.70Q232.26-8.96 232.26-7.30L232.26-7.30L232.26-7.30Q232.26-3.65 234.88-3.52ZM255.68-3.52L255.68-3.52L255.68-3.52Q253.70 1.28 247.36 1.28L247.36 1.28L247.36 1.28Q244.10 1.28 242.05-0.96L242.05-0.96L242.05-0.96Q240.32-2.94 240.32-4.93L240.32-4.93L240.32-4.93Q240.32-10.11 242.69-20.22L242.69-20.22L245.06-32.64L258.05-33.92L254.14-13.70L254.14-13.70Q253.06-8.96 253.06-7.30L253.06-7.30L253.06-7.30Q253.06-3.65 255.68-3.52ZM246.21-41.54L246.21-41.54L246.21-41.54Q246.21-44.03 248.29-45.38L248.29-45.38L248.29-45.38Q250.37-46.72 253.38-46.72L253.38-46.72L253.38-46.72Q256.38-46.72 258.21-45.38L258.21-45.38L258.21-45.38Q260.03-44.03 260.03-41.54L260.03-41.54L260.03-41.54Q260.03-39.04 258.02-37.76L258.02-37.76L258.02-37.76Q256.00-36.48 252.99-36.48L252.99-36.48L252.99-36.48Q249.98-36.48 248.10-37.76L248.10-37.76L248.10-37.76Q246.21-39.04 246.21-41.54ZM281.28-33.92L281.28-33.92L281.28-33.92Q283.58-33.92 285.38-33.41L285.38-33.41L285.38-33.41Q285.44-33.66 285.57-34.37L285.57-34.37L285.89-36.35L285.89-36.35Q286.14-37.63 286.53-39.74L286.53-39.74L287.55-44.80L300.29-46.08L293.18-8.96L293.18-8.96Q293.12-8.58 293.12-7.94L293.12-7.94L293.12-6.91L293.12-6.91Q293.12-5.50 293.82-4.45L293.82-4.45L293.82-4.45Q294.53-3.39 295.68-3.39L295.68-3.39L295.68-3.39Q294.40-0.38 290.50 0.90L290.50 0.90L290.50 0.90Q289.15 1.28 287.26 1.28L287.26 1.28L287.26 1.28Q285.38 1.28 283.65 0.29L283.65 0.29L283.65 0.29Q281.92-0.70 281.41-2.37L281.41-2.37L281.41-2.37Q280.38-0.70 278.34 0.29L278.34 0.29L278.34 0.29Q276.29 1.28 273.31 1.28L273.31 1.28L273.31 1.28Q270.34 1.28 267.87 0.51L267.87 0.51L267.87 0.51Q265.41-0.26 263.87-1.92L263.87-1.92L263.87-1.92Q261.06-5.18 261.06-12.61L261.06-12.61L261.06-12.61Q261.06-22.21 266.69-28.03L266.69-28.03L266.69-28.03Q272.32-33.92 281.28-33.92ZM280.83-30.08L280.83-30.08L280.83-30.08Q278.46-30.08 277.18-27.52L277.18-27.52L277.18-27.52Q275.90-24.96 274.59-18.62L274.59-18.62L274.59-18.62Q273.28-12.29 273.28-6.59L273.28-6.59L273.28-6.59Q273.28-2.69 275.58-2.69L275.58-2.69L275.58-2.69Q277.63-2.69 279.07-4.74L279.07-4.74L279.07-4.74Q280.51-6.78 281.09-10.18L281.09-10.18L284.54-28.93L284.54-28.93Q283.20-30.08 280.83-30.08ZM327.04-10.82L327.04-10.82L327.04-10.82Q328.64-9.73 328.64-7.33L328.64-7.33L328.64-7.33Q328.64-4.93 327.42-3.39L327.42-3.39L327.42-3.39Q326.21-1.86 324.22-0.83L324.22-0.83L324.22-0.83Q320.13 1.28 315.71 1.28L315.71 1.28L315.71 1.28Q311.30 1.28 308.70 0.32L308.70 0.32L308.70 0.32Q306.11-0.64 304.38-2.43L304.38-2.43L304.38-2.43Q300.99-5.82 300.99-12.03L300.99-12.03L300.99-12.03Q300.99-21.70 306.24-27.58L306.24-27.58L306.24-27.58Q311.87-33.92 321.66-33.92L321.66-33.92L321.66-33.92Q327.74-33.92 330.75-31.36L330.75-31.36L330.75-31.36Q332.99-29.44 332.99-26.30L332.99-26.30L332.99-26.30Q332.99-15.04 313.54-15.04L313.54-15.04L313.54-15.04Q313.28-13.38 313.28-11.97L313.28-11.97L313.28-11.97Q313.28-9.02 314.59-7.90L314.59-7.90L314.59-7.90Q315.90-6.78 318.34-6.78L318.34-6.78L318.34-6.78Q320.77-6.78 323.36-7.90L323.36-7.90L323.36-7.90Q325.95-9.02 327.04-10.82ZM313.98-17.79L313.98-17.79L313.98-17.79Q318.53-17.79 321.15-20.61L321.15-20.61L321.15-20.61Q323.78-23.30 323.78-27.58L323.78-27.58L323.78-27.58Q323.78-29.06 323.23-29.86L323.23-29.86L323.23-29.86Q322.69-30.66 321.60-30.66L321.60-30.66L321.60-30.66Q320.51-30.66 319.58-30.24L319.58-30.24L319.58-30.24Q318.66-29.82 317.70-28.42L317.70-28.42L317.70-28.42Q315.33-25.22 313.98-17.79Z" fill="url(#editing-shiny-gradient)"></path></g></g><g filter="url(#editing-shiny2)"><g transform="translate(81.49002695083618, 99)"><path d="M6.21-31.17L6.21-31.17L6.21-31.17Q4.03-32.83 4.03-36.38L4.03-36.38L4.03-36.38Q4.03-39.94 6.37-41.79L6.37-41.79L6.37-41.79Q8.70-43.65 12.74-43.65L12.74-43.65L12.74-43.65Q15.30-43.65 21.38-42.75L21.38-42.75L25.73-42.11L25.73-42.11Q27.90-41.86 30.18-41.86L30.18-41.86L30.18-41.86Q32.45-41.86 33.98-42.82L33.98-42.82L33.98-42.82Q36.29-40.77 36.29-37.82L36.29-37.82L36.29-37.82Q36.29-34.88 33.66-32.77L33.66-32.77L33.66-32.77Q30.98-30.53 27.52-30.53L27.52-30.53L27.52-30.53Q25.86-30.53 23.17-30.98L23.17-30.98L23.17-30.98Q20.03-21.12 20.03-14.27L20.03-14.27L20.03-14.27Q20.03-7.42 23.49-3.84L23.49-3.84L23.49-3.84Q21.89-0.96 19.52 0.16L19.52 0.16L19.52 0.16Q17.15 1.28 13.60 1.28L13.60 1.28L13.60 1.28Q10.05 1.28 7.84-0.67L7.84-0.67L7.84-0.67Q5.63-2.62 5.63-6.66L5.63-6.66L5.63-6.66Q5.63-11.33 8.19-19.01L8.19-19.01L8.19-19.01Q10.75-26.62 14.59-32.45L14.59-32.45L14.59-32.45Q12.74-32.64 10.82-32.64L10.82-32.64L10.82-32.64Q6.85-32.64 6.21-31.17ZM66.43-7.10L66.43-7.10L66.43-7.10Q66.43-4.29 69.31-3.46L69.31-3.46L69.31-3.46Q68.61-1.09 65.86 0.19L65.86 0.19L65.86 0.19Q63.55 1.28 61.02 1.28L61.02 1.28L61.02 1.28Q58.50 1.28 57.18 0.61L57.18 0.61L57.18 0.61Q55.87-0.06 55.17-1.15L55.17-1.15L55.17-1.15Q54.02-2.82 54.02-5.95L54.02-5.95L54.02-5.95Q54.02-7.81 55.04-12.93L55.04-12.93L55.94-17.79L55.94-17.79Q57.02-23.36 57.02-25.41L57.02-25.41L57.02-25.41Q57.02-28.99 55.04-28.99L55.04-28.99L55.04-28.99Q52.54-28.99 50.94-25.34L50.94-25.34L50.94-25.34Q50.30-23.94 49.86-21.82L49.86-21.82L45.50 0L32.64 1.28L41.66-44.80L54.53-46.08L54.02-43.52L54.02-43.52Q52.22-33.66 50.69-30.34L50.69-30.34L50.69-30.34Q54.27-33.92 60.86-33.92L60.86-33.92L60.86-33.92Q67.84-33.92 69.12-29.31L69.12-29.31L69.12-29.31Q69.57-27.84 69.57-26.56L69.57-26.56L69.57-26.56Q69.57-25.28 69.47-24.29L69.47-24.29L69.47-24.29Q69.38-23.30 69.06-21.50L69.06-21.50L68.22-16.90L66.75-9.66L66.75-9.66Q66.43-8.19 66.43-7.10ZM89.86-3.52L89.86-3.52L89.86-3.52Q87.87 1.28 81.54 1.28L81.54 1.28L81.54 1.28Q78.27 1.28 76.22-0.96L76.22-0.96L76.22-0.96Q74.50-2.94 74.50-4.93L74.50-4.93L74.50-4.93Q74.50-10.11 76.86-20.22L76.86-20.22L79.23-32.64L92.22-33.92L88.32-13.70L88.32-13.70Q87.23-8.96 87.23-7.30L87.23-7.30L87.23-7.30Q87.23-3.65 89.86-3.52ZM80.38-41.54L80.38-41.54L80.38-41.54Q80.38-44.03 82.46-45.38L82.46-45.38L82.46-45.38Q84.54-46.72 87.55-46.72L87.55-46.72L87.55-46.72Q90.56-46.72 92.38-45.38L92.38-45.38L92.38-45.38Q94.21-44.03 94.21-41.54L94.21-41.54L94.21-41.54Q94.21-39.04 92.19-37.76L92.19-37.76L92.19-37.76Q90.18-36.48 87.17-36.48L87.17-36.48L87.17-36.48Q84.16-36.48 82.27-37.76L82.27-37.76L82.27-37.76Q80.38-39.04 80.38-41.54ZM115.33-17.98L115.33-17.98L115.33-17.98Q117.63-22.08 117.63-26.24L117.63-26.24L117.63-26.24Q117.63-28.99 115.65-28.99L115.65-28.99L115.65-28.99Q114.11-28.99 112.51-26.37L112.51-26.37L112.51-26.37Q110.85-23.74 110.34-20.35L110.34-20.35L107.01 0L93.76 1.28L100.29-32.64L110.85-33.92L109.70-27.46L109.70-27.46Q112.83-33.92 119.87-33.92L119.87-33.92L119.87-33.92Q123.58-33.92 125.60-32L125.60-32L125.60-32Q127.62-30.08 127.62-26.14L127.62-26.14L127.62-26.14Q127.62-22.21 125.02-19.71L125.02-19.71L125.02-19.71Q122.43-17.22 118.02-17.22L118.02-17.22L118.02-17.22Q116.10-17.22 115.33-17.98ZM148.80-33.92L148.80-33.92L148.80-33.92Q151.10-33.92 152.90-33.41L152.90-33.41L152.90-33.41Q152.96-33.66 153.09-34.37L153.09-34.37L153.41-36.35L153.41-36.35Q153.66-37.63 154.05-39.74L154.05-39.74L155.07-44.80L167.81-46.08L160.70-8.96L160.70-8.96Q160.64-8.58 160.64-7.94L160.64-7.94L160.64-6.91L160.64-6.91Q160.64-5.50 161.34-4.45L161.34-4.45L161.34-4.45Q162.05-3.39 163.20-3.39L163.20-3.39L163.20-3.39Q161.92-0.38 158.02 0.90L158.02 0.90L158.02 0.90Q156.67 1.28 154.78 1.28L154.78 1.28L154.78 1.28Q152.90 1.28 151.17 0.29L151.17 0.29L151.17 0.29Q149.44-0.70 148.93-2.37L148.93-2.37L148.93-2.37Q147.90-0.70 145.86 0.29L145.86 0.29L145.86 0.29Q143.81 1.28 140.83 1.28L140.83 1.28L140.83 1.28Q137.86 1.28 135.39 0.51L135.39 0.51L135.39 0.51Q132.93-0.26 131.39-1.92L131.39-1.92L131.39-1.92Q128.58-5.18 128.58-12.61L128.58-12.61L128.58-12.61Q128.58-22.21 134.21-28.03L134.21-28.03L134.21-28.03Q139.84-33.92 148.80-33.92ZM148.35-30.08L148.35-30.08L148.35-30.08Q145.98-30.08 144.70-27.52L144.70-27.52L144.70-27.52Q143.42-24.96 142.11-18.62L142.11-18.62L142.11-18.62Q140.80-12.29 140.80-6.59L140.80-6.59L140.80-6.59Q140.80-2.69 143.10-2.69L143.10-2.69L143.10-2.69Q145.15-2.69 146.59-4.74L146.59-4.74L146.59-4.74Q148.03-6.78 148.61-10.18L148.61-10.18L152.06-28.93L152.06-28.93Q150.72-30.08 148.35-30.08ZM206.78-29.57L206.78-29.57L206.78-29.57Q207.74-31.49 207.74-33.28L207.74-33.28L207.74-33.28Q207.74-35.07 207.55-36.06L207.55-36.06L207.55-36.06Q207.36-37.06 206.91-37.82L206.91-37.82L206.91-37.82Q205.95-39.49 204.03-39.49L204.03-39.49L204.03-39.49Q201.66-39.49 199.74-37.76L199.74-37.76L199.74-37.76Q197.70-35.97 197.70-33.15L197.70-33.15L197.70-33.15Q197.70-31.36 198.94-29.98L198.94-29.98L198.94-29.98Q200.19-28.61 202.11-27.33L202.11-27.33L202.11-27.33Q204.03-26.05 206.21-24.77L206.21-24.77L206.21-24.77Q208.38-23.49 210.30-21.95L210.30-21.95L210.30-21.95Q214.72-18.43 214.72-13.70L214.72-13.70L214.72-13.70Q214.72-10.50 213.02-7.78L213.02-7.78L213.02-7.78Q211.33-5.06 208.51-3.07L208.51-3.07L208.51-3.07Q202.37 1.28 194.24 1.28L194.24 1.28L194.24 1.28Q187.65 1.28 184.26-0.86L184.26-0.86L184.26-0.86Q180.86-3.01 180.86-6.27L180.86-6.27L180.86-6.27Q180.86-12.10 185.41-13.57L185.41-13.57L185.41-13.57Q186.69-14.02 188.64-14.02L188.64-14.02L188.64-14.02Q190.59-14.02 192.83-13.18L192.83-13.18L192.83-13.18Q191.81-10.56 191.81-8.19L191.81-8.19L191.81-8.19Q191.81-3.07 195.46-3.07L195.46-3.07L195.46-3.07Q197.82-3.07 199.78-4.80L199.78-4.80L199.78-4.80Q201.73-6.53 201.73-8.48L201.73-8.48L201.73-8.48Q201.73-10.43 200.48-11.84L200.48-11.84L200.48-11.84Q199.23-13.25 197.38-14.37L197.38-14.37L197.38-14.37Q195.52-15.49 193.38-16.58L193.38-16.58L193.38-16.58Q191.23-17.66 189.38-19.20L189.38-19.20L189.38-19.20Q185.02-22.72 185.02-28.35L185.02-28.35L185.02-28.35Q185.02-32 186.82-34.85L186.82-34.85L186.82-34.85Q188.61-37.70 191.49-39.62L191.49-39.62L191.49-39.62Q197.25-43.52 204.32-43.52L204.32-43.52L204.32-43.52Q211.39-43.52 214.82-41.41L214.82-41.41L214.82-41.41Q218.24-39.30 218.24-35.71L218.24-35.71L218.24-35.71Q218.24-32.58 215.81-30.59L215.81-30.59L215.81-30.59Q213.70-28.93 211.14-28.93L211.14-28.93L211.14-28.93Q208.58-28.93 206.78-29.57ZM234.88-3.52L234.88-3.52L234.88-3.52Q232.90 1.28 226.56 1.28L226.56 1.28L226.56 1.28Q223.36 1.28 221.31-0.96L221.31-0.96L221.31-0.96Q219.65-2.82 219.65-4.93L219.65-4.93L219.65-4.93Q219.65-9.73 221.89-20.22L221.89-20.22L226.56-44.80L239.55-46.08L233.34-13.70L233.34-13.70Q232.26-8.96 232.26-7.30L232.26-7.30L232.26-7.30Q232.26-3.65 234.88-3.52ZM255.68-3.52L255.68-3.52L255.68-3.52Q253.70 1.28 247.36 1.28L247.36 1.28L247.36 1.28Q244.10 1.28 242.05-0.96L242.05-0.96L242.05-0.96Q240.32-2.94 240.32-4.93L240.32-4.93L240.32-4.93Q240.32-10.11 242.69-20.22L242.69-20.22L245.06-32.64L258.05-33.92L254.14-13.70L254.14-13.70Q253.06-8.96 253.06-7.30L253.06-7.30L253.06-7.30Q253.06-3.65 255.68-3.52ZM246.21-41.54L246.21-41.54L246.21-41.54Q246.21-44.03 248.29-45.38L248.29-45.38L248.29-45.38Q250.37-46.72 253.38-46.72L253.38-46.72L253.38-46.72Q256.38-46.72 258.21-45.38L258.21-45.38L258.21-45.38Q260.03-44.03 260.03-41.54L260.03-41.54L260.03-41.54Q260.03-39.04 258.02-37.76L258.02-37.76L258.02-37.76Q256.00-36.48 252.99-36.48L252.99-36.48L252.99-36.48Q249.98-36.48 248.10-37.76L248.10-37.76L248.10-37.76Q246.21-39.04 246.21-41.54ZM281.28-33.92L281.28-33.92L281.28-33.92Q283.58-33.92 285.38-33.41L285.38-33.41L285.38-33.41Q285.44-33.66 285.57-34.37L285.57-34.37L285.89-36.35L285.89-36.35Q286.14-37.63 286.53-39.74L286.53-39.74L287.55-44.80L300.29-46.08L293.18-8.96L293.18-8.96Q293.12-8.58 293.12-7.94L293.12-7.94L293.12-6.91L293.12-6.91Q293.12-5.50 293.82-4.45L293.82-4.45L293.82-4.45Q294.53-3.39 295.68-3.39L295.68-3.39L295.68-3.39Q294.40-0.38 290.50 0.90L290.50 0.90L290.50 0.90Q289.15 1.28 287.26 1.28L287.26 1.28L287.26 1.28Q285.38 1.28 283.65 0.29L283.65 0.29L283.65 0.29Q281.92-0.70 281.41-2.37L281.41-2.37L281.41-2.37Q280.38-0.70 278.34 0.29L278.34 0.29L278.34 0.29Q276.29 1.28 273.31 1.28L273.31 1.28L273.31 1.28Q270.34 1.28 267.87 0.51L267.87 0.51L267.87 0.51Q265.41-0.26 263.87-1.92L263.87-1.92L263.87-1.92Q261.06-5.18 261.06-12.61L261.06-12.61L261.06-12.61Q261.06-22.21 266.69-28.03L266.69-28.03L266.69-28.03Q272.32-33.92 281.28-33.92ZM280.83-30.08L280.83-30.08L280.83-30.08Q278.46-30.08 277.18-27.52L277.18-27.52L277.18-27.52Q275.90-24.96 274.59-18.62L274.59-18.62L274.59-18.62Q273.28-12.29 273.28-6.59L273.28-6.59L273.28-6.59Q273.28-2.69 275.58-2.69L275.58-2.69L275.58-2.69Q277.63-2.69 279.07-4.74L279.07-4.74L279.07-4.74Q280.51-6.78 281.09-10.18L281.09-10.18L284.54-28.93L284.54-28.93Q283.20-30.08 280.83-30.08ZM327.04-10.82L327.04-10.82L327.04-10.82Q328.64-9.73 328.64-7.33L328.64-7.33L328.64-7.33Q328.64-4.93 327.42-3.39L327.42-3.39L327.42-3.39Q326.21-1.86 324.22-0.83L324.22-0.83L324.22-0.83Q320.13 1.28 315.71 1.28L315.71 1.28L315.71 1.28Q311.30 1.28 308.70 0.32L308.70 0.32L308.70 0.32Q306.11-0.64 304.38-2.43L304.38-2.43L304.38-2.43Q300.99-5.82 300.99-12.03L300.99-12.03L300.99-12.03Q300.99-21.70 306.24-27.58L306.24-27.58L306.24-27.58Q311.87-33.92 321.66-33.92L321.66-33.92L321.66-33.92Q327.74-33.92 330.75-31.36L330.75-31.36L330.75-31.36Q332.99-29.44 332.99-26.30L332.99-26.30L332.99-26.30Q332.99-15.04 313.54-15.04L313.54-15.04L313.54-15.04Q313.28-13.38 313.28-11.97L313.28-11.97L313.28-11.97Q313.28-9.02 314.59-7.90L314.59-7.90L314.59-7.90Q315.90-6.78 318.34-6.78L318.34-6.78L318.34-6.78Q320.77-6.78 323.36-7.90L323.36-7.90L323.36-7.90Q325.95-9.02 327.04-10.82ZM313.98-17.79L313.98-17.79L313.98-17.79Q318.53-17.79 321.15-20.61L321.15-20.61L321.15-20.61Q323.78-23.30 323.78-27.58L323.78-27.58L323.78-27.58Q323.78-29.06 323.23-29.86L323.23-29.86L323.23-29.86Q322.69-30.66 321.60-30.66L321.60-30.66L321.60-30.66Q320.51-30.66 319.58-30.24L319.58-30.24L319.58-30.24Q318.66-29.82 317.70-28.42L317.70-28.42L317.70-28.42Q315.33-25.22 313.98-17.79Z" fill="url(#editing-shiny-gradient2)"></path></g></g><style>text {
  font-size: 64px;
  font-family: Arial Black;
  dominant-baseline: central;
  text-anchor: middle;
}</style></svg>