<svg width="530.825px" height="122px" xmlns="http://www.w3.org/2000/svg" viewBox="-15.412500000000023 14 530.825 122" style="background: rgba(0, 0, 0, 0);" preserveAspectRatio="xMidYMid"><defs><linearGradient id="editing-sticker-gradient" x1="0.5" y1="0.2" x2="0.5" y2="0.8"><stop offset="0" stop-color="#fd9"></stop><stop offset="1" stop-color="#9df"></stop></linearGradient><filter id="editing-sticker" x="-100%" y="-100%" width="300%" height="300%"><feMorphology operator="erode" radius="1" in="SourceAlpha" result="alpha-erode"></feMorphology><feConvolveMatrix order="3,3" divisor="1" kernelMatrix="0 1 0 1 1 1 0 1 0" in="alpha-erode" result="alpha-round"></feConvolveMatrix><feMorphology operator="dilate" radius="3.5" in="alpha-round" result="dilate-shadow"></feMorphology><feGaussianBlur in="dilate-shadow" stdDeviation="1.5" result="shadow"></feGaussianBlur><feFlood flood-color="#fff" result="flood-sticker"></feFlood><feComposite operator="in" in="flood-sticker" in2="alpha-round" result="comp-sticker"></feComposite><feMorphology operator="dilate" radius="3" in="comp-sticker" result="morph-sticker"></feMorphology><feConvolveMatrix order="3,3" divisor="1" kernelMatrix="0 1 0 1 1 1 0 1 0" in="morph-sticker" result="sticker"></feConvolveMatrix><feMerge><feMergeNode in="shadow"></feMergeNode><feMergeNode in="sticker"></feMergeNode><feMergeNode in="SourceGraphic"></feMergeNode></feMerge></filter></defs><g filter="url(#editing-sticker)"><g transform="translate(62.544991582632065, 99)"><path d="M30.21-33.92L30.21-33.92L30.21-33.92Q25.02-33.92 21.25-35.65L21.25-35.65L19.20-25.28L31.55-25.28L31.55-25.28Q31.55-21.89 29.86-19.74L29.86-19.74L29.86-19.74Q28.16-17.60 25.09-17.60L25.09-17.60L25.09-17.60Q21.76-17.60 18.69-18.82L18.69-18.82L18.69-18.82Q18.05-19.07 17.98-19.14L17.98-19.14L14.34 0L0.38 0L8.51-42.24L37.06-42.24L37.06-42.24Q37.06-38.34 35.23-36.13L35.23-36.13L35.23-36.13Q33.41-33.92 30.21-33.92ZM48.96 1.28L48.96 1.28L48.96 1.28Q34.88 1.28 34.88-11.97L34.88-11.97L34.88-11.97Q34.88-21.38 40.06-27.46L40.06-27.46L40.06-27.46Q45.57-33.92 55.10-33.92L55.10-33.92L55.10-33.92Q62.02-33.92 65.54-30.72L65.54-30.72L65.54-30.72Q69.06-27.52 69.06-20.80L69.06-20.80L69.06-20.80Q69.06-10.56 63.55-4.61L63.55-4.61L63.55-4.61Q58.18 1.28 48.96 1.28ZM50.62-26.56L50.62-26.56L50.62-26.56Q49.86-24.83 49.25-22.24L49.25-22.24L49.25-22.24Q48.64-19.65 47.87-15.55L47.87-15.55L47.87-15.55Q47.10-11.46 47.10-6.40L47.10-6.40L47.10-6.40Q47.10-4.74 47.65-3.65L47.65-3.65L47.65-3.65Q48.19-2.56 49.66-2.56L49.66-2.56L49.66-2.56Q51.14-2.56 52.06-3.26L52.06-3.26L52.06-3.26Q52.99-3.97 53.70-5.63L53.70-5.63L53.70-5.63Q54.98-8.58 56-14.05L56-14.05L56-14.05Q57.02-19.52 57.12-21.89L57.12-21.89L57.12-21.89Q57.22-24.26 57.22-26.02L57.22-26.02L57.22-26.02Q57.22-27.78 56.70-28.93L56.70-28.93L56.70-28.93Q56.19-30.08 54.75-30.08L54.75-30.08L54.75-30.08Q53.31-30.08 52.35-29.18L52.35-29.18L52.35-29.18Q51.39-28.29 50.62-26.56ZM93.38-2.69L93.38-2.69L93.38-2.69Q90.30 1.28 82.69 1.28L82.69 1.28L82.69 1.28Q78.72 1.28 75.84-1.12L75.84-1.12L75.84-1.12Q72.96-3.52 72.96-6.98L72.96-6.98L72.96-6.98Q72.96-8.90 73.15-9.86L73.15-9.86L77.44-32.64L90.43-33.92L85.76-9.22L85.76-9.22Q85.50-7.81 85.50-6.98L85.50-6.98L85.50-6.98Q85.50-3.26 87.74-3.26L87.74-3.26L87.74-3.26Q90.24-3.26 92.03-6.66L92.03-6.66L92.03-6.66Q92.61-7.74 92.86-9.15L92.86-9.15L97.41-32.64L110.02-33.92L105.28-8.96L105.28-8.96Q105.09-8 105.09-6.98L105.09-6.98L105.09-6.98Q105.09-5.95 105.66-4.83L105.66-4.83L105.66-4.83Q106.24-3.71 108.10-3.46L108.10-3.46L108.10-3.46Q107.71-1.92 106.37-0.90L106.37-0.90L106.37-0.90Q103.55 1.28 100.51 1.28L100.51 1.28L100.51 1.28Q97.47 1.28 95.68 0.19L95.68 0.19L95.68 0.19Q93.89-0.90 93.38-2.69ZM133.50-17.98L133.50-17.98L133.50-17.98Q135.81-22.08 135.81-26.24L135.81-26.24L135.81-26.24Q135.81-28.99 133.82-28.99L133.82-28.99L133.82-28.99Q132.29-28.99 130.69-26.37L130.69-26.37L130.69-26.37Q129.02-23.74 128.51-20.35L128.51-20.35L125.18 0L111.94 1.28L118.46-32.64L129.02-33.92L127.87-27.46L127.87-27.46Q131.01-33.92 138.05-33.92L138.05-33.92L138.05-33.92Q141.76-33.92 143.78-32L143.78-32L143.78-32Q145.79-30.08 145.79-26.14L145.79-26.14L145.79-26.14Q145.79-22.21 143.20-19.71L143.20-19.71L143.20-19.71Q140.61-17.22 136.19-17.22L136.19-17.22L136.19-17.22Q134.27-17.22 133.50-17.98ZM147.84-6.40L147.84-6.40L147.84-6.40Q147.84-8.13 148.74-12.48L148.74-12.48L152.13-29.76L148.35-29.76L148.61-31.68L148.61-31.68Q156.29-33.98 163.71-39.62L163.71-39.62L166.78-39.62L165.25-32.64L170.24-32.64L169.66-29.76L164.74-29.76L161.47-12.48L161.47-12.48Q160.64-8.51 160.64-7.17L160.64-7.17L160.64-7.17Q160.64-4.10 163.33-3.46L163.33-3.46L163.33-3.46Q162.69-1.28 160.38 0L160.38 0L160.38 0Q158.08 1.28 154.82 1.28L154.82 1.28L154.82 1.28Q151.55 1.28 149.70-0.77L149.70-0.77L149.70-0.77Q147.84-2.82 147.84-6.40ZM202.11-7.10L202.11-7.10L202.11-7.10Q202.11-4.29 204.99-3.46L204.99-3.46L204.99-3.46Q204.29-1.09 201.54 0.19L201.54 0.19L201.54 0.19Q199.23 1.28 196.70 1.28L196.70 1.28L196.70 1.28Q194.18 1.28 192.86 0.61L192.86 0.61L192.86 0.61Q191.55-0.06 190.85-1.15L190.85-1.15L190.85-1.15Q189.70-2.82 189.70-5.95L189.70-5.95L189.70-5.95Q189.70-7.81 190.72-12.93L190.72-12.93L191.62-17.79L191.62-17.79Q192.70-23.36 192.70-25.41L192.70-25.41L192.70-25.41Q192.70-28.99 190.72-28.99L190.72-28.99L190.72-28.99Q188.22-28.99 186.62-25.34L186.62-25.34L186.62-25.34Q185.98-23.94 185.54-21.82L185.54-21.82L181.18 0L168.32 1.28L177.34-44.80L190.21-46.08L189.70-43.52L189.70-43.52Q187.90-33.66 186.37-30.34L186.37-30.34L186.37-30.34Q189.95-33.92 196.54-33.92L196.54-33.92L196.54-33.92Q203.52-33.92 204.80-29.31L204.80-29.31L204.80-29.31Q205.25-27.84 205.25-26.56L205.25-26.56L205.25-26.56Q205.25-25.28 205.15-24.29L205.15-24.29L205.15-24.29Q205.06-23.30 204.74-21.50L204.74-21.50L203.90-16.90L202.43-9.66L202.43-9.66Q202.11-8.19 202.11-7.10ZM248.32-29.57L248.32-29.57L248.32-29.57Q249.28-31.49 249.28-33.28L249.28-33.28L249.28-33.28Q249.28-35.07 249.09-36.06L249.09-36.06L249.09-36.06Q248.90-37.06 248.45-37.82L248.45-37.82L248.45-37.82Q247.49-39.49 245.57-39.49L245.57-39.49L245.57-39.49Q243.20-39.49 241.28-37.76L241.28-37.76L241.28-37.76Q239.23-35.97 239.23-33.15L239.23-33.15L239.23-33.15Q239.23-31.36 240.48-29.98L240.48-29.98L240.48-29.98Q241.73-28.61 243.65-27.33L243.65-27.33L243.65-27.33Q245.57-26.05 247.74-24.77L247.74-24.77L247.74-24.77Q249.92-23.49 251.84-21.95L251.84-21.95L251.84-21.95Q256.26-18.43 256.26-13.70L256.26-13.70L256.26-13.70Q256.26-10.50 254.56-7.78L254.56-7.78L254.56-7.78Q252.86-5.06 250.05-3.07L250.05-3.07L250.05-3.07Q243.90 1.28 235.78 1.28L235.78 1.28L235.78 1.28Q229.18 1.28 225.79-0.86L225.79-0.86L225.79-0.86Q222.40-3.01 222.40-6.27L222.40-6.27L222.40-6.27Q222.40-12.10 226.94-13.57L226.94-13.57L226.94-13.57Q228.22-14.02 230.18-14.02L230.18-14.02L230.18-14.02Q232.13-14.02 234.37-13.18L234.37-13.18L234.37-13.18Q233.34-10.56 233.34-8.19L233.34-8.19L233.34-8.19Q233.34-3.07 236.99-3.07L236.99-3.07L236.99-3.07Q239.36-3.07 241.31-4.80L241.31-4.80L241.31-4.80Q243.26-6.53 243.26-8.48L243.26-8.48L243.26-8.48Q243.26-10.43 242.02-11.84L242.02-11.84L242.02-11.84Q240.77-13.25 238.91-14.37L238.91-14.37L238.91-14.37Q237.06-15.49 234.91-16.58L234.91-16.58L234.91-16.58Q232.77-17.66 230.91-19.20L230.91-19.20L230.91-19.20Q226.56-22.72 226.56-28.35L226.56-28.35L226.56-28.35Q226.56-32 228.35-34.85L228.35-34.85L228.35-34.85Q230.14-37.70 233.02-39.62L233.02-39.62L233.02-39.62Q238.78-43.52 245.86-43.52L245.86-43.52L245.86-43.52Q252.93-43.52 256.35-41.41L256.35-41.41L256.35-41.41Q259.78-39.30 259.78-35.71L259.78-35.71L259.78-35.71Q259.78-32.58 257.34-30.59L257.34-30.59L257.34-30.59Q255.23-28.93 252.67-28.93L252.67-28.93L252.67-28.93Q250.11-28.93 248.32-29.57ZM276.42-3.52L276.42-3.52L276.42-3.52Q274.43 1.28 268.10 1.28L268.10 1.28L268.10 1.28Q264.90 1.28 262.85-0.96L262.85-0.96L262.85-0.96Q261.18-2.82 261.18-4.93L261.18-4.93L261.18-4.93Q261.18-9.73 263.42-20.22L263.42-20.22L268.10-44.80L281.09-46.08L274.88-13.70L274.88-13.70Q273.79-8.96 273.79-7.30L273.79-7.30L273.79-7.30Q273.79-3.65 276.42-3.52ZM297.22-3.52L297.22-3.52L297.22-3.52Q295.23 1.28 288.90 1.28L288.90 1.28L288.90 1.28Q285.63 1.28 283.58-0.96L283.58-0.96L283.58-0.96Q281.86-2.94 281.86-4.93L281.86-4.93L281.86-4.93Q281.86-10.11 284.22-20.22L284.22-20.22L286.59-32.64L299.58-33.92L295.68-13.70L295.68-13.70Q294.59-8.96 294.59-7.30L294.59-7.30L294.59-7.30Q294.59-3.65 297.22-3.52ZM287.74-41.54L287.74-41.54L287.74-41.54Q287.74-44.03 289.82-45.38L289.82-45.38L289.82-45.38Q291.90-46.72 294.91-46.72L294.91-46.72L294.91-46.72Q297.92-46.72 299.74-45.38L299.74-45.38L299.74-45.38Q301.57-44.03 301.57-41.54L301.57-41.54L301.57-41.54Q301.57-39.04 299.55-37.76L299.55-37.76L299.55-37.76Q297.54-36.48 294.53-36.48L294.53-36.48L294.53-36.48Q291.52-36.48 289.63-37.76L289.63-37.76L289.63-37.76Q287.74-39.04 287.74-41.54ZM322.82-33.92L322.82-33.92L322.82-33.92Q325.12-33.92 326.91-33.41L326.91-33.41L326.91-33.41Q326.98-33.66 327.10-34.37L327.10-34.37L327.42-36.35L327.42-36.35Q327.68-37.63 328.06-39.74L328.06-39.74L329.09-44.80L341.82-46.08L334.72-8.96L334.72-8.96Q334.66-8.58 334.66-7.94L334.66-7.94L334.66-6.91L334.66-6.91Q334.66-5.50 335.36-4.45L335.36-4.45L335.36-4.45Q336.06-3.39 337.22-3.39L337.22-3.39L337.22-3.39Q335.94-0.38 332.03 0.90L332.03 0.90L332.03 0.90Q330.69 1.28 328.80 1.28L328.80 1.28L328.80 1.28Q326.91 1.28 325.18 0.29L325.18 0.29L325.18 0.29Q323.46-0.70 322.94-2.37L322.94-2.37L322.94-2.37Q321.92-0.70 319.87 0.29L319.87 0.29L319.87 0.29Q317.82 1.28 314.85 1.28L314.85 1.28L314.85 1.28Q311.87 1.28 309.41 0.51L309.41 0.51L309.41 0.51Q306.94-0.26 305.41-1.92L305.41-1.92L305.41-1.92Q302.59-5.18 302.59-12.61L302.59-12.61L302.59-12.61Q302.59-22.21 308.22-28.03L308.22-28.03L308.22-28.03Q313.86-33.92 322.82-33.92ZM322.37-30.08L322.37-30.08L322.37-30.08Q320-30.08 318.72-27.52L318.72-27.52L318.72-27.52Q317.44-24.96 316.13-18.62L316.13-18.62L316.13-18.62Q314.82-12.29 314.82-6.59L314.82-6.59L314.82-6.59Q314.82-2.69 317.12-2.69L317.12-2.69L317.12-2.69Q319.17-2.69 320.61-4.74L320.61-4.74L320.61-4.74Q322.05-6.78 322.62-10.18L322.62-10.18L326.08-28.93L326.08-28.93Q324.74-30.08 322.37-30.08ZM368.58-10.82L368.58-10.82L368.58-10.82Q370.18-9.73 370.18-7.33L370.18-7.33L370.18-7.33Q370.18-4.93 368.96-3.39L368.96-3.39L368.96-3.39Q367.74-1.86 365.76-0.83L365.76-0.83L365.76-0.83Q361.66 1.28 357.25 1.28L357.25 1.28L357.25 1.28Q352.83 1.28 350.24 0.32L350.24 0.32L350.24 0.32Q347.65-0.64 345.92-2.43L345.92-2.43L345.92-2.43Q342.53-5.82 342.53-12.03L342.53-12.03L342.53-12.03Q342.53-21.70 347.78-27.58L347.78-27.58L347.78-27.58Q353.41-33.92 363.20-33.92L363.20-33.92L363.20-33.92Q369.28-33.92 372.29-31.36L372.29-31.36L372.29-31.36Q374.53-29.44 374.53-26.30L374.53-26.30L374.53-26.30Q374.53-15.04 355.07-15.04L355.07-15.04L355.07-15.04Q354.82-13.38 354.82-11.97L354.82-11.97L354.82-11.97Q354.82-9.02 356.13-7.90L356.13-7.90L356.13-7.90Q357.44-6.78 359.87-6.78L359.87-6.78L359.87-6.78Q362.30-6.78 364.90-7.90L364.90-7.90L364.90-7.90Q367.49-9.02 368.58-10.82ZM355.52-17.79L355.52-17.79L355.52-17.79Q360.06-17.79 362.69-20.61L362.69-20.61L362.69-20.61Q365.31-23.30 365.31-27.58L365.31-27.58L365.31-27.58Q365.31-29.06 364.77-29.86L364.77-29.86L364.77-29.86Q364.22-30.66 363.14-30.66L363.14-30.66L363.14-30.66Q362.05-30.66 361.12-30.24L361.12-30.24L361.12-30.24Q360.19-29.82 359.23-28.42L359.23-28.42L359.23-28.42Q356.86-25.22 355.52-17.79Z" fill="url(#editing-sticker-gradient)" stroke="#000" stroke-width="2.5"></path></g></g><style>text {
  font-size: 64px;
  font-family: Arial Black;
  dominant-baseline: central;
  text-anchor: middle;
}</style></svg>