<svg width="23" height="24" viewBox="0 0 16 18" fill="none" xmlns="http://www.w3.org/2000/svg">
<path d="M4.02656 13.1787C4.05781 13.1787 4.08906 13.1754 4.12031 13.1704L6.74844 12.6807C6.77969 12.674 6.80938 12.6591 6.83125 12.6342L13.4547 5.59678C13.4692 5.58142 13.4807 5.56318 13.4885 5.54309C13.4963 5.52301 13.5004 5.50148 13.5004 5.47974C13.5004 5.45799 13.4963 5.43646 13.4885 5.41638C13.4807 5.3963 13.4692 5.37805 13.4547 5.3627L10.8578 2.60186C10.8281 2.57031 10.7891 2.55371 10.7469 2.55371C10.7047 2.55371 10.6656 2.57031 10.6359 2.60186L4.0125 9.63926C3.98906 9.66416 3.975 9.69404 3.96875 9.72725L3.50781 12.5196C3.49261 12.6086 3.49804 12.7001 3.52364 12.7863C3.54923 12.8725 3.59421 12.9508 3.65469 13.0144C3.75781 13.1206 3.8875 13.1787 4.02656 13.1787ZM5.07969 10.2834L10.7469 4.26367L11.8922 5.48057L6.225 11.5003L4.83594 11.7609L5.07969 10.2834ZM13.75 14.5732H2.25C1.97344 14.5732 1.75 14.8106 1.75 15.1045V15.7021C1.75 15.7752 1.80625 15.835 1.875 15.835H14.125C14.1938 15.835 14.25 15.7752 14.25 15.7021V15.1045C14.25 14.8106 14.0266 14.5732 13.75 14.5732Z" fill="#979DBB"/>
</svg>
