<svg width="19" height="19" viewBox="0 0 19 19" fill="#F5F7FB" xmlns="http://www.w3.org/2000/svg">
<path d="M17.8478 10.5252H16.944V16.6175C16.944 17.5775 16.1333 18.3582 15.1364 18.3582H4.29066C3.29375 18.3582 2.48303 17.5775 2.48303 16.6175V10.5252H1.57922C1.40049 10.5251 1.22579 10.4741 1.07719 10.3784C0.928595 10.2828 0.812782 10.1469 0.74439 9.98789C0.675999 9.82888 0.6581 9.65391 0.692957 9.4851C0.727816 9.3163 0.813864 9.16124 0.940226 9.03952L9.07454 1.20648C9.1584 1.12558 9.258 1.06141 9.36765 1.01762C9.47729 0.973832 9.59483 0.951294 9.71353 0.951294C9.83223 0.951294 9.94977 0.973832 10.0594 1.01762C10.1691 1.06141 10.2687 1.12558 10.3525 1.20648L18.4868 9.03952C18.6132 9.16124 18.6993 9.3163 18.7341 9.4851C18.769 9.65391 18.7511 9.82888 18.6827 9.98789C18.6143 10.1469 18.4985 10.2828 18.3499 10.3784C18.2013 10.4741 18.0266 10.5251 17.8478 10.5252ZM11.5212 16.6175V12.2659H7.90591V16.6175H11.5212ZM9.71353 3.05246L4.29066 8.27449V12.2659L4.28975 16.6175H6.09828V12.2659C6.09828 11.3059 6.909 10.5252 7.90591 10.5252H11.5212C12.5181 10.5252 13.3288 11.3059 13.3288 12.2659V16.6175H15.1364V8.27449L9.71353 3.05246Z" />
</svg>
