<svg width="18" height="18" viewBox="0 0 18 18" fill="#A9ABBA" xmlns="http://www.w3.org/2000/svg">
<path fill-rule="evenodd" clip-rule="evenodd" d="M4.18504 1.5C3.47292 1.5 2.78997 1.78289 2.28643 2.28643C1.78289 2.78997 1.5 3.47292 1.5 4.18504V13.7401C1.5 14.4523 1.78289 15.1352 2.28643 15.6388C2.73941 16.0917 3.33758 16.3661 3.97156 16.4167L10.6038 9.12075C10.7994 8.90559 11.0378 8.73352 11.3037 8.61562C11.5695 8.49772 11.857 8.43652 12.1478 8.43593C12.4386 8.43534 12.7263 8.49537 12.9926 8.61219C13.259 8.72901 13.498 8.90006 13.6945 9.11442L16.4252 12.0924V4.18504C16.4252 3.47292 16.1423 2.78997 15.6388 2.28643C15.1352 1.78289 14.4523 1.5 13.7401 1.5H4.18504ZM17.4252 13.7401V4.18504C17.4252 3.2077 17.0369 2.2704 16.3459 1.57932C15.6548 0.888244 14.7175 0.5 13.7401 0.5H4.18504C3.2077 0.5 2.2704 0.888244 1.57932 1.57932C0.888244 2.2704 0.5 3.2077 0.5 4.18504V13.7401C0.5 14.7175 0.888244 15.6548 1.57932 16.3459C2.2704 17.0369 3.2077 17.4252 4.18504 17.4252L13.8459 17.4252C14.7951 17.4252 15.7055 17.0481 16.3767 16.3769C17.0479 15.7057 17.425 14.7953 17.425 13.8461L17.4236 13.8468C17.4236 13.847 17.4236 13.8465 17.4236 13.8468L17.425 13.8461L17.4252 13.7506C17.4251 13.7825 17.4246 13.815 17.4236 13.8468M17.4252 13.7401C17.4252 13.7404 17.4252 13.7399 17.4252 13.7401ZM16.1656 13.289L12.9574 9.79022C12.8548 9.6783 12.73 9.58895 12.5909 9.52796C12.4519 9.46696 12.3017 9.43562 12.1498 9.43593C11.998 9.43624 11.8479 9.46819 11.7091 9.52975C11.5703 9.5913 11.4459 9.68112 11.3437 9.79345L5.31526 16.4252L13.7401 16.4252C14.4523 16.4252 15.1352 16.1423 15.6388 15.6388C16.1405 15.137 16.4231 14.4572 16.4252 13.7478C16.4252 13.7453 16.4252 13.7427 16.4252 13.7401C16.4252 13.627 16.4063 13.5867 16.3895 13.5572C16.3574 13.5007 16.3058 13.4425 16.1656 13.289C16.1655 13.2889 16.1657 13.2891 16.1656 13.289ZM6.17553 4.68506C5.35227 4.68506 4.68489 5.35244 4.68489 6.1757C4.68489 6.99897 5.35227 7.66635 6.17553 7.66635C6.9988 7.66635 7.66618 6.99897 7.66618 6.1757C7.66618 5.35244 6.9988 4.68506 6.17553 4.68506ZM3.68488 6.1757C3.68488 4.80016 4.79999 3.68506 6.17553 3.68506C7.55108 3.68506 8.66618 4.80016 8.66618 6.1757C8.66618 7.55125 7.55108 8.66635 6.17553 8.66635C4.79999 8.66635 3.68488 7.55125 3.68488 6.1757Z"/>
</svg>
