<svg width="18" height="18" viewBox="0 0 18 18" fill="none" xmlns="http://www.w3.org/2000/svg">
<path d="M0.882812 4.52659C0.882812 3.68187 1.21838 2.87174 1.81569 2.27443C2.413 1.67712 3.22312 1.34155 4.06785 1.34155H13.623C14.4677 1.34155 15.2778 1.67712 15.8751 2.27443C16.4724 2.87174 16.808 3.68187 16.808 4.52659V14.0817C16.808 14.9264 16.4724 15.7365 15.8751 16.3339C15.2778 16.9312 14.4677 17.2667 13.623 17.2667H4.06785C3.22312 17.2667 2.413 16.9312 1.81569 16.3339C1.21838 15.7365 0.882813 14.9264 0.882812 14.0817V4.52659Z" stroke="#A9ABBA" stroke-linecap="round" stroke-linejoin="round"/>
<path d="M6.05852 8.50791C7.15792 8.50791 8.04917 7.61666 8.04917 6.51726C8.04917 5.41785 7.15792 4.52661 6.05852 4.52661C4.95911 4.52661 4.06787 5.41785 4.06787 6.51726C4.06787 7.61666 4.95911 8.50791 6.05852 8.50791Z" stroke="#A9ABBA" stroke-linecap="round" stroke-linejoin="round"/>
<path d="M10.8568 9.79862L4.06787 17.2667H13.7289C14.5455 17.2667 15.3287 16.9423 15.9062 16.3649C16.4836 15.7874 16.808 15.0042 16.808 14.1876V14.0817C16.808 13.7106 16.6687 13.5681 16.4179 13.2934L13.2089 9.79384C13.0594 9.6307 12.8775 9.50052 12.6748 9.41161C12.4721 9.32271 12.2531 9.27702 12.0318 9.27747C11.8105 9.27792 11.5917 9.32449 11.3894 9.41422C11.1871 9.50395 11.0057 9.63487 10.8568 9.79862V9.79862Z" stroke="#A9ABBA" stroke-linecap="round" stroke-linejoin="round"/>
</svg>
