<svg width="20" height="20" viewBox="0 0 20 20" fill="none" xmlns="http://www.w3.org/2000/svg">
<path fill-rule="evenodd" clip-rule="evenodd" d="M5.56707 1.78044C4.60943 1.97562 3.72309 2.42811 3.00334 3.08927C2.28359 3.75044 1.75766 4.59527 1.48207 5.53294C1.22676 6.39269 1.18876 7.30232 1.37164 8.18107C1.63597 9.385 2.30117 10.4635 3.25835 11.2402C4.21554 12.0168 5.408 12.4455 6.64057 12.4561C7.1607 12.4561 7.67845 12.3813 8.17601 12.2304L9.12601 13.3443L9.57607 13.5521H10.7339V15.3334L11.3276 15.9271H13.1089V17.7084L13.7026 18.3021H17.2651L17.8589 17.7084V14.9688L17.6855 14.5496L11.7789 8.643C11.9465 8.10308 12.0267 7.53982 12.0164 6.97457C12.0056 6.18373 11.8204 5.40503 11.4741 4.69395C11.1279 3.98288 10.629 3.35695 10.0131 2.86079C9.39713 2.36463 8.67934 2.01045 7.91085 1.82351C7.14235 1.63656 6.34208 1.62145 5.56707 1.77925V1.78044ZM4.00195 10.3304C3.25597 9.72637 2.73721 8.8869 2.53063 7.9495L2.52589 7.95544C2.37876 7.27002 2.40523 6.5587 2.6029 5.88611C2.80057 5.21352 3.16317 4.60098 3.65776 4.10415C4.15234 3.60733 4.76323 3.24196 5.43492 3.04125C6.10661 2.84054 6.8178 2.81085 7.50389 2.95488C8.42921 3.16025 9.25922 3.6693 9.86176 4.40096C10.4643 5.13263 10.8048 6.04485 10.8289 6.99238C10.8408 7.53388 10.7458 8.07063 10.5451 8.57175L10.6757 9.21657L16.6714 15.2146V17.1146H14.2964V15.3334L13.7026 14.7396H11.9214V12.9584L11.3276 12.3646H9.8492L8.80895 11.1581L8.14276 10.9919C7.66255 11.1795 7.15139 11.2754 6.63582 11.2745C5.67629 11.2671 4.74768 10.9343 4.00195 10.3304ZM4.99707 7.08619C4.90344 6.95681 4.83687 6.80988 4.80134 6.65418C4.76581 6.49847 4.76206 6.33721 4.7903 6.18002C4.81854 6.02283 4.87819 5.87295 4.96569 5.73936C5.0532 5.60576 5.16675 5.49118 5.29956 5.40248C5.43236 5.31379 5.5817 5.25279 5.73863 5.22314C5.89555 5.19349 6.05685 5.1958 6.21286 5.22993C6.36888 5.26406 6.5164 5.32931 6.64662 5.42177C6.77683 5.51424 6.88706 5.63202 6.9707 5.76807C7.1316 6.02978 7.1848 6.34366 7.11915 6.64377C7.0535 6.94389 6.87409 7.20688 6.61862 7.37751C6.36314 7.54813 6.05148 7.61311 5.74911 7.55878C5.44674 7.50446 5.17718 7.33507 4.99707 7.08619Z" fill="#979DBB" stroke="#979DBB" stroke-width="0.5"/>
</svg>
