<svg width="23" height="24" viewBox="0 0 23 24" fill="none" xmlns="http://www.w3.org/2000/svg">
<path d="M18.3433 19.3394H3.6766C3.19036 19.3394 2.72405 19.1375 2.38023 18.7781C2.03642 18.4186 1.84326 17.9311 1.84326 17.4228V5.8394C1.86382 5.34565 2.06602 4.8793 2.40763 4.53769C2.74925 4.19609 3.20387 4.00564 3.6766 4.0061H18.3433C18.8295 4.0061 19.2958 4.20804 19.6396 4.56748C19.9834 4.92693 20.1766 5.41444 20.1766 5.92277V17.4228C20.1766 17.9311 19.9834 18.4186 19.6396 18.7781C19.2958 19.1375 18.8295 19.3394 18.3433 19.3394ZM3.6766 7.71294V17.4228H18.3433V7.71294L11.0099 12.8228L3.6766 7.71294ZM4.40993 5.92277L11.0099 10.5228L17.6099 5.92277H4.40993Z" fill="#979DBB"/>
</svg>
