<svg width="23" height="23" viewBox="0 0 23 23" fill="none" xmlns="http://www.w3.org/2000/svg">
<path d="M16.3216 12.1298C16.2366 12.0446 16.1356 11.977 16.0244 11.9309C15.9132 11.8847 15.794 11.861 15.6736 11.861C15.5532 11.861 15.434 11.8847 15.3228 11.9309C15.2116 11.977 15.1105 12.0446 15.0255 12.1298L13.5643 13.5909C12.8869 13.3893 11.6228 12.9309 10.8216 12.1298C10.0205 11.3286 9.56215 10.0645 9.36048 9.3871L10.8216 7.92594C10.9068 7.84088 10.9744 7.73986 11.0206 7.62866C11.0667 7.51745 11.0904 7.39824 11.0904 7.27785C11.0904 7.15746 11.0667 7.03826 11.0206 6.92705C10.9744 6.81585 10.9068 6.71483 10.8216 6.62977L7.15498 2.9631C7.06993 2.8779 6.96891 2.81031 6.8577 2.76419C6.74649 2.71807 6.62729 2.69434 6.5069 2.69434C6.38651 2.69434 6.2673 2.71807 6.1561 2.76419C6.04489 2.81031 5.94387 2.8779 5.85881 2.9631L3.37281 5.4491C3.02448 5.79744 2.82831 6.27594 2.83565 6.76452C2.85673 8.06985 3.20231 12.6037 6.77548 16.1769C10.3486 19.75 14.8825 20.0947 16.1887 20.1167H16.2144C16.6984 20.1167 17.1558 19.926 17.5023 19.5795L19.9883 17.0935C20.0735 17.0085 20.1411 16.9074 20.1872 16.7962C20.2333 16.685 20.2571 16.5658 20.2571 16.4454C20.2571 16.325 20.2333 16.2058 20.1872 16.0946C20.1411 15.9834 20.0735 15.8824 19.9883 15.7974L16.3216 12.1298ZM16.2052 18.2824C15.0612 18.2632 11.1471 17.9561 8.07165 14.8798C4.98615 11.7943 4.68731 7.86635 4.66898 6.74527L6.5069 4.90735L8.8774 7.27785L7.69215 8.4631C7.5844 8.57077 7.50519 8.70358 7.46165 8.84954C7.41812 8.9955 7.41165 9.15001 7.44281 9.2991C7.46481 9.40452 8.0029 11.9043 9.52456 13.4259C11.0462 14.9476 13.546 15.4857 13.6514 15.5077C13.8004 15.5397 13.9551 15.5338 14.1012 15.4904C14.2473 15.447 14.3801 15.3675 14.4874 15.2593L15.6736 14.074L18.0441 16.4445L16.2052 18.2824Z" fill="#979DBB"/>
</svg>
