<svg width="16" height="14" viewBox="0 0 16 14" fill="none" xmlns="http://www.w3.org/2000/svg">
<path d="M14.5693 2.35937H12.1787L11.6092 0.763281C11.5698 0.654065 11.4977 0.559659 11.4027 0.49296C11.3077 0.426262 11.1944 0.390523 11.0783 0.390625H5.68535C5.44805 0.390625 5.23535 0.540039 5.15625 0.763281L4.58496 2.35937H2.19434C1.41738 2.35937 0.788086 2.98867 0.788086 3.76562V11.7812C0.788086 12.5582 1.41738 13.1875 2.19434 13.1875H14.5693C15.3463 13.1875 15.9756 12.5582 15.9756 11.7812V3.76562C15.9756 2.98867 15.3463 2.35937 14.5693 2.35937ZM14.71 11.7812C14.71 11.8586 14.6467 11.9219 14.5693 11.9219H2.19434C2.11699 11.9219 2.05371 11.8586 2.05371 11.7812V3.76562C2.05371 3.68828 2.11699 3.625 2.19434 3.625H5.47617L5.77676 2.78476L6.1793 1.65625H10.5826L10.9852 2.78476L11.2857 3.625H14.5693C14.6467 3.625 14.71 3.68828 14.71 3.76562V11.7812ZM8.38184 4.75C6.82793 4.75 5.56934 6.00859 5.56934 7.56249C5.56934 9.1164 6.82793 10.375 8.38184 10.375C9.93574 10.375 11.1943 9.1164 11.1943 7.56249C11.1943 6.00859 9.93574 4.75 8.38184 4.75ZM8.38184 9.24999C7.4502 9.24999 6.69434 8.49413 6.69434 7.56249C6.69434 6.63085 7.4502 5.87499 8.38184 5.87499C9.31348 5.87499 10.0693 6.63085 10.0693 7.56249C10.0693 8.49413 9.31348 9.24999 8.38184 9.24999Z" fill="white"/>
</svg>
