<svg width="16" height="16" viewBox="0 0 16 16" fill="none" xmlns="http://www.w3.org/2000/svg">
<circle cx="8.04248" cy="7.60938" r="7.5" fill="#4F8BE4"/>
<path d="M7.44409 8.64575V8.41138C7.44409 8.14282 7.49292 7.91943 7.59058 7.74121C7.68823 7.56299 7.85913 7.37866 8.10327 7.18823C8.3938 6.95874 8.58057 6.78052 8.66357 6.65356C8.74902 6.52661 8.79175 6.37524 8.79175 6.19946C8.79175 5.99438 8.72339 5.83691 8.58667 5.72705C8.44995 5.61719 8.25342 5.56226 7.99707 5.56226C7.76514 5.56226 7.55029 5.59521 7.35254 5.66113C7.15479 5.72705 6.96191 5.8064 6.77393 5.89917L6.46631 5.25464C6.96191 4.97876 7.49292 4.84082 8.05933 4.84082C8.53784 4.84082 8.91748 4.95801 9.19824 5.19238C9.479 5.42676 9.61938 5.75024 9.61938 6.16284C9.61938 6.34595 9.59253 6.50952 9.53882 6.65356C9.48511 6.79517 9.40332 6.93066 9.29346 7.06006C9.18604 7.18945 8.99927 7.35791 8.73315 7.56543C8.5061 7.74365 8.35352 7.89136 8.27539 8.00854C8.19971 8.12573 8.16187 8.2832 8.16187 8.48096V8.64575H7.44409ZM7.29395 9.81396C7.29395 9.44531 7.47339 9.26099 7.83228 9.26099C8.00806 9.26099 8.14233 9.30981 8.23511 9.40747C8.32788 9.50269 8.37427 9.63818 8.37427 9.81396C8.37427 9.9873 8.32666 10.1252 8.23145 10.2278C8.13867 10.3279 8.00562 10.3779 7.83228 10.3779C7.65894 10.3779 7.52588 10.3291 7.43311 10.2314C7.34033 10.1313 7.29395 9.99219 7.29395 9.81396Z" fill="white"/>
</svg>
