<svg width="19" height="19" viewBox="0 0 19 19" fill="#F5F7FB" xmlns="http://www.w3.org/2000/svg">
<path fill-rule="evenodd" clip-rule="evenodd" d="M17.6098 2.64439C17.1174 2.15203 16.4496 1.87543 15.7533 1.87543H13.8779C13.4637 1.87543 13.1279 2.21121 13.1279 2.62543C13.1279 3.03964 13.4637 3.37543 13.8779 3.37543H15.7533C16.0518 3.37543 16.338 3.494 16.5491 3.70505C16.7602 3.91611 16.8787 4.20236 16.8787 4.50084V15.7533C16.8787 16.0518 16.7602 16.338 16.5491 16.5491C16.338 16.7602 16.0518 16.8787 15.7533 16.8787H10.4112C9.99699 16.8787 9.6612 17.2145 9.6612 17.6287C9.6612 18.0429 9.99699 18.3787 10.4112 18.3787H15.7533C16.4496 18.3787 17.1174 18.1021 17.6098 17.6098C18.1021 17.1174 18.3787 16.4496 18.3787 15.7533V4.50084C18.3787 3.80454 18.1021 3.13675 17.6098 2.64439Z" />
<path fill-rule="evenodd" clip-rule="evenodd" d="M4.50083 10.3148C4.08661 10.3148 3.75083 10.6506 3.75083 11.0648V14.0656H0.75C0.335786 14.0656 0 14.4014 0 14.8156C0 15.2298 0.335786 15.5656 0.75 15.5656H4.50083C4.91504 15.5656 5.25083 15.2298 5.25083 14.8156V11.0648C5.25083 10.6506 4.91504 10.3148 4.50083 10.3148Z" />
<path fill-rule="evenodd" clip-rule="evenodd" d="M9.00169 2.62543C9.00169 2.21121 8.6659 1.87543 8.25169 1.87543H6.37627C5.67997 1.87543 5.01218 2.15203 4.51982 2.64439C4.02746 3.13675 3.75085 3.80454 3.75085 4.50084V8.25167C3.75085 8.66588 4.08664 9.00167 4.50085 9.00167C4.91507 9.00167 5.25086 8.66588 5.25086 8.25167V4.50084C5.25086 4.20236 5.36943 3.91611 5.58048 3.70505C5.79154 3.494 6.07779 3.37543 6.37627 3.37543H8.25169C8.6659 3.37543 9.00169 3.03964 9.00169 2.62543Z" />
<path fill-rule="evenodd" clip-rule="evenodd" d="M12.0025 1.5C12.6241 1.5 13.1279 2.00388 13.1279 2.62543C13.1279 3.24698 12.6241 3.75082 12.0025 3.75082H10.1271C9.50555 3.75082 9.00169 3.24698 9.00169 2.62543C9.00169 2.00388 9.50555 1.5 10.1271 1.5H12.0025ZM14.6279 2.62541C14.6279 1.17544 13.4525 0 12.0025 0H10.1271C8.67712 0 7.50169 1.17544 7.50169 2.62541C7.50169 4.07539 8.67712 5.25082 10.1271 5.25082H12.0025C13.4525 5.25082 14.6279 4.07539 14.6279 2.62541Z" />
<path fill-rule="evenodd" clip-rule="evenodd" d="M4.50087 11.8148C6.15817 11.8148 7.50169 13.1583 7.50169 14.8156C7.50169 16.4729 6.15817 17.8164 4.50087 17.8164C2.84356 17.8164 1.50004 16.4729 1.50004 14.8156C1.50004 13.1583 2.84356 11.8148 4.50087 11.8148ZM9.00169 14.8156C9.00169 12.3299 6.98656 10.3148 4.50083 10.3148C2.01509 10.3148 0 12.3299 0 14.8156C0 17.3013 2.01513 19.3164 4.50087 19.3164C6.9866 19.3164 9.00169 17.3014 9.00169 14.8156Z" />
<path fill-rule="evenodd" clip-rule="evenodd" d="M14.6279 8.25168C14.6279 7.83746 14.2921 7.50168 13.8779 7.50168H10.1271C9.71288 7.50168 9.3771 7.83746 9.3771 8.25168C9.3771 8.66589 9.71288 9.00168 10.1271 9.00168H13.8779C14.2921 9.00168 14.6279 8.66589 14.6279 8.25168Z" />
<path fill-rule="evenodd" clip-rule="evenodd" d="M14.6279 12.0025C14.6279 11.5883 14.2921 11.2525 13.8779 11.2525H11.0648C10.6506 11.2525 10.3148 11.5883 10.3148 12.0025C10.3148 12.4167 10.6506 12.7525 11.0648 12.7525H13.8779C14.2921 12.7525 14.6279 12.4167 14.6279 12.0025Z" />
</svg>
