<svg width="35" height="34" viewBox="0 0 35 34" fill="none" xmlns="http://www.w3.org/2000/svg" fill="#4F8BE4">
<path d="M30.3848 26.6892C31.1648 25.438 31.6036 23.9755 31.5061 22.3667C31.2948 18.873 28.5161 15.9155 25.0548 15.5417C24.0301 15.4225 22.9918 15.5215 22.008 15.8321C21.0243 16.1427 20.1174 16.658 19.347 17.344C18.5765 18.03 17.9599 18.8713 17.5377 19.8126C17.1156 20.7539 16.8973 21.7739 16.8973 22.8055C16.8973 26.8517 20.1636 30.118 24.1936 30.118C25.6236 30.118 26.9561 29.6955 28.0773 28.9805L31.9936 32.8967C32.6273 33.5305 33.6673 33.5305 34.3011 32.8967C34.9348 32.263 34.9348 31.223 34.3011 30.5892L30.3848 26.6892ZM24.2098 26.868C23.1324 26.868 22.0991 26.44 21.3372 25.6781C20.5754 24.9162 20.1473 23.8829 20.1473 22.8055C20.1473 21.728 20.5754 20.6947 21.3372 19.9329C22.0991 19.171 23.1324 18.743 24.2098 18.743C25.2873 18.743 26.3206 19.171 27.0825 19.9329C27.8443 20.6947 28.2723 21.728 28.2723 22.8055C28.2723 23.8829 27.8443 24.9162 27.0825 25.6781C26.3206 26.44 25.2873 26.868 24.2098 26.868ZM23.6248 13.0555C22.4223 13.088 21.2686 13.348 20.2123 13.7867L19.3186 12.438L14.3136 20.5792C14.1799 20.7973 13.9966 20.9807 13.7786 21.1145C13.5606 21.2483 13.3141 21.3288 13.0591 21.3494C12.8042 21.37 12.5479 21.3301 12.3113 21.233C12.0747 21.1359 11.8643 20.9842 11.6973 20.7905L8.25234 16.7767L3.27984 24.7392C2.77609 25.5355 1.70359 25.7467 0.93984 25.1942C0.25734 24.6905 0.0623401 23.748 0.51734 23.0167L6.65984 13.1855C7.24484 12.2592 8.56109 12.1617 9.27609 12.9905L12.7048 16.988L17.8723 8.58672C18.0144 8.35455 18.2128 8.16195 18.449 8.02676C18.6853 7.89157 18.9518 7.81815 19.224 7.81329C19.4961 7.80843 19.7651 7.87229 20.006 7.99896C20.247 8.12563 20.4521 8.31102 20.6023 8.53797L23.6248 13.0555ZM27.8336 13.868C26.7936 13.413 25.6723 13.1367 24.5023 13.0717L31.8798 1.38797C32.3836 0.591723 33.4561 0.396723 34.2036 0.949223C34.9023 1.45297 35.0811 2.41172 34.6261 3.12672L27.8336 13.868Z" />
</svg>
