<svg width="18" height="19" viewBox="0 0 18 19" fill="white" xmlns="http://www.w3.org/2000/svg">
<g opacity="0.8">
<path fill-rule="evenodd" clip-rule="evenodd" d="M5.12 2.99C5.12 1.72344 6.14478 0.75 7.36 0.75C7.85698 0.75 8.31653 0.926409 8.67703 1.18504C9.05299 0.906313 9.49658 0.75 10 0.75C11.2666 0.75 12.24 1.77478 12.24 2.99C12.24 3.50246 12.0334 3.94106 11.7728 4.33188L11.7508 4.36484L11.7228 4.39284L11.7195 4.39615L11.7192 4.39647L11.7165 4.39918L11.7158 4.3999L11.7152 4.40049L11.7074 4.40833L11.7069 4.40874L11.6612 4.4545L11.6609 4.45481L11.6007 4.51497L8.63788 7.43357L5.74885 4.54453L5.74104 4.53575C5.36905 4.11726 5.12 3.58604 5.12 2.99ZM11.1284 3.85589C11.3339 3.54048 11.44 3.26811 11.44 2.99C11.44 2.20522 10.8134 1.55 10 1.55C9.59455 1.55 9.25403 1.70165 8.96284 1.99284L8.68 2.27569L8.39716 1.99284C8.14143 1.73712 7.75963 1.55 7.36 1.55C6.57522 1.55 5.92 2.17656 5.92 2.99C5.92 3.35058 6.06816 3.69626 6.33153 3.99584L8.64212 6.30643L11.0379 3.94645L11.1284 3.85589Z" fill-opacity="0.8"/>
<path fill-rule="evenodd" clip-rule="evenodd" d="M0.8 5.47V15.39H17.2V5.47H12.32V4.67H17.2C17.4109 4.67 17.6177 4.74205 17.7728 4.89716C17.928 5.05227 18 5.2591 18 5.47V15.39C18 15.6009 17.928 15.8077 17.7728 15.9628C17.6177 16.118 17.4109 16.19 17.2 16.19H0.8C0.589101 16.19 0.382269 16.118 0.227157 15.9628C0.0720456 15.8077 0 15.6009 0 15.39V5.47C0 5.2591 0.0720456 5.05227 0.227157 4.89716C0.382269 4.74205 0.589101 4.67 0.8 4.67H4.8V5.47H0.8Z" fill-opacity="0.8"/>
<path fill-rule="evenodd" clip-rule="evenodd" d="M17.6 13.87H0.4V13.07H17.6V13.87Z" fill-opacity="0.8"/>
<path fill-rule="evenodd" clip-rule="evenodd" d="M4.32 18.51V15.55H5.12V18.51H4.32Z" fill-opacity="0.8"/>
<path fill-rule="evenodd" clip-rule="evenodd" d="M12.72 18.51V15.55H13.52V18.51H12.72Z" fill-opacity="0.8"/>
<path fill-rule="evenodd" clip-rule="evenodd" d="M14.68 18.91H3.2V18.11H14.68V18.91Z" fill-opacity="0.8"/>
<path fill-rule="evenodd" clip-rule="evenodd" d="M10.8994 5.3051L11.9598 9.78238L12.8504 6.72343L13.4646 8.95H16.4V9.75H12.8554L12.8296 9.65657L11.8802 12.9176L10.7806 8.2749L10.2911 9.79H7.3917L7.23246 9.31229L5.80906 12.6196L4.76158 8.18791L4.05863 9.75H1.4V8.95H3.54137L4.99843 5.71209L6.03094 10.0804L7.32754 7.06771L7.9683 8.99H9.70887L10.8994 5.3051Z" fill-opacity="0.8"/>
</g>
</svg>
