<svg width="18" height="21" viewBox="0 0 18 21" fill="white" xmlns="http://www.w3.org/2000/svg">
<path opacity="0.8" d="M14.625 13.8077C13.545 13.8077 12.5775 14.3246 11.97 15.1112L6.5025 11.9423C6.84 11.1107 6.84 10.1893 6.5025 9.35772L11.97 6.18882C12.5775 6.97543 13.545 7.49234 14.625 7.49234C16.4925 7.49234 18 5.98655 18 4.12117C18 2.25579 16.4925 0.75 14.625 0.75C12.7575 0.75 11.25 2.25579 11.25 4.12117C11.25 4.57066 11.34 5.02015 11.4975 5.40221L6.03 8.59359C5.4 7.80698 4.455 7.29007 3.375 7.29007C1.5075 7.29007 0 8.79586 0 10.6612C0 12.5266 1.5075 14.0324 3.375 14.0324C4.455 14.0324 5.4225 13.5155 6.03 12.7289L11.4975 15.8978C11.34 16.2799 11.25 16.7293 11.25 17.1788C11.25 19.0442 12.7575 20.55 14.625 20.55C16.4925 20.55 18 19.0442 18 17.1788C18 15.3134 16.4925 13.8077 14.625 13.8077ZM14.625 1.67145C15.9975 1.67145 17.1 2.7727 17.1 4.14364C17.1 5.51459 15.9975 6.61583 14.625 6.61583C13.2525 6.61583 12.15 5.51459 12.15 4.14364C12.15 2.7727 13.2525 1.67145 14.625 1.67145ZM3.375 13.1334C2.0025 13.1334 0.9 12.0322 0.9 10.6612C0.9 9.29029 2.0025 8.18905 3.375 8.18905C4.7475 8.18905 5.85 9.29029 5.85 10.6612C5.85 12.0322 4.7475 13.1334 3.375 13.1334ZM14.625 19.651C13.2525 19.651 12.15 18.5498 12.15 17.1788C12.15 15.8079 13.2525 14.7066 14.625 14.7066C15.9975 14.7066 17.1 15.8079 17.1 17.1788C17.1 18.5498 15.9975 19.651 14.625 19.651Z"/>
</svg>
