<svg width="20" height="19" viewBox="0 0 20 19" fill="white" xmlns="http://www.w3.org/2000/svg">
<g opacity="0.8">
<path d="M18.1391 10.5251H17.2353V16.6174C17.2353 17.5774 16.4246 18.3581 15.4277 18.3581H4.58192C3.58501 18.3581 2.77429 17.5774 2.77429 16.6174V10.5251H1.87048C1.69175 10.525 1.51705 10.474 1.36845 10.3783C1.21985 10.2827 1.10404 10.1468 1.03565 9.98776C0.967258 9.82875 0.94936 9.65379 0.984217 9.48498C1.01908 9.31618 1.10512 9.16111 1.23149 9.0394L9.3658 1.20636C9.44966 1.12546 9.54926 1.06128 9.65891 1.0175C9.76855 0.97371 9.88609 0.951172 10.0048 0.951172C10.1235 0.951172 10.241 0.97371 10.3507 1.0175C10.4603 1.06128 10.5599 1.12546 10.6438 1.20636L18.7781 9.0394C18.9045 9.16111 18.9905 9.31618 19.0254 9.48498C19.0602 9.65379 19.0423 9.82875 18.9739 9.98776C18.9055 10.1468 18.7897 10.2827 18.6411 10.3783C18.4925 10.474 18.3178 10.525 18.1391 10.5251ZM11.8124 16.6174V12.2657H8.19717V16.6174H11.8124ZM10.0048 3.05234L4.58192 8.27437V12.2657L4.58101 16.6174H6.38954V12.2657C6.38954 11.3058 7.20026 10.5251 8.19717 10.5251H11.8124C12.8093 10.5251 13.62 11.3058 13.62 12.2657V16.6174H15.4277V8.27437L10.0048 3.05234Z"/>
</g>
</svg>
