<svg width="18" height="25" viewBox="0 0 18 25" fill="white" xmlns="http://www.w3.org/2000/svg">
<g opacity="0.8">
<path d="M17.73 7.03435L11.43 1.00826C11.25 0.836087 11.07 0.75 10.8 0.75H1.8C0.81 0.75 0 1.52478 0 2.47174V23.1326C0 24.0796 0.81 24.8543 1.8 24.8543H16.2C17.19 24.8543 18 24.0796 18 23.1326V7.63696C18 7.3787 17.91 7.20652 17.73 7.03435ZM10.8 2.81609L15.84 7.63696H10.8V2.81609ZM16.2 23.1326H1.8V2.47174H9V7.63696C9 8.58391 9.81 9.3587 10.8 9.3587H16.2V23.1326Z"/>
<path d="M3.6 18.8283C3.6 18.3528 3.98542 17.9674 4.46087 17.9674H13.5391C14.0146 17.9674 14.4 18.3528 14.4 18.8283C14.4 19.3037 14.0146 19.6891 13.5391 19.6891H4.46087C3.98542 19.6891 3.6 19.3037 3.6 18.8283Z"/>
<path d="M3.6 13.663C3.6 13.1876 3.98542 12.8022 4.46087 12.8022H13.5391C14.0146 12.8022 14.4 13.1876 14.4 13.663C14.4 14.1385 14.0146 14.5239 13.5391 14.5239H4.46087C3.98542 14.5239 3.6 14.1385 3.6 13.663Z"/>
</g>
</svg>
