<svg width="18" height="19" viewBox="0 0 18 19" fill="white" xmlns="http://www.w3.org/2000/svg">
<path opacity="0.8" d="M17.9206 15.1736L12.4688 9.72671L16.7217 5.47471C16.755 5.4421 16.7791 5.40119 16.7915 5.35619L17.9896 1.11068C18.0029 1.06397 18.0034 1.01455 17.9912 0.96755C17.979 0.920548 17.9545 0.87766 17.9201 0.843319C17.8858 0.808978 17.8429 0.784429 17.7959 0.772209C17.7489 0.759988 17.6995 0.760539 17.6527 0.773804L13.3991 1.9744C13.3546 1.98729 13.3141 2.01131 13.2814 2.04421L9.03104 6.29215L3.56221 0.829816C3.51106 0.778709 3.44172 0.75 3.36941 0.75C3.29711 0.75 3.22777 0.778709 3.17662 0.829816L0.0805653 3.92425C0.0296558 3.9755 0.00108364 4.0448 0.00108364 4.11704C0.00108364 4.18928 0.0296558 4.25858 0.0805653 4.30983L5.54858 9.77379L1.91352 13.4048C1.77714 13.2465 1.56365 13.0476 1.36639 13.2424C1.16914 13.4373 1.36639 13.6532 1.52875 13.7879L0.359811 14.9544C0.129356 15.1862 0 15.4998 0 15.8267C0 16.1535 0.129356 16.4671 0.359811 16.6989L2.05233 18.3858C2.28433 18.6168 2.59839 18.7465 2.92579 18.7465C3.25318 18.7465 3.56724 18.6168 3.79924 18.3858L4.96655 17.2201C5.09725 17.3767 5.30911 17.5505 5.49582 17.3629C5.68253 17.1754 5.50962 16.9644 5.35133 16.8345L8.98233 13.2059L14.4341 18.6528C14.4853 18.7039 14.5546 18.7326 14.6269 18.7326C14.6992 18.7326 14.7686 18.7039 14.8197 18.6528L17.919 15.5568C17.9688 15.5055 17.9968 15.437 17.9971 15.3655C17.9974 15.2941 17.97 15.2253 17.9206 15.1736ZM17.3321 1.43133L16.3921 4.75955L13.9966 2.37216L17.3321 1.43133ZM0.656915 4.11663L3.36982 1.40698L4.41943 2.45334L3.42745 3.44693C3.40208 3.47236 3.38197 3.50253 3.36826 3.53573C3.35455 3.56893 3.34751 3.6045 3.34755 3.64042C3.34759 3.67634 3.3547 3.71189 3.36848 3.74506C3.38226 3.77823 3.40244 3.80836 3.42786 3.83374C3.45328 3.85911 3.48346 3.87922 3.51666 3.89293C3.54985 3.90664 3.58543 3.91368 3.62135 3.91364C3.65726 3.9136 3.69282 3.90649 3.72599 3.89271C3.75916 3.87893 3.78929 3.85875 3.81466 3.83333L4.80501 2.84136L5.85543 3.89015L4.13937 5.60946C4.11291 5.63452 4.09174 5.66463 4.07711 5.698C4.06248 5.73138 4.05469 5.76735 4.05419 5.80379C4.05369 5.84023 4.06051 5.8764 4.07422 5.91016C4.08794 5.94392 4.10828 5.9746 4.13405 6.00036C4.15982 6.02613 4.19049 6.04648 4.22425 6.06019C4.25802 6.07391 4.29419 6.08072 4.33063 6.08023C4.36706 6.07973 4.40304 6.07194 4.43641 6.05731C4.46979 6.04268 4.4999 6.02151 4.52495 5.99505L6.24102 4.27574L7.29062 5.32453L6.29784 6.31651C6.24671 6.36775 6.21802 6.4372 6.2181 6.50959C6.21818 6.58197 6.24701 6.65137 6.29825 6.7025C6.34948 6.75363 6.41894 6.78231 6.49133 6.78224C6.56371 6.78216 6.63311 6.75333 6.68424 6.70209L7.67702 5.71012L8.64464 6.67449L5.93255 9.38821L0.656915 4.11663ZM13.4746 2.62218L14.6168 3.75865L3.44044 14.9285L2.29911 13.792L13.4746 2.62218ZM3.41528 18.0026C3.28564 18.1309 3.11061 18.2029 2.92822 18.2029C2.74583 18.2029 2.57081 18.1309 2.44116 18.0026L0.746209 16.3158C0.617523 16.1863 0.545291 16.0112 0.545291 15.8287C0.545291 15.6462 0.617523 15.4711 0.746209 15.3417L1.91514 14.1735L4.58259 16.8353L3.41528 18.0026ZM4.96736 16.4513L3.82684 15.3149L15.0023 4.14667L16.1388 5.28313L4.96736 16.4513ZM14.6273 18.0749L9.36873 12.8211L12.0808 10.1107L13.0322 11.0612L11.3121 12.7806C11.261 12.8318 11.2323 12.9012 11.2323 12.9736C11.2324 13.046 11.2613 13.1154 11.3125 13.1665C11.3637 13.2177 11.4332 13.2464 11.5056 13.2463C11.578 13.2462 11.6474 13.2174 11.6985 13.1661L13.4186 11.4468L14.4682 12.4956L13.4746 13.4884C13.4235 13.5397 13.3948 13.6091 13.3949 13.6815C13.395 13.7539 13.4238 13.8233 13.475 13.8744C13.5263 13.9255 13.5957 13.9542 13.6681 13.9541C13.7405 13.9541 13.8099 13.9252 13.861 13.874L14.8546 12.8828L15.9042 13.9316L14.1849 15.6509C14.1382 15.7028 14.1131 15.7706 14.1149 15.8404C14.1167 15.9102 14.1452 15.9767 14.1945 16.0261C14.2438 16.0755 14.3102 16.1042 14.38 16.1061C14.4498 16.108 14.5177 16.0831 14.5697 16.0365L16.2906 14.3172L17.3402 15.366L14.6273 18.0749Z"/>
</svg>
