<svg width="18" height="24" viewBox="0 0 18 24" fill="white" xmlns="http://www.w3.org/2000/svg">
<g opacity="0.8">
<path d="M14.5384 2.27305H12.4324C12.3534 1.38274 11.5878 0.75 10.8 0.75H7.06152C6.14766 0.75 5.50107 1.49215 5.42771 2.27305H3.46153C1.52305 2.27305 0 3.7961 0 5.73458V19.5807C0 21.5192 1.52305 23.0422 3.46153 23.0422H14.5385C16.477 23.0422 18 21.5192 18 19.5807V5.73458C17.9999 3.79618 16.4769 2.27305 14.5384 2.27305ZM6.92298 2.55003C6.92298 2.41158 7.06144 2.27313 7.19989 2.27313H10.9383C11.0768 2.27313 11.2152 2.41158 11.2152 2.55003V4.90387C11.2152 5.04232 11.0768 5.18077 10.9383 5.18077H7.19989C7.06144 5.18077 6.92298 5.04232 6.92298 4.90387V2.55003ZM16.6152 19.5808C16.6152 20.6885 15.646 21.6577 14.5383 21.6577H3.46145C2.35376 21.6577 1.38452 20.6885 1.38452 19.5808V5.73458C1.38452 4.62689 2.35376 3.65765 3.46145 3.65765H5.39994V4.76534C5.39994 5.73458 6.23073 6.42692 7.06152 6.42692H10.8C11.7692 6.42692 12.4615 5.73458 12.4615 4.76534V3.65773H14.5385C15.6462 3.65773 16.6154 4.62697 16.6154 5.73466L16.6152 19.5808Z"/>
<path d="M13.1538 17.5039H4.84615C4.43079 17.5039 4.15381 17.7808 4.15381 18.1962C4.15381 18.6117 4.43071 18.8886 4.84615 18.8886H13.1538C13.5692 18.8886 13.8461 18.6117 13.8461 18.1962C13.8461 17.7808 13.5692 17.5039 13.1538 17.5039Z"/>
<path d="M13.1538 13.3501H4.84615C4.43079 13.3501 4.15381 13.627 4.15381 14.0424C4.15381 14.4578 4.43071 14.7348 4.84615 14.7348H13.1538C13.5692 14.7348 13.8461 14.4579 13.8461 14.0424C13.8461 13.6271 13.5692 13.3501 13.1538 13.3501Z"/>
<path d="M13.1538 9.19629H4.84615C4.43079 9.19629 4.15381 9.47319 4.15381 9.88863C4.15381 10.304 4.43071 10.581 4.84615 10.581H13.1538C13.5692 10.581 13.8461 10.3041 13.8461 9.88863C13.8461 9.47327 13.5692 9.19629 13.1538 9.19629Z"/>
</g>
</svg>
