<svg width="18" height="17" viewBox="0 0 18 17" fill="white" xmlns="http://www.w3.org/2000/svg">
<g opacity="0.8">
<path d="M13.5 15.5357C12.7929 15.5357 12.15 15.0857 11.8929 14.3786C11.8929 14.3143 11.8929 14.25 11.8286 14.25H6.10714C6.10714 14.3143 6.10714 14.3786 6.04286 14.3786C5.85 15.0857 5.20714 15.5357 4.5 15.5357C4.11429 15.5357 3.85714 15.7929 3.85714 16.1786C3.85714 16.5643 4.11429 16.8214 4.5 16.8214H13.5C13.8857 16.8214 14.1429 16.5643 14.1429 16.1786C14.1429 15.7929 13.8857 15.5357 13.5 15.5357Z"/>
<path d="M16.0714 0.75H1.92857C0.835714 0.75 0 1.58571 0 2.67857V12.3214C0 13.4143 0.835714 14.25 1.92857 14.25H16.0714C17.1643 14.25 18 13.4143 18 12.3214V2.67857C18 1.58571 17.1643 0.75 16.0714 0.75ZM14.7857 8.46429H11.5714C11.3786 8.46429 11.1857 8.33571 11.0571 8.20714L10.4786 7.30714L9.64286 9.36429C9.51429 9.55714 9.25714 9.75 9 9.75C8.74286 9.75 8.55 9.62143 8.42143 9.36429L7.52143 7.56429L6.87857 8.20714C6.75 8.4 6.62143 8.46429 6.42857 8.46429H3.21429C2.82857 8.46429 2.57143 8.20714 2.57143 7.82143C2.57143 7.43571 2.82857 7.17857 3.21429 7.17857H6.17143L7.26429 6.08571C7.39286 5.95714 7.65 5.89286 7.84286 5.89286C8.03572 5.95714 8.22857 6.08571 8.29286 6.21429L8.93571 7.5L9.70714 5.63571C9.77143 5.44286 10.0286 5.25 10.2214 5.25C10.4786 5.25 10.6714 5.31429 10.8 5.50714L11.8929 7.17857H14.7857C15.1714 7.17857 15.4286 7.43571 15.4286 7.82143C15.4286 8.20714 15.1714 8.46429 14.7857 8.46429Z"/>
</g>
</svg>
