<svg width="18" height="22" viewBox="0 0 18 22" fill="white" xmlns="http://www.w3.org/2000/svg">
<g opacity="0.8">
<path d="M7.50438 5.24828C7.50311 6.07393 7.72947 6.88396 8.15858 7.58935C8.5877 8.29474 9.20295 8.86819 9.93675 9.24669C10.6705 9.62518 11.4945 9.79408 12.318 9.73481C13.1415 9.67554 13.9328 9.3904 14.6048 8.91072L16.9399 11.2458L18 10.1857L15.6647 7.85059C16.0747 7.27382 16.3427 6.60843 16.447 5.90853C16.5513 5.20863 16.4889 4.494 16.2649 3.82276C16.041 3.15152 15.6617 2.54263 15.158 2.04562C14.6543 1.54861 14.0404 1.17752 13.3662 0.962527C12.692 0.747534 11.9766 0.694714 11.2782 0.808364C10.5797 0.922014 9.91799 1.19892 9.34676 1.61657C8.77553 2.03421 8.31094 2.5808 7.9908 3.21186C7.67066 3.84293 7.504 4.54065 7.50438 5.24828ZM9.00375 5.24828C9.00375 4.65518 9.17963 4.0754 9.50913 3.58226C9.83864 3.08912 10.307 2.70476 10.8549 2.47779C11.4029 2.25082 12.0058 2.19144 12.5875 2.30715C13.1692 2.42285 13.7036 2.70846 14.1229 3.12784C14.5423 3.54722 14.8279 4.08155 14.9436 4.66325C15.0593 5.24495 15 5.8479 14.773 6.39585C14.546 6.9438 14.1617 7.41214 13.6685 7.74164C13.1754 8.07115 12.5956 8.24703 12.0025 8.24703C11.2075 8.24613 10.4452 7.92991 9.88305 7.36773C9.32087 6.80554 9.00464 6.04332 9.00375 5.24828Z"/>
<path d="M11.2528 17.2433H3.75594V18.7426H11.2528V17.2433Z"/>
<path d="M9.75344 20.242H5.25531V21.7414H9.75344V20.242Z"/>
<path d="M3.61687 12.8506C2.91477 12.315 2.3551 11.615 1.98716 10.8122C1.61922 10.0094 1.45429 9.12853 1.50688 8.24702C1.50902 6.9187 1.95178 5.62861 2.76578 4.57892C3.57979 3.52922 4.71903 2.77923 6.005 2.44647L5.71547 0.975057C4.08877 1.37595 2.64303 2.30973 1.60859 3.62761C0.574148 4.94549 0.0105199 6.57165 0.00750165 8.24702C-0.0433933 9.33619 0.165248 10.4219 0.616232 11.4146C1.06722 12.4073 1.74763 13.2786 2.60142 13.9568C3.35988 14.6575 3.75594 15.0553 3.75594 15.7439H5.25531C5.25531 14.3645 4.42256 13.5951 3.61687 12.8506Z"/>
<path d="M12.7891 11.2458C12.4038 11.8479 11.9309 12.3893 11.386 12.8521C10.5833 13.5959 9.75344 14.3653 9.75344 15.7439H11.2528C11.2528 15.0546 11.6474 14.6569 12.4037 13.9554C13.1114 13.3529 13.7119 12.6347 14.1794 11.8314L12.7891 11.2458Z"/>
</g>
</svg>
