<svg width="18" height="17" viewBox="0 0 18 17" fill="white" xmlns="http://www.w3.org/2000/svg">
<path opacity="0.8" d="M12.0298 13.1184V13.5657C12.0298 13.7059 11.915 13.822 11.7735 13.822H11.0626C10.9248 13.8172 10.8135 13.7059 10.8135 13.5657V13.1184C10.8135 12.9696 10.9344 12.8487 11.0832 12.8487H11.7372C11.8811 12.856 11.9936 12.9733 11.9936 13.1184H12.0298ZM12.8399 9.12252C12.5219 8.8662 12.112 8.71145 11.6671 8.71024H11.4471C11.0239 8.71024 10.631 8.84686 10.3106 9.07657L10.3166 9.07174C10.0398 9.28452 9.86325 9.6158 9.86204 9.98818C9.86204 10.0825 9.9382 10.1587 10.0325 10.1587H10.7785C10.7797 10.1587 10.7809 10.1587 10.7833 10.1587C10.9018 10.1587 10.9997 10.0825 11.0336 9.97488V9.97367C11.0578 9.88541 11.1049 9.81045 11.169 9.75363C11.2681 9.66174 11.4035 9.60492 11.5498 9.60492C11.551 9.60492 11.551 9.60492 11.5523 9.60492H11.6236C11.9222 9.60492 12.164 9.84672 12.164 10.1454C12.1652 10.1611 12.1664 10.178 12.1664 10.1949C12.1664 10.2118 12.1652 10.2288 12.164 10.2457V10.2445V10.2735C12.1628 10.4428 12.1132 10.5987 12.0274 10.7317L12.0286 10.7293C11.9307 10.8684 11.8122 10.9868 11.678 11.0823L11.6732 11.0848C11.4338 11.2359 11.2307 11.4185 11.0662 11.6337L11.0614 11.6397C10.9562 11.7836 10.8897 11.9625 10.8837 12.1572V12.1584C10.8825 12.1656 10.8825 12.1729 10.8825 12.1801C10.8825 12.2744 10.9586 12.3506 11.0529 12.3506C11.059 12.3506 11.0638 12.3506 11.0686 12.3494H11.8787C11.9754 12.3434 12.054 12.2732 12.0709 12.1801C12.0854 12.0665 12.1132 11.9613 12.1519 11.8646L12.1495 11.8731C12.2196 11.7389 12.3212 11.6312 12.4457 11.5551L12.4481 11.5539C12.7093 11.4172 12.9281 11.2299 13.0998 11.0038L13.1022 10.9989C13.2667 10.7837 13.3682 10.5129 13.3718 10.2179C13.3428 9.77902 13.147 9.38729 12.8471 9.10922L12.8459 9.10801L12.8399 9.12252ZM0.612977 10.2747C0.424369 10.4041 0.299839 10.6205 0.299839 10.8635C0.297421 10.8877 0.293794 10.9167 0.293794 10.9457C0.293794 10.9747 0.295003 11.0026 0.299839 11.0316V11.0292C0.369962 11.3133 0.602096 11.5297 0.892262 11.5696H0.897098C1.05064 11.5926 1.22837 11.6046 1.40731 11.6046H1.54393C1.54635 11.6046 1.55118 11.6046 1.5536 11.6046C2.15086 11.6046 2.71668 11.4704 3.22206 11.2323L3.19788 11.2419C3.47112 11.3882 3.7903 11.5236 4.1252 11.6288L4.1651 11.6397H4.20742V11.3628C4.20862 11.0461 4.23764 10.7354 4.28963 10.4343L4.28479 10.467V10.502C3.95352 10.3775 3.67544 10.2445 3.40704 10.0958L3.43847 10.1115L3.13984 9.94828L2.87023 10.1115C2.60304 10.2747 2.28869 10.3932 1.95379 10.444L1.93928 10.4452C2.09162 10.2409 2.22098 10.0063 2.3165 9.75484L2.32375 9.73549L2.43015 9.4151L2.2101 9.1733C1.50645 8.4503 1.0712 7.46252 1.06515 6.3744C1.06515 3.89347 3.42517 1.85989 6.29662 1.85989C6.34739 1.85868 6.40905 1.85747 6.46951 1.85747C8.49584 1.85747 10.2538 2.99879 11.1388 4.67571L11.1533 4.70473C11.2959 4.70473 11.4519 4.70473 11.6151 4.70473H11.7143C11.921 4.70473 12.1265 4.70473 12.3466 4.70473C11.3915 2.36768 9.13541 0.75 6.50094 0.75C6.4417 0.75 6.38246 0.751209 6.32442 0.752418H6.33289C2.84242 0.752418 0 3.27566 0 6.37561C0 6.37802 0 6.38286 0 6.38649C0 7.63058 0.446131 8.76948 1.18726 9.65328L1.18001 9.64482C1.03976 9.90476 0.841483 10.1188 0.604514 10.2735L0.59726 10.2783L0.612977 10.2747ZM18 11.2697C17.9891 12.5404 17.5285 13.7011 16.7704 14.6055L16.7777 14.597C16.9167 14.8569 17.1114 15.0685 17.3483 15.2257L17.3544 15.2305C17.5418 15.3587 17.6663 15.5715 17.6675 15.8133C17.6699 15.8375 17.6736 15.8653 17.6736 15.8943C17.6736 15.9233 17.6724 15.9511 17.6675 15.9801V15.9777C17.5974 16.2618 17.3653 16.4782 17.0751 16.5181H17.0703C16.9167 16.5411 16.739 16.5532 16.5588 16.5532H16.4379C16.4331 16.5532 16.4295 16.5532 16.4246 16.5532C15.8092 16.5532 15.2277 16.4105 14.709 16.1591L14.732 16.1687C13.8156 16.639 12.7323 16.9147 11.5825 16.9147C11.5752 16.9147 11.5668 16.9147 11.5595 16.9147C8.00497 16.9147 5.16376 14.3552 5.16376 11.2286C5.16376 8.1021 8.05696 5.54259 11.5607 5.54259C15.0645 5.54259 17.9577 8.09484 17.9577 11.2286L18 11.2697ZM16.8986 11.2697C16.8986 8.74651 14.524 6.69237 11.5958 6.69237C8.66752 6.69237 6.29299 8.74651 6.29299 11.2697C6.29299 13.793 8.66752 15.8399 11.5958 15.8399C11.6042 15.8399 11.6127 15.8399 11.6224 15.8399C12.6887 15.8399 13.6898 15.5582 14.5519 15.0637L14.5228 15.0794L14.7924 14.9089L15.0621 15.0794C15.3426 15.2426 15.6702 15.3611 16.022 15.4119L16.0365 15.4131C15.883 15.2088 15.7536 14.9742 15.6593 14.7227L15.6521 14.7034L15.5384 14.3902L15.7657 14.1484C16.4585 13.4037 16.8877 12.405 16.9034 11.3084V11.306L16.8986 11.2697Z"/>
</svg>
