<svg width="34" height="35" viewBox="0 0 34 35" fill="none" xmlns="http://www.w3.org/2000/svg">
<rect width="34" height="34.7415" rx="17" fill="#E84141"/>
<path d="M18.043 20.7734H15.9688L15.4062 8.86719H18.6055L18.043 20.7734ZM15.2656 24.5469C15.2656 23.9062 15.4297 23.457 15.7578 23.1992C16.0938 22.9336 16.5039 22.8008 16.9883 22.8008C17.4648 22.8008 17.8711 22.9336 18.207 23.1992C18.543 23.457 18.7109 23.9062 18.7109 24.5469C18.7109 25.1719 18.543 25.625 18.207 25.9062C17.8711 26.1797 17.4648 26.3164 16.9883 26.3164C16.5039 26.3164 16.0938 26.1797 15.7578 25.9062C15.4297 25.625 15.2656 25.1719 15.2656 24.5469Z" fill="white"/>
</svg>
