<svg width="164" height="38" viewBox="0 0 164 38" fill="#354AB4" xmlns="http://www.w3.org/2000/svg">
<path fill-rule="evenodd" clip-rule="evenodd" d="M160.82 9.38196H159.23V6.64569L156.051 7.42742V9.38196H154.461C154.461 7.29699 154.461 5.21218 154.461 3.12738H156.051V5.86365L159.23 5.08176V3.12738H160.82C160.82 5.21218 160.82 7.29699 160.82 9.38196ZM157.641 12.509C159.397 12.509 160.986 11.8088 162.137 10.677C163.288 9.54515 164 7.98155 164 6.25459C164 4.52763 163.288 2.96403 162.137 1.83204C160.986 0.700209 159.397 0 157.641 0C155.885 0 154.295 0.700209 153.144 1.83204C151.993 2.96403 151.281 4.52763 151.281 6.25459C151.281 7.98155 151.993 9.54515 153.144 10.677C154.295 11.8088 155.885 12.509 157.641 12.509ZM152.871 6.25459C152.871 3.66375 155.006 1.56361 157.641 1.56361C160.275 1.56361 162.41 3.66375 162.41 6.25459C162.41 8.84527 160.275 10.9456 157.641 10.9456C155.006 10.9456 152.871 8.84527 152.871 6.25459Z"/>
<path d="M0 6.2549H9.16361V18.4647H22.9977V6.2549H32.2205V37.5353H22.9977V25.8487H9.16361V37.5353H0V6.2549H0ZM41.0293 6.2549H50.1929V24.8603L65.6823 6.2549H74.1366V37.5353H64.973V18.9299L49.5426 37.5353H41.0293V6.2549ZM98.1392 38.0003C94.7496 38.0003 91.7051 37.3124 89.0051 35.9363C86.3054 34.5604 84.1967 32.6512 82.6793 30.2094C81.1619 27.7674 80.4032 24.9961 80.4032 21.895C80.4032 18.7941 81.1619 16.0226 82.6793 13.5806C84.1968 11.1386 86.3054 9.22958 89.0051 7.8537C91.7051 6.47765 94.7496 5.78955 98.1392 5.78955C101.489 5.78955 104.416 6.47765 106.919 7.8537C109.421 9.22958 111.244 11.1969 112.387 13.7551L105.234 17.5343C103.578 14.6658 101.194 13.2317 98.0801 13.2317C95.6758 13.2317 93.6856 14.0069 92.109 15.5575C90.5324 17.1078 89.744 19.2204 89.744 21.895C89.744 24.5695 90.5324 26.6819 92.109 28.2326C93.6854 29.7829 95.6758 30.5582 98.0801 30.5582C101.233 30.5582 103.618 29.1241 105.234 26.2557L112.387 30.0932C111.244 32.5738 109.421 34.5119 106.919 35.9073C104.416 37.3027 101.489 38.0003 98.1392 38.0003ZM132.488 38.0003C129.138 38.0003 126.133 37.3124 123.472 35.9363C120.812 34.5604 118.733 32.6512 117.235 30.2094C115.738 27.7674 114.989 24.9961 114.989 21.895C114.989 18.7941 115.738 16.0226 117.235 13.5806C118.733 11.1386 120.812 9.22958 123.472 7.8537C126.133 6.47765 129.138 5.78955 132.488 5.78955C135.838 5.78955 138.834 6.47765 141.474 7.8537C144.115 9.22958 146.184 11.1386 147.682 13.5806C149.18 16.0226 149.929 18.7939 149.929 21.895C149.929 24.9959 149.18 27.7674 147.682 30.2094C146.184 32.6512 144.115 34.5604 141.474 35.9363C138.834 37.3124 135.838 38.0003 132.488 38.0003ZM132.488 30.5582C134.853 30.5582 136.794 29.7734 138.311 28.2035C139.829 26.6336 140.588 24.5309 140.588 21.8952C140.588 19.2595 139.829 17.1566 138.311 15.5867C136.794 14.0169 134.853 13.232 132.488 13.232C130.123 13.232 128.172 14.0169 126.635 15.5867C125.098 17.1566 124.329 19.2595 124.329 21.8952C124.329 24.5309 125.098 26.6336 126.635 28.2035C128.172 29.7734 130.123 30.5582 132.488 30.5582Z"/>
</svg>
