<svg width="166" height="32" viewBox="0 0 166 32" fill="none" xmlns="http://www.w3.org/2000/svg">
<path d="M53.0698 25C52.7664 25 52.501 24.8957 52.2734 24.6871C52.0648 24.4596 51.9605 24.1941 51.9605 23.8907V3.89422C51.9605 3.57185 52.0648 3.30637 52.2734 3.09777C52.501 2.88918 52.7664 2.78489 53.0698 2.78489C53.525 2.78489 53.8568 2.97452 54.0654 3.35378L63.6512 22.4116H62.6841L72.0992 3.35378C72.3267 2.97452 72.6586 2.78489 73.0947 2.78489C73.3981 2.78489 73.6541 2.88918 73.8627 3.09777C74.0713 3.30637 74.1756 3.57185 74.1756 3.89422V23.8907C74.1756 24.1941 74.0713 24.4596 73.8627 24.6871C73.6541 24.8957 73.3981 25 73.0947 25C72.7724 25 72.4974 24.8957 72.2698 24.6871C72.0613 24.4596 71.957 24.1941 71.957 23.8907V6.76711L72.4405 6.79555L64.0494 23.9476C63.8408 24.3079 63.5184 24.488 63.0823 24.488C62.6082 24.488 62.2669 24.2604 62.0583 23.8053L53.6103 6.90933L54.1792 6.76711V23.8907C54.1792 24.1941 54.0654 24.4596 53.8378 24.6871C53.6293 24.8957 53.3733 25 53.0698 25ZM86.2772 25.2844C85.0636 25.2844 83.9353 25.1138 82.8923 24.7724C81.8683 24.4121 80.977 23.9096 80.2185 23.2649C79.46 22.6201 78.8816 21.8711 78.4834 21.0178C78.3317 20.7144 78.3222 20.4394 78.455 20.1929C78.6067 19.9274 78.8532 19.7473 79.1945 19.6524C79.46 19.5766 79.716 19.605 79.9625 19.7378C80.228 19.8705 80.4271 20.0696 80.5598 20.3351C80.8443 20.885 81.2615 21.3781 81.8114 21.8142C82.3613 22.2504 83.0156 22.5917 83.7741 22.8382C84.5326 23.0658 85.367 23.1796 86.2772 23.1796C87.2822 23.1796 88.1735 23.0184 88.951 22.696C89.7284 22.3547 90.3353 21.8711 90.7714 21.2453C91.2265 20.6006 91.4541 19.8231 91.4541 18.9129C91.4541 17.7561 91.0274 16.7606 90.1741 15.9262C89.3207 15.0919 87.9839 14.5609 86.1634 14.3333C83.9447 14.0679 82.2096 13.3852 80.9581 12.2853C79.7065 11.1665 79.0807 9.80118 79.0807 8.18933C79.0807 7.03259 79.3841 6.02755 79.991 5.17422C80.6167 4.32089 81.4701 3.66666 82.551 3.21155C83.6318 2.73748 84.8739 2.50044 86.2772 2.50044C87.3201 2.50044 88.2683 2.67111 89.1216 3.01244C89.975 3.33481 90.7145 3.77096 91.3403 4.32089C91.985 4.85185 92.5065 5.4397 92.9047 6.08444C93.0944 6.38785 93.1513 6.68178 93.0754 6.96622C93.0185 7.25066 92.8573 7.46874 92.5919 7.62044C92.3074 7.75318 92.0135 7.77215 91.7101 7.67733C91.4256 7.58252 91.2076 7.40237 91.0559 7.13689C90.7714 6.70074 90.4111 6.29304 89.975 5.91378C89.5578 5.51555 89.0458 5.20266 88.439 4.97511C87.8321 4.74755 87.1021 4.62429 86.2487 4.60533C84.7507 4.60533 83.5465 4.9277 82.6363 5.57244C81.7261 6.19822 81.271 7.11792 81.271 8.33155C81.271 8.97629 81.4416 9.57363 81.783 10.1236C82.1243 10.6545 82.6837 11.1191 83.4612 11.5173C84.2576 11.8966 85.3196 12.181 86.647 12.3707C89.0173 12.712 90.7714 13.4421 91.9092 14.5609C93.0659 15.6607 93.6443 17.1019 93.6443 18.8844C93.6443 19.9084 93.4547 20.8187 93.0754 21.6151C92.7151 22.4116 92.1936 23.0847 91.511 23.6347C90.8473 24.1656 90.0603 24.5733 89.1501 24.8578C88.2588 25.1422 87.3012 25.2844 86.2772 25.2844ZM108.126 25.2844C106.476 25.2844 104.959 25 103.575 24.4311C102.19 23.8622 100.986 23.0658 99.9621 22.0418C98.957 21.0178 98.1701 19.8136 97.6012 18.4293C97.0513 17.045 96.7763 15.528 96.7763 13.8782C96.7763 12.2474 97.0513 10.7399 97.6012 9.35555C98.1701 7.97126 98.957 6.76711 99.9621 5.74311C100.986 4.71911 102.19 3.92266 103.575 3.35378C104.959 2.78489 106.476 2.50044 108.126 2.50044C109.756 2.50044 111.264 2.78489 112.648 3.35378C114.033 3.92266 115.237 4.71911 116.261 5.74311C117.285 6.76711 118.072 7.97126 118.622 9.35555C119.191 10.7399 119.475 12.2474 119.475 13.8782C119.475 15.528 119.191 17.045 118.622 18.4293C118.072 19.8136 117.285 21.0178 116.261 22.0418C115.237 23.0658 114.033 23.8622 112.648 24.4311C111.264 25 109.756 25.2844 108.126 25.2844ZM108.126 23.1796C109.434 23.1796 110.648 22.952 111.767 22.4969C112.885 22.0228 113.852 21.3686 114.668 20.5342C115.502 19.6809 116.147 18.6948 116.602 17.576C117.057 16.4382 117.285 15.2056 117.285 13.8782C117.285 12.5698 117.057 11.3561 116.602 10.2373C116.147 9.09955 115.502 8.11348 114.668 7.27911C113.852 6.42578 112.885 5.77155 111.767 5.31644C110.648 4.84237 109.434 4.60533 108.126 4.60533C106.798 4.60533 105.575 4.84237 104.456 5.31644C103.337 5.77155 102.361 6.42578 101.527 7.27911C100.711 8.11348 100.076 9.09955 99.6207 10.2373C99.1656 11.3561 98.9381 12.5698 98.9381 13.8782C98.9381 15.2056 99.1656 16.4382 99.6207 17.576C100.076 18.6948 100.711 19.6809 101.527 20.5342C102.361 21.3686 103.337 22.0228 104.456 22.4969C105.575 22.952 106.798 23.1796 108.126 23.1796ZM124.734 25C124.431 25 124.165 24.8957 123.938 24.6871C123.729 24.4596 123.625 24.1941 123.625 23.8907V3.89422C123.625 3.59081 123.729 3.33481 123.938 3.12622C124.165 2.89866 124.431 2.78489 124.734 2.78489C125.038 2.78489 125.294 2.89866 125.502 3.12622C125.73 3.33481 125.844 3.59081 125.844 3.89422V13.5653L136.226 3.18311C136.378 3.0314 136.52 2.92711 136.653 2.87022C136.785 2.81333 136.937 2.78489 137.108 2.78489C137.449 2.78489 137.705 2.88918 137.876 3.09777C138.046 3.30637 138.122 3.56237 138.103 3.86578C138.103 4.15022 137.989 4.42518 137.762 4.69066L129.968 12.4844L137.847 23.2364C138.018 23.483 138.084 23.7484 138.046 24.0329C138.027 24.2984 137.923 24.5259 137.733 24.7156C137.544 24.9052 137.316 25 137.051 25C136.634 25 136.321 24.8388 136.112 24.5164L128.375 14.0489L125.844 16.6089V23.8907C125.844 24.1941 125.73 24.4596 125.502 24.6871C125.294 24.8957 125.038 25 124.734 25ZM150.967 25.2844C149.317 25.2844 147.8 25 146.416 24.4311C145.031 23.8622 143.827 23.0658 142.803 22.0418C141.798 21.0178 141.011 19.8136 140.442 18.4293C139.892 17.045 139.617 15.528 139.617 13.8782C139.617 12.2474 139.892 10.7399 140.442 9.35555C141.011 7.97126 141.798 6.76711 142.803 5.74311C143.827 4.71911 145.031 3.92266 146.416 3.35378C147.8 2.78489 149.317 2.50044 150.967 2.50044C152.598 2.50044 154.105 2.78489 155.489 3.35378C156.874 3.92266 158.078 4.71911 159.102 5.74311C160.126 6.76711 160.913 7.97126 161.463 9.35555C162.032 10.7399 162.316 12.2474 162.316 13.8782C162.316 15.528 162.032 17.045 161.463 18.4293C160.913 19.8136 160.126 21.0178 159.102 22.0418C158.078 23.0658 156.874 23.8622 155.489 24.4311C154.105 25 152.598 25.2844 150.967 25.2844ZM150.967 23.1796C152.275 23.1796 153.489 22.952 154.608 22.4969C155.726 22.0228 156.694 21.3686 157.509 20.5342C158.343 19.6809 158.988 18.6948 159.443 17.576C159.898 16.4382 160.126 15.2056 160.126 13.8782C160.126 12.5698 159.898 11.3561 159.443 10.2373C158.988 9.09955 158.343 8.11348 157.509 7.27911C156.694 6.42578 155.726 5.77155 154.608 5.31644C153.489 4.84237 152.275 4.60533 150.967 4.60533C149.639 4.60533 148.416 4.84237 147.297 5.31644C146.179 5.77155 145.202 6.42578 144.368 7.27911C143.552 8.11348 142.917 9.09955 142.462 10.2373C142.007 11.3561 141.779 12.5698 141.779 13.8782C141.779 15.2056 142.007 16.4382 142.462 17.576C142.917 18.6948 143.552 19.6809 144.368 20.5342C145.202 21.3686 146.179 22.0228 147.297 22.4969C148.416 22.952 149.639 23.1796 150.967 23.1796Z" fill="black"/>
<path fill-rule="evenodd" clip-rule="evenodd" d="M21.5484 2.96289H8.58307e-06L9.073 9.63504H30.6214L21.5484 2.96289ZM9.07299 9.63505V25.4814L0 18.8093V2.96289L9.07299 9.63505Z" fill="#CCCCCC"/>
<path fill-rule="evenodd" clip-rule="evenodd" d="M9.07296 25.4814L30.6213 25.4814L21.5483 18.8093L-3.43323e-05 18.8093L9.07296 25.4814ZM21.5483 18.8093L21.5483 2.96292L30.6213 9.63508L30.6213 25.4814L21.5483 18.8093Z" fill="#3374A3"/>
</svg>
