<svg width="164" height="40" viewBox="0 0 164 40" fill="none" xmlns="http://www.w3.org/2000/svg">
<path d="M0.375 39V7.5H7.71L20.715 28.92H16.845L29.58 7.5H36.915L37.005 39H28.77L28.725 19.965H30.12L20.625 35.895H16.665L6.9 19.965H8.565V39H0.375Z" fill="white"/>
<path d="M40.5551 39L54.4601 7.5H63.2351L77.1851 39H67.9151L57.0251 11.865H60.5351L49.6451 39H40.5551ZM48.1601 32.88L50.4551 26.31H65.8451L68.1401 32.88H48.1601Z" fill="white"/>
<path d="M80.7949 39V7.5H89.5699V25.995L102.575 7.5H110.945V39H102.17V20.55L89.2099 39H80.7949Z" fill="white"/>
<path d="M133.054 39.63C130.564 39.63 128.254 39.24 126.124 38.46C124.024 37.65 122.194 36.51 120.634 35.04C119.104 33.57 117.904 31.845 117.034 29.865C116.164 27.855 115.729 25.65 115.729 23.25C115.729 20.85 116.164 18.66 117.034 16.68C117.904 14.67 119.104 12.93 120.634 11.46C122.194 9.99 124.024 8.865 126.124 8.085C128.254 7.275 130.564 6.87 133.054 6.87C135.964 6.87 138.559 7.38 140.839 8.4C143.149 9.42 145.069 10.89 146.599 12.81L140.929 17.94C139.909 16.74 138.784 15.825 137.554 15.195C136.354 14.565 135.004 14.25 133.504 14.25C132.214 14.25 131.029 14.46 129.949 14.88C128.869 15.3 127.939 15.915 127.159 16.725C126.409 17.505 125.809 18.45 125.359 19.56C124.939 20.67 124.729 21.9 124.729 23.25C124.729 24.6 124.939 25.83 125.359 26.94C125.809 28.05 126.409 29.01 127.159 29.82C127.939 30.6 128.869 31.2 129.949 31.62C131.029 32.04 132.214 32.25 133.504 32.25C135.004 32.25 136.354 31.935 137.554 31.305C138.784 30.675 139.909 29.76 140.929 28.56L146.599 33.69C145.069 35.58 143.149 37.05 140.839 38.1C138.559 39.12 135.964 39.63 133.054 39.63Z" fill="white"/>
</svg>
