<svg width="123" height="40" viewBox="0 0 123 40" fill="none" xmlns="http://www.w3.org/2000/svg">
<path d="M0 39.13L13.905 7.63H22.68L36.63 39.13H27.36L16.47 11.995H19.98L9.09 39.13H0ZM7.605 33.01L9.9 26.44H25.29L27.585 33.01H7.605Z" fill="white"/>
<path d="M40.2398 39.13V7.63H49.0148V26.125L62.0198 7.63H70.3898V39.13H61.6148V20.68L48.6548 39.13H40.2398Z" fill="white"/>
<path d="M92.4989 39.76C90.0089 39.76 87.6989 39.37 85.5689 38.59C83.4689 37.78 81.6389 36.64 80.0789 35.17C78.5489 33.7 77.3489 31.975 76.4789 29.995C75.6089 27.985 75.1739 25.78 75.1739 23.38C75.1739 20.98 75.6089 18.79 76.4789 16.81C77.3489 14.8 78.5489 13.06 80.0789 11.59C81.6389 10.12 83.4689 8.995 85.5689 8.215C87.6989 7.405 90.0089 7 92.4989 7C95.4089 7 98.0039 7.51 100.284 8.53C102.594 9.55 104.514 11.02 106.044 12.94L100.374 18.07C99.3539 16.87 98.2289 15.955 96.9989 15.325C95.7989 14.695 94.4489 14.38 92.9489 14.38C91.6589 14.38 90.4739 14.59 89.3939 15.01C88.3139 15.43 87.3839 16.045 86.6039 16.855C85.8539 17.635 85.2539 18.58 84.8039 19.69C84.3839 20.8 84.1739 22.03 84.1739 23.38C84.1739 24.73 84.3839 25.96 84.8039 27.07C85.2539 28.18 85.8539 29.14 86.6039 29.95C87.3839 30.73 88.3139 31.33 89.3939 31.75C90.4739 32.17 91.6589 32.38 92.9489 32.38C94.4489 32.38 95.7989 32.065 96.9989 31.435C98.2289 30.805 99.3539 29.89 100.374 28.69L106.044 33.82C104.514 35.71 102.594 37.18 100.284 38.23C98.0039 39.25 95.4089 39.76 92.4989 39.76Z" fill="white"/>
<path fill-rule="evenodd" clip-rule="evenodd" d="M119.54 9.38196H117.95V6.64569L114.77 7.42742V9.38196H113.18C113.18 7.29699 113.18 5.21218 113.18 3.12738H114.77V5.86365L117.95 5.08176V3.12738H119.54C119.54 5.21218 119.54 7.29699 119.54 9.38196ZM116.36 12.509C118.116 12.509 119.706 11.8088 120.857 10.677C122.008 9.54515 122.72 7.98155 122.72 6.25459C122.72 4.52763 122.008 2.96403 120.857 1.83204C119.706 0.700209 118.116 0 116.36 0C114.604 0 113.014 0.700209 111.863 1.83204C110.712 2.96403 110 4.52763 110 6.25459C110 7.98155 110.712 9.54515 111.863 10.677C113.014 11.8088 114.604 12.509 116.36 12.509ZM111.59 6.25459C111.59 3.66375 113.726 1.56361 116.36 1.56361C118.994 1.56361 121.13 3.66375 121.13 6.25459C121.13 8.84527 118.994 10.9456 116.36 10.9456C113.726 10.9456 111.59 8.84527 111.59 6.25459Z" fill="#F8F8F8"/>
</svg>
