<svg width="164" height="38" viewBox="0 0 164 38" fill="none" xmlns="http://www.w3.org/2000/svg">
<g clip-path="url(#clip0_210_2445)">
<path fill-rule="evenodd" clip-rule="evenodd" d="M160.82 9.38184H159.23V6.64557L156.051 7.42729V9.38184H154.461C154.461 7.29687 154.461 5.21206 154.461 3.12725H156.051V5.86353L159.23 5.08164V3.12725H160.82C160.82 5.21206 160.82 7.29687 160.82 9.38184ZM157.641 12.5089C159.397 12.5089 160.986 11.8087 162.137 10.6769C163.288 9.54503 164 7.98142 164 6.25447C164 4.52751 163.288 2.9639 162.137 1.83191C160.986 0.700087 159.397 -0.00012207 157.641 -0.00012207C155.885 -0.00012207 154.295 0.700087 153.144 1.83191C151.993 2.9639 151.281 4.52751 151.281 6.25447C151.281 7.98142 151.993 9.54503 153.144 10.6769C154.295 11.8087 155.885 12.5089 157.641 12.5089ZM152.871 6.25447C152.871 3.66363 155.006 1.56348 157.641 1.56348C160.275 1.56348 162.41 3.66363 162.41 6.25447C162.41 8.84514 160.275 10.9454 157.641 10.9454C155.006 10.9454 152.871 8.84514 152.871 6.25447Z" fill="#F8F8F8"/>
<path d="M0 6.25466H9.16361V18.4644H22.9977V6.25466H32.2205V37.535H22.9977V25.8484H9.16361V37.535H0V6.25466H0ZM41.0293 6.25466H50.1929V24.8601L65.6823 6.25466H74.1366V37.535H64.973V18.9296L49.5426 37.535H41.0293V6.25466V6.25466ZM98.1392 38.0001C94.7496 38.0001 91.7051 37.3121 89.0051 35.9361C86.3054 34.5602 84.1967 32.651 82.6793 30.2091C81.1619 27.7671 80.4032 24.9958 80.4032 21.8948C80.4032 18.7939 81.1619 16.0224 82.6793 13.5804C84.1968 11.1384 86.3054 9.22934 89.0051 7.85346C91.7051 6.47741 94.7496 5.78931 98.1392 5.78931C101.489 5.78931 104.416 6.47741 106.919 7.85346C109.421 9.22934 111.244 11.1966 112.387 13.7549L105.234 17.534C103.578 14.6656 101.194 13.2314 98.0801 13.2314C95.6758 13.2314 93.6856 14.0067 92.109 15.5572C90.5324 17.1076 89.7441 19.2202 89.7441 21.8948C89.7441 24.5692 90.5324 26.6816 92.109 28.2323C93.6854 29.7827 95.6758 30.558 98.0801 30.558C101.233 30.558 103.618 29.1238 105.234 26.2555L112.387 30.0929C111.244 32.5735 109.421 34.5116 106.919 35.907C104.416 37.3024 101.489 38.0001 98.1392 38.0001ZM132.488 38.0001C129.138 38.0001 126.133 37.3121 123.472 35.9361C120.812 34.5602 118.733 32.651 117.235 30.2091C115.738 27.7671 114.989 24.9958 114.989 21.8948C114.989 18.7939 115.738 16.0224 117.235 13.5804C118.733 11.1384 120.812 9.22934 123.472 7.85346C126.133 6.47741 129.138 5.78931 132.488 5.78931C135.838 5.78931 138.834 6.47741 141.474 7.85346C144.115 9.22934 146.184 11.1384 147.682 13.5804C149.18 16.0224 149.929 18.7937 149.929 21.8948C149.929 24.9957 149.18 27.7671 147.682 30.2091C146.184 32.651 144.115 34.5602 141.474 35.9361C138.834 37.3121 135.838 38.0001 132.488 38.0001V38.0001ZM132.488 30.558C134.853 30.558 136.794 29.7732 138.311 28.2033C139.829 26.6334 140.588 24.5306 140.588 21.8949C140.588 19.2592 139.829 17.1563 138.311 15.5864C136.794 14.0167 134.853 13.2317 132.488 13.2317C130.123 13.2317 128.172 14.0167 126.635 15.5864C125.098 17.1563 124.33 19.2592 124.33 21.8949C124.33 24.5306 125.098 26.6334 126.635 28.2033C128.172 29.7732 130.123 30.558 132.488 30.558Z" fill="#F8F8F8"/>
</g>
<defs>
<clipPath id="clip0_210_2445">
<rect width="164" height="38" fill="white"/>
</clipPath>
</defs>
</svg>
