<svg width="17" height="17" viewBox="0 0 17 17" fill="none" xmlns="http://www.w3.org/2000/svg">
<path d="M2.39697 2.07031C2.39697 1.9377 2.44965 1.81053 2.54342 1.71676C2.63719 1.62299 2.76436 1.57031 2.89697 1.57031H14.897C15.0296 1.57031 15.1568 1.62299 15.2505 1.71676C15.3443 1.81053 15.397 1.9377 15.397 2.07031V4.07031C15.397 4.19362 15.3514 4.31257 15.269 4.40431L10.897 9.26231V14.0703C10.8969 14.1752 10.8638 14.2774 10.8024 14.3625C10.7411 14.4476 10.6545 14.5112 10.555 14.5443L7.55497 15.5443C7.47985 15.5693 7.39985 15.5762 7.32157 15.5642C7.2433 15.5523 7.16897 15.5219 7.10472 15.4756C7.04047 15.4293 6.98814 15.3685 6.95202 15.298C6.9159 15.2275 6.89703 15.1495 6.89697 15.0703V9.26231L2.52497 4.40431C2.44258 4.31257 2.39699 4.19362 2.39697 4.07031V2.07031ZM3.39697 2.57031V3.87831L7.76897 8.73631C7.85136 8.82805 7.89695 8.947 7.89697 9.07031V14.3763L9.89697 13.7103V9.07031C9.89699 8.947 9.94258 8.82805 10.025 8.73631L14.397 3.87831V2.57031H3.39697Z" fill="#4F8BE4" stroke="#4F8BE4" stroke-width="0.5"/>
</svg>
