<svg width="15" height="15" viewBox="0 0 15 15" fill="none" xmlns="http://www.w3.org/2000/svg">
<path d="M14.5928 13.2808L11.2509 9.93884C12.0555 8.86772 12.4898 7.56394 12.4884 6.22428C12.4884 2.8024 9.70439 0.0184326 6.28251 0.0184326C2.86063 0.0184326 0.0766602 2.8024 0.0766602 6.22428C0.0766602 9.64617 2.86063 12.4301 6.28251 12.4301C7.62217 12.4316 8.92594 11.9973 9.99707 11.1927L13.339 14.5346C13.5082 14.6858 13.7288 14.7666 13.9557 14.7602C14.1825 14.7539 14.3983 14.6609 14.5587 14.5005C14.7192 14.34 14.8121 14.1243 14.8184 13.8974C14.8248 13.6706 14.7441 13.45 14.5928 13.2808ZM1.84976 6.22428C1.84976 5.34757 2.10974 4.49054 2.59681 3.76158C3.08389 3.03262 3.77619 2.46446 4.58617 2.12896C5.39615 1.79345 6.28743 1.70567 7.1473 1.87671C8.00716 2.04775 8.79701 2.46992 9.41694 3.08985C10.0369 3.70979 10.459 4.49963 10.6301 5.3595C10.8011 6.21936 10.7133 7.11064 10.3778 7.92062C10.0423 8.7306 9.47418 9.4229 8.74521 9.90998C8.01625 10.3971 7.15922 10.657 6.28251 10.657C5.1073 10.6556 3.98064 10.1881 3.14964 9.35715C2.31864 8.52616 1.85117 7.39949 1.84976 6.22428Z" fill="#979DBB"/>
</svg>
