<svg width="27" height="27" viewBox="0 0 27 27" fill="none" xmlns="http://www.w3.org/2000/svg">
<path d="M13.3331 0.362274C6.03076 0.362274 0.0898438 6.30319 0.0898438 13.6055V19.0922C0.0898438 20.4483 1.27776 21.5514 2.73849 21.5514H4.06281C4.41404 21.5514 4.75089 21.4119 4.99925 21.1636C5.24761 20.9152 5.38714 20.5784 5.38714 20.2271V13.4161C5.38714 13.0649 5.24761 12.728 4.99925 12.4797C4.75089 12.2313 4.41404 12.0918 4.06281 12.0918H2.86033C3.59665 6.96667 8.00665 3.01092 13.3331 3.01092C18.6595 3.01092 23.0695 6.96667 23.8058 12.0918H22.6033C22.2521 12.0918 21.9153 12.2313 21.6669 12.4797C21.4185 12.728 21.279 13.0649 21.279 13.4161V21.5514C21.279 23.0122 20.0911 24.2001 18.6304 24.2001H15.9817V22.8758H10.6844V26.8487H18.6304C21.5518 26.8487 23.9277 24.4729 23.9277 21.5514C25.3884 21.5514 26.5763 20.4483 26.5763 19.0922V13.6055C26.5763 6.30319 20.6354 0.362274 13.3331 0.362274Z" fill="#3A78F2"/>
</svg>
