<svg width="18" height="17" viewBox="0 0 18 17" fill="#F5F7FB" xmlns="http://www.w3.org/2000/svg">
<path opacity="0.8" d="M9.55635 7.6609H4.43061C4.20404 7.6609 3.98674 7.57481 3.82653 7.42157C3.66632 7.26832 3.57632 7.06048 3.57632 6.84376C3.57632 6.62703 3.66632 6.41919 3.82653 6.26595C3.98674 6.1127 4.20404 6.02661 4.43061 6.02661H9.55635C9.78292 6.02661 10.0002 6.1127 10.1604 6.26595C10.3206 6.41919 10.4106 6.62703 10.4106 6.84376C10.4106 7.06048 10.3206 7.26832 10.1604 7.42157C10.0002 7.57481 9.78292 7.6609 9.55635 7.6609V7.6609ZM12.9735 6.02661C13.1425 6.02661 13.3076 6.07453 13.4481 6.16432C13.5886 6.25411 13.6981 6.38173 13.7628 6.53105C13.8274 6.68036 13.8444 6.84466 13.8114 7.00317C13.7784 7.16168 13.6971 7.30729 13.5776 7.42157C13.4581 7.53585 13.3059 7.61367 13.1402 7.6452C12.9745 7.67673 12.8027 7.66055 12.6466 7.5987C12.4905 7.53685 12.3571 7.43212 12.2632 7.29774C12.1693 7.16336 12.1192 7.00537 12.1192 6.84376C12.1192 6.62703 12.2092 6.41919 12.3694 6.26595C12.5296 6.1127 12.7469 6.02661 12.9735 6.02661ZM12.9735 9.2952C13.1425 9.2952 13.3076 9.34312 13.4481 9.43291C13.5886 9.5227 13.6981 9.65032 13.7628 9.79963C13.8274 9.94895 13.8444 10.1132 13.8114 10.2718C13.7784 10.4303 13.6971 10.5759 13.5776 10.6902C13.4581 10.8044 13.3059 10.8823 13.1402 10.9138C12.9745 10.9453 12.8027 10.9291 12.6466 10.8673C12.4905 10.8054 12.3571 10.7007 12.2632 10.5663C12.1693 10.4319 12.1192 10.274 12.1192 10.1123C12.1192 9.89562 12.2092 9.68778 12.3694 9.53453C12.5296 9.38129 12.7469 9.2952 12.9735 9.2952ZM8.70206 0.30658C9.82393 0.30658 10.9348 0.517941 11.9713 0.928596C13.0078 1.33925 13.9495 1.94116 14.7428 2.69995C16.3449 4.2324 17.245 6.31084 17.245 8.47805C17.2524 10.365 16.5694 12.1949 15.3143 13.6506L17.0228 15.2849C17.1414 15.3998 17.2217 15.5457 17.2536 15.7042C17.2855 15.8627 17.2677 16.0268 17.2022 16.1756C17.1313 16.3226 17.0163 16.4461 16.8718 16.5305C16.7273 16.6149 16.5598 16.6563 16.3907 16.6495H8.70206C6.43634 16.6495 4.26342 15.7886 2.66132 14.2562C1.05921 12.7237 0.159157 10.6453 0.159157 8.47805C0.159157 6.31084 1.05921 4.2324 2.66132 2.69995C4.26342 1.1675 6.43634 0.30658 8.70206 0.30658V0.30658ZM8.70206 15.0152H14.3318L13.5373 14.2553C13.4566 14.1796 13.3924 14.0893 13.3484 13.9898C13.3044 13.8902 13.2815 13.7832 13.2811 13.6751C13.2843 13.4596 13.3764 13.254 13.5373 13.1031C14.656 12.0343 15.3526 10.6276 15.5085 9.12261C15.6643 7.61763 15.2699 6.10751 14.3923 4.84953C13.5147 3.59154 12.2082 2.66352 10.6955 2.22358C9.18282 1.78364 7.55743 1.859 6.09629 2.43681C4.63515 3.01462 3.42865 4.05914 2.68236 5.39241C1.93606 6.72568 1.69614 8.26522 2.00346 9.74872C2.31079 11.2322 3.14635 12.5679 4.36779 13.5282C5.58922 14.4885 7.12097 15.014 8.70206 15.0152V15.0152ZM4.43061 9.2952H9.55635C9.78292 9.2952 10.0002 9.38129 10.1604 9.53453C10.3206 9.68778 10.4106 9.89562 10.4106 10.1123C10.4106 10.3291 10.3206 10.5369 10.1604 10.6902C10.0002 10.8434 9.78292 10.9295 9.55635 10.9295H4.43061C4.20404 10.9295 3.98674 10.8434 3.82653 10.6902C3.66632 10.5369 3.57632 10.3291 3.57632 10.1123C3.57632 9.89562 3.66632 9.68778 3.82653 9.53453C3.98674 9.38129 4.20404 9.2952 4.43061 9.2952Z"/>
</svg>
