<svg width="19" height="20" viewBox="0 0 19 20" fill="none" xmlns="http://www.w3.org/2000/svg">
<g opacity="0.8">
<path d="M14.4025 3.05597H16.2779C16.7753 3.05597 17.2523 3.25356 17.604 3.60526C17.9557 3.95697 18.1533 4.43399 18.1533 4.93138V16.1839C18.1533 16.6812 17.9557 17.1583 17.604 17.51C17.2523 17.8617 16.7753 18.0593 16.2779 18.0593H10.9358" stroke="#F5F7FB" stroke-width="1.5" stroke-linecap="round" stroke-linejoin="round"/>
<path d="M5.02539 11.4953V15.2461H1.27457" stroke="#F5F7FB" stroke-width="1.5" stroke-linecap="round" stroke-linejoin="round"/>
<path d="M5.02553 8.68221V4.93138C5.02553 4.43399 5.22312 3.95697 5.57483 3.60527C5.92654 3.25356 6.40356 3.05597 6.90095 3.05597H8.77637" stroke="#F5F7FB" stroke-width="1.5" stroke-linecap="round" stroke-linejoin="round"/>
<path d="M10.6515 1.18054H12.5269C13.5627 1.18054 14.4023 2.02019 14.4023 3.05595C14.4023 4.09172 13.5627 4.93137 12.5269 4.93137H10.6515C9.61576 4.93137 8.77611 4.09172 8.77611 3.05595C8.77611 2.02019 9.61576 1.18054 10.6515 1.18054Z" stroke="#F5F7FB" stroke-width="1.5" stroke-linecap="round" stroke-linejoin="round"/>
<path d="M5.02554 18.997C2.95402 18.997 1.27472 17.3176 1.27472 15.2461C1.27472 13.1746 2.95402 11.4953 5.02554 11.4953C7.09707 11.4953 8.77637 13.1746 8.77637 15.2461C8.77637 17.3176 7.09707 18.997 5.02554 18.997Z" stroke="#F5F7FB" stroke-width="1.5" stroke-linecap="round" stroke-linejoin="round"/>
<path d="M14.4023 8.68219H10.6515" stroke="#F5F7FB" stroke-width="1.5" stroke-linecap="round" stroke-linejoin="round"/>
<path d="M14.4023 12.433H11.5892" stroke="#F5F7FB" stroke-width="1.5" stroke-linecap="round" stroke-linejoin="round"/>
</g>
</svg>
