<svg width="35" height="34" viewBox="0 0 35 34" fill="#3A78F2" xmlns="http://www.w3.org/2000/svg">
<path d="M30.3851 26.6893C31.1651 25.4381 31.6038 23.9756 31.5063 22.3668C31.2951 18.8731 28.5163 15.9156 25.0551 15.5418C24.0304 15.4226 22.992 15.5216 22.0083 15.8322C21.0245 16.1428 20.1177 16.6581 19.3472 17.3441C18.5767 18.0302 17.9602 18.8715 17.538 19.8127C17.1158 20.754 16.8976 21.774 16.8976 22.8056C16.8976 26.8518 20.1638 30.1181 24.1938 30.1181C25.6238 30.1181 26.9563 29.6956 28.0776 28.9806L31.9938 32.8968C32.6276 33.5306 33.6676 33.5306 34.3013 32.8968C34.9351 32.2631 34.9351 31.2231 34.3013 30.5893L30.3851 26.6893ZM24.2101 26.8681C23.1326 26.8681 22.0993 26.4401 21.3375 25.6782C20.5756 24.9164 20.1476 23.883 20.1476 22.8056C20.1476 21.7282 20.5756 20.6948 21.3375 19.933C22.0993 19.1711 23.1326 18.7431 24.2101 18.7431C25.2875 18.7431 26.3208 19.1711 27.0827 19.933C27.8446 20.6948 28.2726 21.7282 28.2726 22.8056C28.2726 23.883 27.8446 24.9164 27.0827 25.6782C26.3208 26.4401 25.2875 26.8681 24.2101 26.8681ZM23.6251 13.0556C22.4226 13.0881 21.2688 13.3481 20.2126 13.7868L19.3188 12.4381L14.3138 20.5793C14.1801 20.7974 13.9968 20.9808 13.7788 21.1146C13.5608 21.2485 13.3143 21.329 13.0594 21.3495C12.8044 21.3701 12.5482 21.3302 12.3116 21.2331C12.0749 21.136 11.8646 20.9844 11.6976 20.7906L8.25259 16.7768L3.28008 24.7393C2.77633 25.5356 1.70383 25.7468 0.940084 25.1943C0.257584 24.6906 0.0625842 23.7481 0.517584 23.0168L6.66009 13.1856C7.24509 12.2593 8.56133 12.1618 9.27633 12.9906L12.7051 16.9881L17.8726 8.58685C18.0147 8.35467 18.213 8.16208 18.4493 8.02689C18.6855 7.8917 18.9521 7.81827 19.2242 7.81341C19.4964 7.80855 19.7654 7.87241 20.0063 7.99908C20.2472 8.12575 20.4523 8.31114 20.6026 8.5381L23.6251 13.0556ZM27.8338 13.8681C26.7938 13.4131 25.6726 13.1368 24.5026 13.0718L31.8801 1.38809C32.3838 0.591845 33.4563 0.396845 34.2038 0.949345C34.9026 1.4531 35.0813 2.41184 34.6263 3.12684L27.8338 13.8681Z"/>
</svg>
