<svg width="47" height="42" viewBox="0 0 47 42" fill="#3A78F2" xmlns="http://www.w3.org/2000/svg">
<path d="M13.9259 17.4074H3.48148C2.55845 17.4064 1.67353 17.0392 1.02085 16.3866C0.368169 15.7339 0.00103666 14.849 0 13.9259V3.48148C0.00103666 2.55845 0.368169 1.67353 1.02085 1.02085C1.67353 0.368168 2.55845 0.00103666 3.48148 0H13.9259C14.849 0.00103666 15.7339 0.368168 16.3866 1.02085C17.0392 1.67353 17.4064 2.55845 17.4074 3.48148V6.96296H19.1481C20.9942 6.96504 22.7641 7.6993 24.0694 9.00466C25.3748 10.31 26.109 12.0799 26.1111 13.9259V19.1481H31.3333V16.537C31.3344 15.614 31.7015 14.7291 32.3542 14.0764C33.0069 13.4237 33.8918 13.0566 34.8148 13.0556H43.5185C44.4415 13.0566 45.3265 13.4237 45.9791 14.0764C46.6318 14.7291 46.999 15.614 47 16.537V25.2407C46.999 26.1638 46.6318 27.0487 45.9791 27.7014C45.3265 28.3541 44.4415 28.7212 43.5185 28.7222H34.8148C33.8918 28.7212 33.0069 28.3541 32.3542 27.7014C31.7015 27.0487 31.3344 26.1638 31.3333 25.2407V22.6296H26.1111V27.8519C26.109 29.6979 25.3748 31.4678 24.0694 32.7731C22.7641 34.0785 20.9942 34.8127 19.1481 34.8148H17.4074V38.2963C17.4064 39.2193 17.0392 40.1042 16.3866 40.7569C15.7339 41.4096 14.849 41.7767 13.9259 41.7778H3.48148C2.55845 41.7767 1.67353 41.4096 1.02085 40.7569C0.368169 40.1042 0.00103666 39.2193 0 38.2963V27.8519C0.00103666 26.9288 0.368169 26.0439 1.02085 25.3912C1.67353 24.7385 2.55845 24.3714 3.48148 24.3704H13.9259C14.849 24.3714 15.7339 24.7385 16.3866 25.3912C17.0392 26.0439 17.4064 26.9288 17.4074 27.8519V31.3333H19.1481C20.0712 31.3323 20.9561 30.9652 21.6088 30.3125C22.2615 29.6598 22.6286 28.7749 22.6296 27.8519V13.9259C22.6286 13.0029 22.2615 12.118 21.6088 11.4653C20.9561 10.8126 20.0712 10.4455 19.1481 10.4444H17.4074V13.9259C17.4064 14.849 17.0392 15.7339 16.3866 16.3866C15.7339 17.0392 14.849 17.4064 13.9259 17.4074ZM34.8148 25.2407H43.5185V16.537H34.8148L34.8137 20.868C34.8137 20.875 34.8148 20.8819 34.8148 20.8889C34.8148 20.8961 34.8137 20.9028 34.8137 20.91L34.8148 25.2407ZM13.9259 27.8519H3.48148L3.47931 38.2963H13.9259V27.8519ZM13.9259 3.48148H3.48148L3.47931 13.9259H13.9259V3.48148Z"/>
</svg>
