<svg width="49" height="35" viewBox="0 0 49 35" fill="#3A78F2" xmlns="http://www.w3.org/2000/svg">
<path d="M22.0228 24.9687H21.0228V25.0309L21.0305 25.0927L22.0228 24.9687ZM28.3162 8.7037C27.764 8.7037 27.3162 9.15142 27.3162 9.7037C27.3162 10.256 27.764 10.7037 28.3162 10.7037V8.7037ZM41.8405 10.7037C42.3927 10.7037 42.8405 10.256 42.8405 9.7037C42.8405 9.15142 42.3927 8.7037 41.8405 8.7037V10.7037ZM28.3162 13.6581C27.764 13.6581 27.3162 14.1058 27.3162 14.6581C27.3162 15.2104 27.764 15.6581 28.3162 15.6581V13.6581ZM41.8405 15.6581C42.3927 15.6581 42.8405 15.2104 42.8405 14.6581C42.8405 14.1058 42.3927 13.6581 41.8405 13.6581V15.6581ZM28.3162 18.4786C27.764 18.4786 27.3162 18.9263 27.3162 19.4786C27.3162 20.0309 27.764 20.4786 28.3162 20.4786V18.4786ZM41.8405 20.4786C42.3927 20.4786 42.8405 20.0309 42.8405 19.4786C42.8405 18.9263 42.3927 18.4786 41.8405 18.4786V20.4786ZM28.3162 23.433C27.764 23.433 27.3162 23.8808 27.3162 24.433C27.3162 24.9853 27.764 25.433 28.3162 25.433V23.433ZM41.8405 25.433C42.3927 25.433 42.8405 24.9853 42.8405 24.433C42.8405 23.8808 42.3927 23.433 41.8405 23.433V25.433ZM43.0456 32.1367H5.95444V34.1367H43.0456V32.1367ZM5.95444 32.1367C3.82866 32.1367 2 30.3081 2 28.1823H0C0 31.4127 2.7241 34.1367 5.95444 34.1367V32.1367ZM2 28.1823V5.95443H0V28.1823H2ZM2 5.95443C2 3.82865 3.82866 2 5.95444 2V0C2.7241 0 0 2.72408 0 5.95443H2ZM5.95444 2H43.0456V0H5.95444V2ZM43.0456 2C45.1714 2 47 3.82865 47 5.95443H49C49 2.72408 46.2759 0 43.0456 0V2ZM47 5.95443V28.1823H49V5.95443H47ZM47 28.1823C47 30.3258 45.2877 32.1367 43.0456 32.1367V34.1367C46.4274 34.1367 49 31.395 49 28.1823H47ZM14.6581 15.792C17.3968 15.792 19.6752 13.6374 19.6752 10.9088H17.6752C17.6752 12.4695 16.3567 13.792 14.6581 13.792V15.792ZM19.6752 10.9088C19.6752 8.18023 17.3968 6.02564 14.6581 6.02564V8.02564C16.3567 8.02564 17.6752 9.34816 17.6752 10.9088H19.6752ZM14.6581 6.02564C11.9195 6.02564 9.64105 8.18023 9.64105 10.9088H11.641C11.641 9.34817 12.9596 8.02564 14.6581 8.02564V6.02564ZM9.64105 10.9088C9.64105 13.6374 11.9195 15.792 14.6581 15.792V13.792C12.9596 13.792 11.641 12.4695 11.641 10.9088H9.64105ZM20.0143 25.9772H9.30202V27.9772H20.0143V25.9772ZM9.30202 25.9772C8.78308 25.9772 8.29347 25.4876 8.29347 24.9687H6.29347C6.29347 26.5922 7.67851 27.9772 9.30202 27.9772V25.9772ZM8.29347 24.9687V21.4872H6.29347V24.9687H8.29347ZM8.29347 21.4872C8.29347 19.2275 10.1221 17.3989 12.3818 17.3989V15.3989C9.01751 15.3989 6.29347 18.1229 6.29347 21.4872H8.29347ZM12.3818 17.3989H16.9345V15.3989H12.3818V17.3989ZM16.9345 17.3989C19.1942 17.3989 21.0228 19.2275 21.0228 21.4872H23.0228C23.0228 18.1229 20.2987 15.3989 16.9345 15.3989V17.3989ZM21.0228 21.4872V24.9687H23.0228V21.4872H21.0228ZM21.0305 25.0927C21.0747 25.4462 20.7465 25.9772 20.0143 25.9772V27.9772C21.6923 27.9772 23.2387 26.6335 23.0151 24.8446L21.0305 25.0927ZM28.3162 10.7037H41.8405V8.7037H28.3162V10.7037ZM28.3162 15.6581H41.8405V13.6581H28.3162V15.6581ZM28.3162 20.4786H41.8405V18.4786H28.3162V20.4786ZM28.3162 25.433H41.8405V23.433H28.3162V25.433Z"/>
</svg>
