<svg width="47" height="64" viewBox="0 0 47 64" fill="#3A78F2" xmlns="http://www.w3.org/2000/svg">
<path d="M34.7391 0H12.2609C10.013 0 8.17391 1.83908 8.17391 4.08696C5.92603 4.08696 4.08696 5.92603 4.08696 8.17391C1.83908 8.17391 0 10.013 0 12.2609V59.2609C0 61.5086 1.83908 63.3478 4.08696 63.3478H34.7391C36.9869 63.3478 38.8261 61.5086 38.8261 59.2609C41.0739 59.2609 42.913 57.4217 42.913 55.1739C45.1608 55.1739 47 53.3347 47 51.087V14.3045L34.7391 0ZM34.7391 3.06527L44.3435 14.3045H36.7826C35.7609 14.3045 34.7391 13.2828 34.7391 12.261V3.06527ZM34.7391 61.3043H4.08696C3.06527 61.3043 2.04348 60.487 2.04348 59.2609V12.2609C2.04348 11.2392 2.86087 10.2174 4.08696 10.2174V55.1739C4.08696 57.4217 5.92603 59.2609 8.17391 59.2609H36.7826C36.7826 60.2827 35.9652 61.3043 34.7391 61.3043ZM40.8696 55.1739C40.8696 56.1956 40.0522 57.2174 38.8261 57.2174H8.17391C7.15223 57.2174 6.13043 56.4 6.13043 55.1739V8.17391C6.13043 7.15223 6.94783 6.13043 8.17391 6.13043V51.087C8.17391 53.3347 10.013 55.1739 12.2609 55.1739H40.8696ZM44.9565 51.087C44.9565 52.1086 44.1391 53.1304 42.913 53.1304H12.2609C11.2392 53.1304 10.2174 52.313 10.2174 51.087V4.08696C10.2174 3.06527 11.0348 2.04348 12.2609 2.04348H32.6957V12.2609C32.6957 14.5087 34.5348 16.3478 36.7826 16.3478H44.9565V51.087Z"/>
</svg>
