<svg width="71" height="70" viewBox="0 0 71 70" fill="#A9ABBA" stroke="#A9ABBA" xmlns="http://www.w3.org/2000/svg">
<circle cx="35.3395" cy="34.9235" r="34.421" fill="white" />
<path d="M28.6347 41.5276C28.6874 41.5276 28.7401 41.5221 28.7929 41.5139L33.2278 40.7022C33.2806 40.6912 33.3307 40.6665 33.3676 40.6252L44.5446 28.9622C44.5691 28.9367 44.5885 28.9065 44.6017 28.8732C44.6149 28.8399 44.6217 28.8042 44.6217 28.7682C44.6217 28.7322 44.6149 28.6965 44.6017 28.6632C44.5885 28.6299 44.5691 28.5997 44.5446 28.5742L40.1624 23.9987C40.1123 23.9465 40.0464 23.9189 39.9752 23.9189C39.904 23.9189 39.8381 23.9465 39.788 23.9987L28.6109 35.6617C28.5714 35.703 28.5477 35.7525 28.5371 35.8076L27.7593 40.4354C27.7336 40.5827 27.7428 40.7344 27.786 40.8773C27.8292 41.0202 27.9051 41.1499 28.0071 41.2553C28.1812 41.4313 28.4 41.5276 28.6347 41.5276ZM30.4118 36.7293L39.9752 26.7528L41.9079 28.7696L32.3445 38.746L30.0005 39.178L30.4118 36.7293ZM45.043 43.8388H25.6367C25.17 43.8388 24.793 44.2322 24.793 44.7192V45.7097C24.793 45.8308 24.8879 45.9298 25.0039 45.9298H45.6758C45.7918 45.9298 45.8867 45.8308 45.8867 45.7097V44.7192C45.8867 44.2322 45.5097 43.8388 45.043 43.8388Z" stroke='none' />
</svg>
