<svg width="18" height="17" viewBox="0 0 18 17" fill="none" stroke="#A9ABBA" xmlns="http://www.w3.org/2000/svg">
<path d="M1.46143 4.15459C1.46143 3.3485 1.78164 2.57543 2.35163 2.00544C2.92162 1.43545 3.69469 1.11523 4.50078 1.11523H13.6188C14.4249 1.11523 15.198 1.43545 15.768 2.00544C16.338 2.57543 16.6582 3.3485 16.6582 4.15459V13.2727C16.6582 14.0787 16.338 14.8518 15.768 15.4218C15.198 15.9918 14.4249 16.312 13.6188 16.312H4.50078C3.69469 16.312 2.92162 15.9918 2.35163 15.4218C1.78164 14.8518 1.46143 14.0787 1.46143 13.2727V4.15459Z"  stroke-width="1.2" stroke-linecap="round" stroke-linejoin="round"/>
<path d="M6.40009 7.95361C7.4492 7.95361 8.29968 7.10313 8.29968 6.05402C8.29968 5.0049 7.4492 4.15442 6.40009 4.15442C5.35097 4.15442 4.50049 5.0049 4.50049 6.05402C4.50049 7.10313 5.35097 7.95361 6.40009 7.95361Z"  stroke-width="1.2" stroke-linecap="round" stroke-linejoin="round"/>
<path d="M10.9789 9.18542L4.50049 16.312H13.7196C14.4989 16.312 15.2463 16.0024 15.7973 15.4513C16.3483 14.9003 16.6579 14.1529 16.6579 13.3737V13.2726C16.6579 12.9185 16.5249 12.7825 16.2856 12.5204L13.2234 9.18086C13.0807 9.02519 12.9071 8.90096 12.7137 8.81612C12.5203 8.73128 12.3113 8.68768 12.1002 8.68811C11.889 8.68854 11.6802 8.73299 11.4871 8.81861C11.294 8.90424 11.121 9.02917 10.9789 9.18542V9.18542Z"  stroke-width="1.2" stroke-linecap="round" stroke-linejoin="round"/>
</svg>
