<svg width="21" height="19" viewBox="0 0 21 19" fill="#A9ABBA" xmlns="http://www.w3.org/2000/svg">
<path d="M18.0957 3.56299H6.68945C6.60352 3.56299 6.5332 3.62979 6.5332 3.71143V4.75049C6.5332 4.83213 6.60352 4.89893 6.68945 4.89893H18.0957C18.1816 4.89893 18.252 4.83213 18.252 4.75049V3.71143C18.252 3.62979 18.1816 3.56299 18.0957 3.56299ZM18.0957 8.83252H6.68945C6.60352 8.83252 6.5332 8.89932 6.5332 8.98096V10.02C6.5332 10.1017 6.60352 10.1685 6.68945 10.1685H18.0957C18.1816 10.1685 18.252 10.1017 18.252 10.02V8.98096C18.252 8.89932 18.1816 8.83252 18.0957 8.83252ZM18.0957 14.1021H6.68945C6.60352 14.1021 6.5332 14.1688 6.5332 14.2505V15.2896C6.5332 15.3712 6.60352 15.438 6.68945 15.438H18.0957C18.1816 15.438 18.252 15.3712 18.252 15.2896V14.2505C18.252 14.1688 18.1816 14.1021 18.0957 14.1021ZM2.31445 4.23096C2.31445 4.36741 2.34274 4.50252 2.39771 4.62859C2.45268 4.75465 2.53324 4.8692 2.63481 4.96569C2.73637 5.06217 2.85694 5.13871 2.98964 5.19093C3.12234 5.24314 3.26457 5.27002 3.4082 5.27002C3.55184 5.27002 3.69406 5.24314 3.82676 5.19093C3.95946 5.13871 4.08004 5.06217 4.1816 4.96569C4.28317 4.8692 4.36373 4.75465 4.4187 4.62859C4.47366 4.50252 4.50195 4.36741 4.50195 4.23096C4.50195 4.09451 4.47366 3.95939 4.4187 3.83333C4.36373 3.70726 4.28317 3.59271 4.1816 3.49623C4.08004 3.39974 3.95946 3.32321 3.82676 3.27099C3.69406 3.21877 3.55184 3.19189 3.4082 3.19189C3.26457 3.19189 3.12234 3.21877 2.98964 3.27099C2.85694 3.32321 2.73637 3.39974 2.63481 3.49623C2.53324 3.59271 2.45268 3.70726 2.39771 3.83333C2.34274 3.95939 2.31445 4.09451 2.31445 4.23096ZM2.31445 9.50049C2.31445 9.63694 2.34274 9.77206 2.39771 9.89812C2.45268 10.0242 2.53324 10.1387 2.63481 10.2352C2.73637 10.3317 2.85694 10.4082 2.98964 10.4605C3.12234 10.5127 3.26457 10.5396 3.4082 10.5396C3.55184 10.5396 3.69406 10.5127 3.82676 10.4605C3.95946 10.4082 4.08004 10.3317 4.1816 10.2352C4.28317 10.1387 4.36373 10.0242 4.4187 9.89812C4.47366 9.77206 4.50195 9.63694 4.50195 9.50049C4.50195 9.36404 4.47366 9.22892 4.4187 9.10286C4.36373 8.97679 4.28317 8.86225 4.1816 8.76576C4.08004 8.66927 3.95946 8.59274 3.82676 8.54052C3.69406 8.4883 3.55184 8.46143 3.4082 8.46143C3.26457 8.46143 3.12234 8.4883 2.98964 8.54052C2.85694 8.59274 2.73637 8.66927 2.63481 8.76576C2.53324 8.86225 2.45268 8.97679 2.39771 9.10286C2.34274 9.22892 2.31445 9.36404 2.31445 9.50049ZM2.31445 14.77C2.31445 14.9065 2.34274 15.0416 2.39771 15.1677C2.45268 15.2937 2.53324 15.4083 2.63481 15.5047C2.73637 15.6012 2.85694 15.6778 2.98964 15.73C3.12234 15.7822 3.26457 15.8091 3.4082 15.8091C3.55184 15.8091 3.69406 15.7822 3.82676 15.73C3.95946 15.6778 4.08004 15.6012 4.1816 15.5047C4.28317 15.4083 4.36373 15.2937 4.4187 15.1677C4.47366 15.0416 4.50195 14.9065 4.50195 14.77C4.50195 14.6336 4.47366 14.4985 4.4187 14.3724C4.36373 14.2463 4.28317 14.1318 4.1816 14.0353C4.08004 13.9388 3.95946 13.8623 3.82676 13.8101C3.69406 13.7578 3.55184 13.731 3.4082 13.731C3.26457 13.731 3.12234 13.7578 2.98964 13.8101C2.85694 13.8623 2.73637 13.9388 2.63481 14.0353C2.53324 14.1318 2.45268 14.2463 2.39771 14.3724C2.34274 14.4985 2.31445 14.6336 2.31445 14.77Z" />
</svg>
