<svg width="71" height="70" viewBox="0 0 71 70" fill="#A9ABBA" stroke="#A9ABBA" xmlns="http://www.w3.org/2000/svg">
<circle cx="35.5255" cy="34.9235" r="34.421" fill="white" />
<g clip-path="url(#clip0_3_3812)">
<path d="M49.0254 34.9233C49.0254 34.9233 43.9629 25.6421 35.5254 25.6421C27.0879 25.6421 22.0254 34.9233 22.0254 34.9233C22.0254 34.9233 27.0879 44.2046 35.5254 44.2046C43.9629 44.2046 49.0254 34.9233 49.0254 34.9233ZM24.0048 34.9233C24.8208 33.6832 25.7592 32.5282 26.8061 31.4758C28.9779 29.3006 31.9479 27.3296 35.5254 27.3296C39.1029 27.3296 42.0712 29.3006 44.2464 31.4758C45.2932 32.5282 46.2317 33.6832 47.0476 34.9233C46.9498 35.0702 46.8418 35.2322 46.7186 35.4093C46.1533 36.2193 45.318 37.2993 44.2464 38.3709C42.0712 40.5461 39.1012 42.5171 35.5254 42.5171C31.9479 42.5171 28.9796 40.5461 26.8044 38.3709C25.7575 37.3184 24.8191 36.1634 24.0031 34.9233H24.0048Z" stroke="#A9ABBA" stroke-width="0.2"/>
<path d="M35.5254 30.7046C34.4065 30.7046 33.3335 31.1491 32.5423 31.9402C31.7511 32.7314 31.3066 33.8045 31.3066 34.9233C31.3066 36.0422 31.7511 37.1153 32.5423 37.9064C33.3335 38.6976 34.4065 39.1421 35.5254 39.1421C36.6443 39.1421 37.7173 38.6976 38.5085 37.9064C39.2997 37.1153 39.7441 36.0422 39.7441 34.9233C39.7441 33.8045 39.2997 32.7314 38.5085 31.9402C37.7173 31.1491 36.6443 30.7046 35.5254 30.7046ZM29.6191 34.9233C29.6191 33.3569 30.2414 31.8546 31.349 30.747C32.4567 29.6394 33.959 29.0171 35.5254 29.0171C37.0918 29.0171 38.5941 29.6394 39.7017 30.747C40.8094 31.8546 41.4316 33.3569 41.4316 34.9233C41.4316 36.4898 40.8094 37.9921 39.7017 39.0997C38.5941 40.2073 37.0918 40.8296 35.5254 40.8296C33.959 40.8296 32.4567 40.2073 31.349 39.0997C30.2414 37.9921 29.6191 36.4898 29.6191 34.9233Z"  stroke="#A9ABBA" stroke-width="0.2"/>
</g>
<defs>
<clipPath id="clip0_3_3812">
<rect width="27" height="27" fill="white" transform="translate(22.0254 21.4233)"/>
</clipPath>
</defs>
</svg>
