<svg width="24" height="23" viewBox="0 0 24 23" fill="#A9ABBA" xmlns="http://www.w3.org/2000/svg">
<path d="M19.8636 15.9349V7.4924C20.356 7.37305 20.8066 7.13102 21.1695 6.79097C21.5323 6.45091 21.7945 6.02496 21.9293 5.55649C22.0641 5.08801 22.0668 4.59373 21.937 4.12396C21.8072 3.65419 21.5495 3.2257 21.1903 2.88212C20.8311 2.53853 20.3832 2.29212 19.892 2.16796C19.4009 2.04379 18.8842 2.04632 18.3944 2.17527C17.9046 2.30423 17.4593 2.55501 17.1038 2.90208C16.7483 3.24916 16.4953 3.68014 16.3705 4.15115H7.54424C7.41946 3.68014 7.16643 3.24916 6.81092 2.90208C6.4554 2.55501 6.0101 2.30423 5.52032 2.17527C5.03055 2.04632 4.5138 2.04379 4.02268 2.16796C3.53156 2.29212 3.08359 2.53853 2.72439 2.88212C2.36519 3.2257 2.10757 3.65419 1.97777 4.12396C1.84796 4.59373 1.8506 5.08801 1.98542 5.55649C2.12024 6.02496 2.38241 6.45091 2.74527 6.79097C3.10812 7.13102 3.55869 7.37305 4.05111 7.4924V15.9349C3.55869 16.0543 3.10812 16.2963 2.74527 16.6363C2.38241 16.9764 2.12024 17.4023 1.98542 17.8708C1.8506 18.3393 1.84796 18.8336 1.97777 19.3034C2.10757 19.7731 2.36519 20.2016 2.72439 20.5452C3.08359 20.8888 3.53156 21.1352 4.02268 21.2594C4.5138 21.3835 5.03055 21.381 5.52032 21.252C6.0101 21.1231 6.4554 20.8723 6.81092 20.5252C7.16643 20.1782 7.41946 19.7472 7.54424 19.2762H16.3705C16.4953 19.7472 16.7483 20.1782 17.1038 20.5252C17.4593 20.8723 17.9046 21.1231 18.3944 21.252C18.8842 21.381 19.4009 21.3835 19.892 21.2594C20.3832 21.1352 20.8311 20.8888 21.1903 20.5452C21.5495 20.2016 21.8072 19.7731 21.937 19.3034C22.0668 18.8336 22.0641 18.3393 21.9293 17.8708C21.7945 17.4023 21.5323 16.9764 21.1695 16.6363C20.8066 16.2963 20.356 16.0543 19.8636 15.9349ZM19.1449 3.46365C19.4292 3.46365 19.7071 3.5443 19.9435 3.69538C20.1799 3.84647 20.3641 4.06122 20.4729 4.31246C20.5817 4.56371 20.6102 4.84018 20.5547 5.1069C20.4993 5.37363 20.3624 5.61863 20.1613 5.81093C19.9603 6.00322 19.7042 6.13418 19.4253 6.18723C19.1465 6.24029 18.8574 6.21306 18.5948 6.10899C18.3321 6.00492 18.1076 5.82868 17.9496 5.60256C17.7917 5.37645 17.7074 5.1106 17.7074 4.83865C17.7074 4.47398 17.8588 4.12424 18.1284 3.86638C18.398 3.60852 18.7636 3.46365 19.1449 3.46365ZM3.33236 4.83865C3.33236 4.5667 3.41667 4.30086 3.57463 4.07475C3.73258 3.84863 3.95709 3.67239 4.21976 3.56832C4.48242 3.46425 4.77146 3.43702 5.05031 3.49007C5.32915 3.54313 5.58529 3.67409 5.78633 3.86638C5.98737 4.05868 6.12428 4.30368 6.17974 4.57041C6.23521 4.83713 6.20674 5.1136 6.09794 5.36484C5.98914 5.61609 5.80489 5.83084 5.5685 5.98193C5.3321 6.13301 5.05417 6.21365 4.76986 6.21365C4.38861 6.21365 4.02298 6.06879 3.7534 5.81093C3.48381 5.55306 3.33236 5.20333 3.33236 4.83865ZM4.76986 19.9637C4.48555 19.9637 4.20763 19.883 3.97123 19.7319C3.73484 19.5808 3.55059 19.3661 3.44179 19.1148C3.33299 18.8636 3.30452 18.5871 3.35998 18.3204C3.41545 18.0537 3.55236 17.8087 3.7534 17.6164C3.95444 17.4241 4.21057 17.2931 4.48942 17.2401C4.76827 17.187 5.0573 17.2142 5.31997 17.3183C5.58264 17.4224 5.80715 17.5986 5.9651 17.8247C6.12305 18.0509 6.20736 18.3167 6.20736 18.5887C6.20736 18.9533 6.05591 19.3031 5.78633 19.5609C5.51675 19.8188 5.15111 19.9637 4.76986 19.9637ZM16.3705 17.9012H7.54424C7.41518 17.4283 7.15669 16.9968 6.79539 16.6512C6.43408 16.3056 5.98301 16.0584 5.48861 15.9349V7.4924C5.98301 7.36896 6.43408 7.12171 6.79539 6.77611C7.15669 6.43051 7.41518 5.99906 7.54424 5.52615H16.3705C16.4995 5.99906 16.758 6.43051 17.1193 6.77611C17.4806 7.12171 17.9317 7.36896 18.4261 7.4924V15.9349C17.9317 16.0584 17.4806 16.3056 17.1193 16.6512C16.758 16.9968 16.4995 17.4283 16.3705 17.9012ZM19.1449 19.9637C18.8606 19.9637 18.5826 19.883 18.3462 19.7319C18.1098 19.5808 17.9256 19.3661 17.8168 19.1148C17.708 18.8636 17.6795 18.5871 17.735 18.3204C17.7905 18.0537 17.9274 17.8087 18.1284 17.6164C18.3294 17.4241 18.5856 17.2931 18.8644 17.2401C19.1433 17.187 19.4323 17.2142 19.695 17.3183C19.9576 17.4224 20.1821 17.5986 20.3401 17.8247C20.4981 18.0509 20.5824 18.3167 20.5824 18.5887C20.5824 18.9533 20.4309 19.3031 20.1613 19.5609C19.8917 19.8188 19.5261 19.9637 19.1449 19.9637Z" />
<path d="M15.5508 8.27588H8.36328V9.65088H11.2383V15.8384H12.6758V9.65088H15.5508V8.27588Z" />
</svg>
