<svg width="18" height="17" viewBox="0 0 18 17" fill="#F5F7FB" xmlns="http://www.w3.org/2000/svg">
<path d="M11.3117 7.55954C10.6266 7.55954 9.95685 7.36068 9.38717 6.98811C8.81749 6.61554 8.37348 6.08599 8.11129 5.46643C7.84909 4.84686 7.78049 4.16511 7.91416 3.50738C8.04782 2.84966 8.37775 2.2455 8.86222 1.7713C9.34669 1.29711 9.96395 0.97418 10.6359 0.843351C11.3079 0.712521 12.0044 0.779667 12.6374 1.0363C13.2704 1.29293 13.8114 1.72752 14.1921 2.28512C14.5727 2.84271 14.7759 3.49826 14.7759 4.16887C14.7759 5.06813 14.4109 5.93057 13.7613 6.56644C13.1116 7.20231 12.2305 7.55954 11.3117 7.55954ZM11.3117 2.47354C10.9692 2.47354 10.6343 2.57297 10.3495 2.75925C10.0646 2.94554 9.84262 3.21031 9.71152 3.52009C9.58042 3.82988 9.54612 4.17075 9.61295 4.49962C9.67979 4.82848 9.84475 5.13056 10.087 5.36766C10.3292 5.60475 10.6378 5.76622 10.9738 5.83163C11.3098 5.89705 11.6581 5.86347 11.9746 5.73516C12.2911 5.60684 12.5616 5.38955 12.7519 5.11075C12.9422 4.83195 13.0438 4.50418 13.0438 4.16887C13.0438 3.71924 12.8613 3.28803 12.5365 2.97009C12.2117 2.65215 11.7711 2.47354 11.3117 2.47354ZM4.38344 9.25488C3.86958 9.25488 3.36726 9.10574 2.94 8.82631C2.51274 8.54688 2.17973 8.14971 1.98309 7.68504C1.78644 7.22037 1.73499 6.70906 1.83524 6.21576C1.93549 5.72247 2.18294 5.26935 2.54629 4.9137C2.90964 4.55806 3.37258 4.31586 3.87657 4.21774C4.38055 4.11961 4.90295 4.16997 5.37769 4.36245C5.85244 4.55492 6.25821 4.88086 6.54369 5.29906C6.82918 5.71725 6.98155 6.20892 6.98155 6.71188C6.98155 7.38632 6.70782 8.03315 6.22058 8.51005C5.73334 8.98696 5.0725 9.25488 4.38344 9.25488ZM4.38344 5.86421C4.21215 5.86421 4.04471 5.91392 3.90229 6.00707C3.75987 6.10021 3.64887 6.2326 3.58332 6.38749C3.51777 6.54238 3.50062 6.71282 3.53404 6.87725C3.56745 7.04168 3.64994 7.19272 3.77105 7.31127C3.89217 7.42982 4.04648 7.51055 4.21448 7.54326C4.38248 7.57596 4.55661 7.55918 4.71486 7.49502C4.8731 7.43086 5.00836 7.32221 5.10352 7.18282C5.19868 7.04342 5.24948 6.87953 5.24948 6.71188C5.24948 6.48706 5.15823 6.27145 4.99582 6.11248C4.83341 5.95352 4.61312 5.86421 4.38344 5.86421ZM4.38344 10.1025C5.34316 10.1036 6.27534 10.4167 7.03352 10.9926C7.88179 10.1656 8.96127 9.60293 10.1358 9.37561C11.3104 9.14829 12.5274 9.26648 13.6334 9.71528C14.7394 10.1641 15.6849 10.9234 16.3506 11.8974C17.0163 12.8715 17.3724 14.0167 17.374 15.1886C17.374 15.4134 17.2828 15.629 17.1204 15.7879C16.958 15.9469 16.7377 16.0362 16.508 16.0362C16.2783 16.0362 16.058 15.9469 15.8956 15.7879C15.7332 15.629 15.6419 15.4134 15.6419 15.1886C15.6419 14.0645 15.1857 12.9864 14.3737 12.1916C13.5616 11.3968 12.4602 10.9502 11.3117 10.9502C10.1633 10.9502 9.06191 11.3968 8.24984 12.1916C7.43777 12.9864 6.98155 14.0645 6.98155 15.1886C6.98155 15.4134 6.89031 15.629 6.7279 15.7879C6.56548 15.9469 6.3452 16.0362 6.11551 16.0362C5.88583 16.0362 5.66555 15.9469 5.50313 15.7879C5.34072 15.629 5.24948 15.4134 5.24948 15.1886C5.24741 14.1955 5.50373 13.2182 5.99427 12.3489C5.61155 12.0529 5.15141 11.8683 4.66652 11.8162C4.18163 11.7642 3.69157 11.8469 3.25243 12.0547C2.81328 12.2625 2.44278 12.5872 2.18332 12.9915C1.92387 13.3958 1.78594 13.8634 1.78532 14.3409C1.78532 14.5657 1.69408 14.7813 1.53166 14.9403C1.36925 15.0992 1.14897 15.1886 0.919281 15.1886C0.689592 15.1886 0.469311 15.0992 0.306898 14.9403C0.144484 14.7813 0.0532417 14.5657 0.0532417 14.3409C0.0532417 13.2168 0.509457 12.1388 1.32153 11.3439C2.1336 10.5491 3.235 10.1025 4.38344 10.1025Z" />
</svg>
