<svg width="142" height="62" viewBox="0 0 142 62" fill="none" xmlns="http://www.w3.org/2000/svg">
<path d="M1.00001 39.13L14.905 7.63H23.68L37.63 39.13H28.36L17.47 11.995H20.98L10.09 39.13H1.00001ZM8.60501 33.01L10.9 26.44H26.29L28.585 33.01H8.60501Z" fill="#3A78F2"/>
<path d="M41.2399 39.13V7.63H50.0149V26.125L63.0199 7.63H71.3899V39.13H62.6149V20.68L49.6549 39.13H41.2399Z" fill="#3A78F2"/>
<path d="M93.4989 39.76C91.0089 39.76 88.6989 39.37 86.5689 38.59C84.4689 37.78 82.6389 36.64 81.0789 35.17C79.5489 33.7 78.3489 31.975 77.4789 29.995C76.6089 27.985 76.1739 25.78 76.1739 23.38C76.1739 20.98 76.6089 18.79 77.4789 16.81C78.3489 14.8 79.5489 13.06 81.0789 11.59C82.6389 10.12 84.4689 8.995 86.5689 8.215C88.6989 7.405 91.0089 7 93.4989 7C96.4089 7 99.0039 7.51 101.284 8.53C103.594 9.55 105.514 11.02 107.044 12.94L101.374 18.07C100.354 16.87 99.2289 15.955 97.9989 15.325C96.7989 14.695 95.4489 14.38 93.9489 14.38C92.6589 14.38 91.4739 14.59 90.3939 15.01C89.3139 15.43 88.3839 16.045 87.6039 16.855C86.8539 17.635 86.2539 18.58 85.8039 19.69C85.3839 20.8 85.1739 22.03 85.1739 23.38C85.1739 24.73 85.3839 25.96 85.8039 27.07C86.2539 28.18 86.8539 29.14 87.6039 29.95C88.3839 30.73 89.3139 31.33 90.3939 31.75C91.4739 32.17 92.6589 32.38 93.9489 32.38C95.4489 32.38 96.7989 32.065 97.9989 31.435C99.2289 30.805 100.354 29.89 101.374 28.69L107.044 33.82C105.514 35.71 103.594 37.18 101.284 38.23C99.0039 39.25 96.4089 39.76 93.4989 39.76Z" fill="#3A78F2"/>
<path fill-rule="evenodd" clip-rule="evenodd" d="M120.54 9.38196H118.95V6.64569L115.77 7.42742V9.38196H114.18C114.18 7.29699 114.18 5.21218 114.18 3.12738H115.77V5.86365L118.95 5.08176V3.12738H120.54C120.54 5.21218 120.54 7.29699 120.54 9.38196ZM117.36 12.509C119.116 12.509 120.706 11.8088 121.857 10.677C123.008 9.54515 123.72 7.98155 123.72 6.25459C123.72 4.52763 123.008 2.96403 121.857 1.83204C120.706 0.700209 119.116 0 117.36 0C115.604 0 114.014 0.700209 112.863 1.83204C111.712 2.96403 111 4.52763 111 6.25459C111 7.98155 111.712 9.54515 112.863 10.677C114.014 11.8088 115.604 12.509 117.36 12.509ZM112.59 6.25459C112.59 3.66375 114.726 1.56361 117.36 1.56361C119.994 1.56361 122.13 3.66375 122.13 6.25459C122.13 8.84527 119.994 10.9456 117.36 10.9456C114.726 10.9456 112.59 8.84527 112.59 6.25459Z" fill="#3A78F2"/>
<path d="M4.25001 60.06C3.72334 60.06 3.23334 59.9733 2.78001 59.8C2.33334 59.62 1.94334 59.37 1.61001 59.05C1.28334 58.7233 1.02667 58.3467 0.840007 57.92C0.660007 57.4867 0.570007 57.0133 0.570007 56.5C0.570007 55.9867 0.660007 55.5167 0.840007 55.09C1.02667 54.6567 1.28334 54.28 1.61001 53.96C1.94334 53.6333 2.33334 53.3833 2.78001 53.21C3.22667 53.03 3.71667 52.94 4.25001 52.94C4.77667 52.94 5.26334 53.03 5.71001 53.21C6.15667 53.3833 6.54334 53.63 6.87001 53.95C7.20334 54.27 7.46001 54.6467 7.64001 55.08C7.82667 55.5133 7.92001 55.9867 7.92001 56.5C7.92001 57.0133 7.82667 57.4867 7.64001 57.92C7.46001 58.3533 7.20334 58.73 6.87001 59.05C6.54334 59.37 6.15667 59.62 5.71001 59.8C5.26334 59.9733 4.77667 60.06 4.25001 60.06ZM4.25001 59.4C4.67001 59.4 5.05667 59.33 5.41001 59.19C5.77001 59.0433 6.08001 58.84 6.34001 58.58C6.60667 58.3133 6.81334 58.0067 6.96001 57.66C7.10667 57.3067 7.18001 56.92 7.18001 56.5C7.18001 56.08 7.10667 55.6967 6.96001 55.35C6.81334 54.9967 6.60667 54.69 6.34001 54.43C6.08001 54.1633 5.77001 53.96 5.41001 53.82C5.05667 53.6733 4.67001 53.6 4.25001 53.6C3.83001 53.6 3.44001 53.6733 3.08001 53.82C2.72001 53.96 2.40667 54.1633 2.14001 54.43C1.88001 54.69 1.67334 54.9967 1.52001 55.35C1.37334 55.6967 1.30001 56.08 1.30001 56.5C1.30001 56.9133 1.37334 57.2967 1.52001 57.65C1.67334 58.0033 1.88001 58.3133 2.14001 58.58C2.40667 58.84 2.72001 59.0433 3.08001 59.19C3.44001 59.33 3.83001 59.4 4.25001 59.4Z" fill="#3A78F2"/>
<path d="M14.4759 60L11.7859 56.51L12.3859 56.15L15.3259 60H14.4759ZM9.68587 60V53H10.4059V60H9.68587ZM10.1859 56.79V56.14H12.3759V56.79H10.1859ZM12.4459 56.58L11.7659 56.46L14.3759 53H15.1759L12.4459 56.58Z" fill="#3A78F2"/>
<path d="M19.5234 60.06C18.9968 60.06 18.5068 59.9733 18.0534 59.8C17.6068 59.62 17.2168 59.37 16.8834 59.05C16.5568 58.7233 16.3001 58.3467 16.1134 57.92C15.9334 57.4867 15.8434 57.0133 15.8434 56.5C15.8434 55.9867 15.9334 55.5167 16.1134 55.09C16.3001 54.6567 16.5568 54.28 16.8834 53.96C17.2168 53.6333 17.6068 53.3833 18.0534 53.21C18.5001 53.03 18.9901 52.94 19.5234 52.94C20.0501 52.94 20.5368 53.03 20.9834 53.21C21.4301 53.3833 21.8168 53.63 22.1434 53.95C22.4768 54.27 22.7334 54.6467 22.9134 55.08C23.1001 55.5133 23.1934 55.9867 23.1934 56.5C23.1934 57.0133 23.1001 57.4867 22.9134 57.92C22.7334 58.3533 22.4768 58.73 22.1434 59.05C21.8168 59.37 21.4301 59.62 20.9834 59.8C20.5368 59.9733 20.0501 60.06 19.5234 60.06ZM19.5234 59.4C19.9434 59.4 20.3301 59.33 20.6834 59.19C21.0434 59.0433 21.3534 58.84 21.6134 58.58C21.8801 58.3133 22.0868 58.0067 22.2334 57.66C22.3801 57.3067 22.4534 56.92 22.4534 56.5C22.4534 56.08 22.3801 55.6967 22.2334 55.35C22.0868 54.9967 21.8801 54.69 21.6134 54.43C21.3534 54.1633 21.0434 53.96 20.6834 53.82C20.3301 53.6733 19.9434 53.6 19.5234 53.6C19.1034 53.6 18.7134 53.6733 18.3534 53.82C17.9934 53.96 17.6801 54.1633 17.4134 54.43C17.1534 54.69 16.9468 54.9967 16.7934 55.35C16.6468 55.6967 16.5734 56.08 16.5734 56.5C16.5734 56.9133 16.6468 57.2967 16.7934 57.65C16.9468 58.0033 17.1534 58.3133 17.4134 58.58C17.6801 58.84 17.9934 59.0433 18.3534 59.19C18.7134 59.33 19.1034 59.4 19.5234 59.4Z" fill="#3A78F2"/>
<path d="M27.4065 60V54.75H31.1265V55.37H27.9365L28.1165 55.19V60H27.4065Z" fill="#3A78F2"/>
<path d="M34.0684 60.05C33.5618 60.05 33.1051 59.9367 32.6984 59.71C32.2984 59.4767 31.9818 59.16 31.7484 58.76C31.5151 58.3533 31.3984 57.89 31.3984 57.37C31.3984 56.8433 31.5151 56.38 31.7484 55.98C31.9818 55.58 32.2984 55.2667 32.6984 55.04C33.0984 54.8133 33.5551 54.7 34.0684 54.7C34.5884 54.7 35.0484 54.8133 35.4484 55.04C35.8551 55.2667 36.1718 55.58 36.3984 55.98C36.6318 56.38 36.7484 56.8433 36.7484 57.37C36.7484 57.89 36.6318 58.3533 36.3984 58.76C36.1718 59.16 35.8551 59.4767 35.4484 59.71C35.0418 59.9367 34.5818 60.05 34.0684 60.05ZM34.0684 59.42C34.4484 59.42 34.7851 59.3367 35.0784 59.17C35.3718 58.9967 35.6018 58.7567 35.7684 58.45C35.9418 58.1367 36.0284 57.7767 36.0284 57.37C36.0284 56.9567 35.9418 56.5967 35.7684 56.29C35.6018 55.9833 35.3718 55.7467 35.0784 55.58C34.7851 55.4067 34.4518 55.32 34.0784 55.32C33.7051 55.32 33.3718 55.4067 33.0784 55.58C32.7851 55.7467 32.5518 55.9833 32.3784 56.29C32.2051 56.5967 32.1184 56.9567 32.1184 57.37C32.1184 57.7767 32.2051 58.1367 32.3784 58.45C32.5518 58.7567 32.7851 58.9967 33.0784 59.17C33.3718 59.3367 33.7018 59.42 34.0684 59.42Z" fill="#3A78F2"/>
<path d="M40.9759 60.05C40.5225 60.05 40.1125 59.9467 39.7459 59.74C39.3792 59.5267 39.0859 59.2233 38.8659 58.83C38.6525 58.43 38.5459 57.9433 38.5459 57.37C38.5459 56.7967 38.6525 56.3133 38.8659 55.92C39.0792 55.52 39.3692 55.2167 39.7359 55.01C40.1025 54.8033 40.5159 54.7 40.9759 54.7C41.4759 54.7 41.9225 54.8133 42.3159 55.04C42.7159 55.26 43.0292 55.5733 43.2559 55.98C43.4825 56.38 43.5959 56.8433 43.5959 57.37C43.5959 57.9033 43.4825 58.37 43.2559 58.77C43.0292 59.17 42.7159 59.4833 42.3159 59.71C41.9225 59.9367 41.4759 60.05 40.9759 60.05ZM38.2659 61.94V54.75H38.9459V56.33L38.8759 57.38L38.9759 58.44V61.94H38.2659ZM40.9259 59.42C41.2992 59.42 41.6325 59.3367 41.9259 59.17C42.2192 58.9967 42.4525 58.7567 42.6259 58.45C42.7992 58.1367 42.8859 57.7767 42.8859 57.37C42.8859 56.9633 42.7992 56.6067 42.6259 56.3C42.4525 55.9933 42.2192 55.7533 41.9259 55.58C41.6325 55.4067 41.2992 55.32 40.9259 55.32C40.5525 55.32 40.2159 55.4067 39.9159 55.58C39.6225 55.7533 39.3892 55.9933 39.2159 56.3C39.0492 56.6067 38.9659 56.9633 38.9659 57.37C38.9659 57.7767 39.0492 58.1367 39.2159 58.45C39.3892 58.7567 39.6225 58.9967 39.9159 59.17C40.2159 59.3367 40.5525 59.42 40.9259 59.42Z" fill="#3A78F2"/>
<path d="M47.2813 60.05C46.7747 60.05 46.318 59.9367 45.9113 59.71C45.5113 59.4767 45.1947 59.16 44.9613 58.76C44.728 58.3533 44.6113 57.89 44.6113 57.37C44.6113 56.8433 44.728 56.38 44.9613 55.98C45.1947 55.58 45.5113 55.2667 45.9113 55.04C46.3113 54.8133 46.768 54.7 47.2813 54.7C47.8013 54.7 48.2613 54.8133 48.6613 55.04C49.068 55.2667 49.3847 55.58 49.6113 55.98C49.8447 56.38 49.9613 56.8433 49.9613 57.37C49.9613 57.89 49.8447 58.3533 49.6113 58.76C49.3847 59.16 49.068 59.4767 48.6613 59.71C48.2547 59.9367 47.7947 60.05 47.2813 60.05ZM47.2813 59.42C47.6613 59.42 47.998 59.3367 48.2913 59.17C48.5847 58.9967 48.8147 58.7567 48.9813 58.45C49.1547 58.1367 49.2413 57.7767 49.2413 57.37C49.2413 56.9567 49.1547 56.5967 48.9813 56.29C48.8147 55.9833 48.5847 55.7467 48.2913 55.58C47.998 55.4067 47.6647 55.32 47.2913 55.32C46.918 55.32 46.5847 55.4067 46.2913 55.58C45.998 55.7467 45.7647 55.9833 45.5913 56.29C45.418 56.5967 45.3313 56.9567 45.3313 57.37C45.3313 57.7767 45.418 58.1367 45.5913 58.45C45.7647 58.7567 45.998 58.9967 46.2913 59.17C46.5847 59.3367 46.9147 59.42 47.2813 59.42Z" fill="#3A78F2"/>
<path d="M55.0495 59.66V55.37H52.5195L52.4595 56.54C52.4461 56.8933 52.4228 57.24 52.3895 57.58C52.3628 57.92 52.3128 58.2333 52.2395 58.52C52.1728 58.8 52.0761 59.03 51.9495 59.21C51.8228 59.3833 51.6595 59.4833 51.4595 59.51L50.7495 59.38C50.9561 59.3867 51.1261 59.3133 51.2595 59.16C51.3928 59 51.4961 58.7833 51.5695 58.51C51.6428 58.2367 51.6961 57.9267 51.7295 57.58C51.7628 57.2267 51.7895 56.8667 51.8095 56.5L51.8795 54.75H55.7595V59.66H55.0495ZM50.5295 61.27V59.38H56.5795V61.27H55.9095V60H51.1995V61.27H50.5295Z" fill="#3A78F2"/>
<path d="M61.2231 60V58.84L61.1931 58.65V56.71C61.1931 56.2633 61.0665 55.92 60.8131 55.68C60.5665 55.44 60.1965 55.32 59.7031 55.32C59.3631 55.32 59.0398 55.3767 58.7331 55.49C58.4265 55.6033 58.1665 55.7533 57.9531 55.94L57.6331 55.41C57.8998 55.1833 58.2198 55.01 58.5931 54.89C58.9665 54.7633 59.3598 54.7 59.7731 54.7C60.4531 54.7 60.9765 54.87 61.3431 55.21C61.7165 55.5433 61.9031 56.0533 61.9031 56.74V60H61.2231ZM59.4131 60.05C59.0198 60.05 58.6765 59.9867 58.3831 59.86C58.0965 59.7267 57.8765 59.5467 57.7231 59.32C57.5698 59.0867 57.4931 58.82 57.4931 58.52C57.4931 58.2467 57.5565 58 57.6831 57.78C57.8165 57.5533 58.0298 57.3733 58.3231 57.24C58.6231 57.1 59.0231 57.03 59.5231 57.03H61.3331V57.56H59.5431C59.0365 57.56 58.6831 57.65 58.4831 57.83C58.2898 58.01 58.1931 58.2333 58.1931 58.5C58.1931 58.8 58.3098 59.04 58.5431 59.22C58.7765 59.4 59.1031 59.49 59.5231 59.49C59.9231 59.49 60.2665 59.4 60.5531 59.22C60.8465 59.0333 61.0598 58.7667 61.1931 58.42L61.3531 58.91C61.2198 59.2567 60.9865 59.5333 60.6531 59.74C60.3265 59.9467 59.9131 60.05 59.4131 60.05Z" fill="#3A78F2"/>
<path d="M71.7004 53H72.4304V60H71.7004V53ZM67.3204 60H66.5804V53H67.3204V60ZM71.7704 56.77H67.2404V56.12H71.7704V56.77Z" fill="#3A78F2"/>
<path d="M76.7833 60.05C76.2766 60.05 75.82 59.9367 75.4133 59.71C75.0133 59.4767 74.6966 59.16 74.4633 58.76C74.23 58.3533 74.1133 57.89 74.1133 57.37C74.1133 56.8433 74.23 56.38 74.4633 55.98C74.6966 55.58 75.0133 55.2667 75.4133 55.04C75.8133 54.8133 76.27 54.7 76.7833 54.7C77.3033 54.7 77.7633 54.8133 78.1633 55.04C78.57 55.2667 78.8866 55.58 79.1133 55.98C79.3466 56.38 79.4633 56.8433 79.4633 57.37C79.4633 57.89 79.3466 58.3533 79.1133 58.76C78.8866 59.16 78.57 59.4767 78.1633 59.71C77.7566 59.9367 77.2966 60.05 76.7833 60.05ZM76.7833 59.42C77.1633 59.42 77.5 59.3367 77.7933 59.17C78.0866 58.9967 78.3166 58.7567 78.4833 58.45C78.6566 58.1367 78.7433 57.7767 78.7433 57.37C78.7433 56.9567 78.6566 56.5967 78.4833 56.29C78.3166 55.9833 78.0866 55.7467 77.7933 55.58C77.5 55.4067 77.1666 55.32 76.7933 55.32C76.42 55.32 76.0866 55.4067 75.7933 55.58C75.5 55.7467 75.2666 55.9833 75.0933 56.29C74.92 56.5967 74.8333 56.9567 74.8333 57.37C74.8333 57.7767 74.92 58.1367 75.0933 58.45C75.2666 58.7567 75.5 58.9967 75.7933 59.17C76.0866 59.3367 76.4166 59.42 76.7833 59.42Z" fill="#3A78F2"/>
<path d="M80.9807 60V54.75H83.3007C83.894 54.75 84.3607 54.8633 84.7007 55.09C85.0474 55.3167 85.2207 55.65 85.2207 56.09C85.2207 56.5167 85.0574 56.8467 84.7307 57.08C84.404 57.3067 83.974 57.42 83.4407 57.42L83.5807 57.21C84.2074 57.21 84.6674 57.3267 84.9607 57.56C85.254 57.7933 85.4007 58.13 85.4007 58.57C85.4007 59.0233 85.234 59.3767 84.9007 59.63C84.574 59.8767 84.064 60 83.3707 60H80.9807ZM81.6707 59.44H83.3407C83.7874 59.44 84.124 59.37 84.3507 59.23C84.584 59.0833 84.7007 58.85 84.7007 58.53C84.7007 58.21 84.5974 57.9767 84.3907 57.83C84.184 57.6833 83.8574 57.61 83.4107 57.61H81.6707V59.44ZM81.6707 57.08H83.2507C83.6574 57.08 83.9674 57.0033 84.1807 56.85C84.4007 56.6967 84.5107 56.4733 84.5107 56.18C84.5107 55.8867 84.4007 55.6667 84.1807 55.52C83.9674 55.3733 83.6574 55.3 83.2507 55.3H81.6707V57.08Z" fill="#3A78F2"/>
<path d="M89.2247 60.05C88.718 60.05 88.2614 59.9367 87.8547 59.71C87.4547 59.4767 87.138 59.16 86.9047 58.76C86.6714 58.3533 86.5547 57.89 86.5547 57.37C86.5547 56.8433 86.6714 56.38 86.9047 55.98C87.138 55.58 87.4547 55.2667 87.8547 55.04C88.2547 54.8133 88.7114 54.7 89.2247 54.7C89.7447 54.7 90.2047 54.8133 90.6047 55.04C91.0114 55.2667 91.328 55.58 91.5547 55.98C91.788 56.38 91.9047 56.8433 91.9047 57.37C91.9047 57.89 91.788 58.3533 91.5547 58.76C91.328 59.16 91.0114 59.4767 90.6047 59.71C90.198 59.9367 89.738 60.05 89.2247 60.05ZM89.2247 59.42C89.6047 59.42 89.9414 59.3367 90.2347 59.17C90.528 58.9967 90.758 58.7567 90.9247 58.45C91.098 58.1367 91.1847 57.7767 91.1847 57.37C91.1847 56.9567 91.098 56.5967 90.9247 56.29C90.758 55.9833 90.528 55.7467 90.2347 55.58C89.9414 55.4067 89.608 55.32 89.2347 55.32C88.8614 55.32 88.528 55.4067 88.2347 55.58C87.9414 55.7467 87.708 55.9833 87.5347 56.29C87.3614 56.5967 87.2747 56.9567 87.2747 57.37C87.2747 57.7767 87.3614 58.1367 87.5347 58.45C87.708 58.7567 87.9414 58.9967 88.2347 59.17C88.528 59.3367 88.858 59.42 89.2247 59.42Z" fill="#3A78F2"/>
<path d="M95.6221 60.05C95.1021 60.05 94.6354 59.9367 94.2221 59.71C93.8154 59.4767 93.4954 59.16 93.2621 58.76C93.0288 58.3533 92.9121 57.89 92.9121 57.37C92.9121 56.8433 93.0288 56.38 93.2621 55.98C93.4954 55.58 93.8154 55.2667 94.2221 55.04C94.6354 54.8133 95.1021 54.7 95.6221 54.7C96.0688 54.7 96.4721 54.7867 96.8321 54.96C97.1921 55.1333 97.4754 55.3933 97.6821 55.74L97.1521 56.1C96.9721 55.8333 96.7488 55.6367 96.4821 55.51C96.2155 55.3833 95.9254 55.32 95.6121 55.32C95.2388 55.32 94.9021 55.4067 94.6021 55.58C94.3021 55.7467 94.0655 55.9833 93.8921 56.29C93.7188 56.5967 93.6321 56.9567 93.6321 57.37C93.6321 57.7833 93.7188 58.1433 93.8921 58.45C94.0655 58.7567 94.3021 58.9967 94.6021 59.17C94.9021 59.3367 95.2388 59.42 95.6121 59.42C95.9254 59.42 96.2155 59.3567 96.4821 59.23C96.7488 59.1033 96.9721 58.91 97.1521 58.65L97.6821 59.01C97.4754 59.35 97.1921 59.61 96.8321 59.79C96.4721 59.9633 96.0688 60.05 95.6221 60.05Z" fill="#3A78F2"/>
<path d="M99.0569 60V54.75H99.7669V58.92L103.277 54.75H103.907V60H103.197V55.82L99.6969 60H99.0569Z" fill="#3A78F2"/>
<path d="M108.302 60.06C107.875 60.06 107.495 59.99 107.162 59.85C106.835 59.71 106.555 59.4967 106.322 59.21C106.088 58.9233 105.912 58.57 105.792 58.15C105.672 57.7233 105.612 57.23 105.612 56.67C105.612 56.17 105.658 55.7333 105.752 55.36C105.845 54.98 105.975 54.6533 106.142 54.38C106.308 54.1067 106.502 53.8767 106.722 53.69C106.948 53.4967 107.192 53.3433 107.452 53.23C107.718 53.11 107.992 53.02 108.272 52.96L110.632 52.41L110.752 53.07L108.532 53.57C108.392 53.6033 108.222 53.65 108.022 53.71C107.828 53.77 107.628 53.86 107.422 53.98C107.222 54.1 107.035 54.2667 106.862 54.48C106.688 54.6933 106.548 54.97 106.442 55.31C106.342 55.6433 106.292 56.06 106.292 56.56C106.292 56.6667 106.295 56.7533 106.302 56.82C106.308 56.88 106.315 56.9467 106.322 57.02C106.335 57.0867 106.345 57.1867 106.352 57.32L106.042 57.06C106.115 56.6533 106.265 56.3 106.492 56C106.718 55.6933 107.002 55.4567 107.342 55.29C107.688 55.1167 108.072 55.03 108.492 55.03C108.978 55.03 109.412 55.1367 109.792 55.35C110.172 55.5567 110.468 55.8467 110.682 56.22C110.902 56.5933 111.012 57.0267 111.012 57.52C111.012 58.0067 110.898 58.4433 110.672 58.83C110.452 59.2167 110.138 59.52 109.732 59.74C109.325 59.9533 108.848 60.06 108.302 60.06ZM108.382 59.47C108.755 59.47 109.085 59.3867 109.372 59.22C109.658 59.0467 109.882 58.8133 110.042 58.52C110.208 58.2267 110.292 57.8967 110.292 57.53C110.292 57.17 110.208 56.85 110.042 56.57C109.882 56.29 109.658 56.07 109.372 55.91C109.085 55.7433 108.752 55.66 108.372 55.66C107.998 55.66 107.668 55.74 107.382 55.9C107.095 56.0533 106.868 56.27 106.702 56.55C106.542 56.83 106.462 57.1533 106.462 57.52C106.462 57.8867 106.542 58.2167 106.702 58.51C106.868 58.8033 107.095 59.0367 107.382 59.21C107.675 59.3833 108.008 59.47 108.382 59.47Z" fill="#3A78F2"/>
<path d="M112.533 60V54.75H113.243V58.92L116.753 54.75H117.383V60H116.673V55.82L113.173 60H112.533Z" fill="#3A78F2"/>
<path d="M122.128 60.05C121.675 60.05 121.265 59.9467 120.898 59.74C120.532 59.5267 120.238 59.2233 120.018 58.83C119.805 58.43 119.698 57.9433 119.698 57.37C119.698 56.7967 119.805 56.3133 120.018 55.92C120.232 55.52 120.522 55.2167 120.888 55.01C121.255 54.8033 121.668 54.7 122.128 54.7C122.628 54.7 123.075 54.8133 123.468 55.04C123.868 55.26 124.182 55.5733 124.408 55.98C124.635 56.38 124.748 56.8433 124.748 57.37C124.748 57.9033 124.635 58.37 124.408 58.77C124.182 59.17 123.868 59.4833 123.468 59.71C123.075 59.9367 122.628 60.05 122.128 60.05ZM119.418 61.94V54.75H120.098V56.33L120.028 57.38L120.128 58.44V61.94H119.418ZM122.078 59.42C122.452 59.42 122.785 59.3367 123.078 59.17C123.372 58.9967 123.605 58.7567 123.778 58.45C123.952 58.1367 124.038 57.7767 124.038 57.37C124.038 56.9633 123.952 56.6067 123.778 56.3C123.605 55.9933 123.372 55.7533 123.078 55.58C122.785 55.4067 122.452 55.32 122.078 55.32C121.705 55.32 121.368 55.4067 121.068 55.58C120.775 55.7533 120.542 55.9933 120.368 56.3C120.202 56.6067 120.118 56.9633 120.118 57.37C120.118 57.7767 120.202 58.1367 120.368 58.45C120.542 58.7567 120.775 58.9967 121.068 59.17C121.368 59.3367 121.705 59.42 122.078 59.42Z" fill="#3A78F2"/>
<path d="M128.474 60.05C127.954 60.05 127.487 59.9367 127.074 59.71C126.667 59.4767 126.347 59.16 126.114 58.76C125.88 58.3533 125.764 57.89 125.764 57.37C125.764 56.8433 125.88 56.38 126.114 55.98C126.347 55.58 126.667 55.2667 127.074 55.04C127.487 54.8133 127.954 54.7 128.474 54.7C128.92 54.7 129.324 54.7867 129.684 54.96C130.044 55.1333 130.327 55.3933 130.534 55.74L130.004 56.1C129.824 55.8333 129.6 55.6367 129.334 55.51C129.067 55.3833 128.777 55.32 128.464 55.32C128.09 55.32 127.754 55.4067 127.454 55.58C127.154 55.7467 126.917 55.9833 126.744 56.29C126.57 56.5967 126.484 56.9567 126.484 57.37C126.484 57.7833 126.57 58.1433 126.744 58.45C126.917 58.7567 127.154 58.9967 127.454 59.17C127.754 59.3367 128.09 59.42 128.464 59.42C128.777 59.42 129.067 59.3567 129.334 59.23C129.6 59.1033 129.824 58.91 130.004 58.65L130.534 59.01C130.327 59.35 130.044 59.61 129.684 59.79C129.324 59.9633 128.92 60.05 128.474 60.05Z" fill="#3A78F2"/>
<path d="M135.758 60L133.598 57.4L134.188 57.05L136.598 60H135.758ZM131.908 60V54.75H132.618V60H131.908ZM132.398 57.66V57.05H134.088V57.66H132.398ZM134.248 57.45L133.588 57.35L135.678 54.75H136.448L134.248 57.45Z" fill="#3A78F2"/>
<path d="M140.881 60V58.84L140.851 58.65V56.71C140.851 56.2633 140.725 55.92 140.471 55.68C140.225 55.44 139.855 55.32 139.361 55.32C139.021 55.32 138.698 55.3767 138.391 55.49C138.085 55.6033 137.825 55.7533 137.611 55.94L137.291 55.41C137.558 55.1833 137.878 55.01 138.251 54.89C138.625 54.7633 139.018 54.7 139.431 54.7C140.111 54.7 140.635 54.87 141.001 55.21C141.375 55.5433 141.561 56.0533 141.561 56.74V60H140.881ZM139.071 60.05C138.678 60.05 138.335 59.9867 138.041 59.86C137.755 59.7267 137.535 59.5467 137.381 59.32C137.228 59.0867 137.151 58.82 137.151 58.52C137.151 58.2467 137.215 58 137.341 57.78C137.475 57.5533 137.688 57.3733 137.981 57.24C138.281 57.1 138.681 57.03 139.181 57.03H140.991V57.56H139.201C138.695 57.56 138.341 57.65 138.141 57.83C137.948 58.01 137.851 58.2333 137.851 58.5C137.851 58.8 137.968 59.04 138.201 59.22C138.435 59.4 138.761 59.49 139.181 59.49C139.581 59.49 139.925 59.4 140.211 59.22C140.505 59.0333 140.718 58.7667 140.851 58.42L141.011 58.91C140.878 59.2567 140.645 59.5333 140.311 59.74C139.985 59.9467 139.571 60.05 139.071 60.05Z" fill="#3A78F2"/>
</svg>
